<?xml version="1.0" encoding="UTF-8"?>
<svg id="Layer_1" xmlns="http://www.w3.org/2000/svg" version="1.1" viewBox="0 0 173.1 178">
  <!-- Generator: Adobe Illustrator 30.1.0, SVG Export Plug-In . SVG Version: 2.1.1 Build 136)  -->
  <path d="M85.8,165.4c-1.8,0-3.7,0-5.8,0-1.2,0-2.3-.8-2.6-2l-3.9-12.9c-.7-2.4-2.4-4.4-4.7-5.4-3.3-1.6-6.8-3.1-10.5-4.4-1-.4-2-.5-3-.5s-2.9.4-4.2,1.1l-11.8,6.3c-.4.2-.9.3-1.3.3-.8,0-1.5-.3-2-.8l-8.7-8.7c-.9-.9-1.1-2.3-.5-3.4l6.4-11.6c1.2-2.2,1.4-4.8.6-7.2-1.3-3.7-2.8-7.3-4.4-10.7-1.1-2.3-3.1-4-5.5-4.7l-12.9-3.8c-1.2-.3-2-1.4-2-2.6,0-4.4,0-8.3,0-12.3,0-1.2.8-2.3,2-2.6l12.8-3.8c2.5-.7,4.5-2.5,5.5-4.8h0c.5-1.1,1.4-1.8,2.6-1.8s1.4.3,2,.8l2.9,2.8c.7.7,1,1.8.7,2.8-5.5,21.3,3.2,43.4,21.6,55.1,8,5.1,17.4,7.8,27,7.8s25.8-5.1,35.1-14.2c16.7-16.4,19.9-41.9,7.8-61.9-9.1-15.1-25.2-24.2-42.8-24.2s-8.5.5-12.6,1.6c-.2,0-.5,0-.7,0-.8,0-1.5-.3-2-.8l-2.9-2.9c-.7-.7-1-1.6-.8-2.5.2-.9.7-1.7,1.6-2.1,2.3-1.1,4.1-3.1,4.8-5.5l3.8-12.8c.4-1.2,1.5-2,2.7-2h12.1c1.3,0,2.3.8,2.7,2l3.8,12.8c.7,2.3,2.4,4.3,4.6,5.4,3.5,1.7,7.2,3.3,10.9,4.5.9.3,1.9.5,2.9.5,1.5,0,2.9-.4,4.2-1.1l11.6-6.4c.4-.2.9-.3,1.4-.3.7,0,1.4.3,1.9.8,2.8,2.7,5.5,5.4,8.8,8.7.9.9,1,2.2.4,3.3l-6.4,11.7c-1.3,2.3-1.4,5-.5,7.5,1.3,3.3,2.6,6.4,4.2,10.2,1,2.4,3.1,4.2,5.6,4.9l12.8,3.8c1.2.4,2,1.4,2,2.7v12.1c0,1.2-.8,2.3-2,2.7l-13,3.9c-2.5.8-4.5,2.6-5.6,5-1.8,4.1-3,7.2-4.2,10.3-.9,2.4-.7,5.1.5,7.4l6.4,11.6c.6,1.1.4,2.5-.5,3.3l-8.5,8.6c-.5.5-1.2.8-2,.8s-.9-.1-1.3-.3l-11.9-6.5c-1.3-.7-2.8-1.1-4.2-1.1s-2.3.2-3.4.7l-9.8,4.1c-2.5,1-4.3,3.1-5.1,5.7l-3.8,12.9c-.3,1.2-1.4,2-2.6,2-2.2,0-4.3.1-6.5.1Z"/>
  <path d="M86.4,120.3c-3.5,0-15.5-.8-24.6-11.2-6.4-7.4-9.1-17.7-7.1-27.5,1-4.9-.5-9.9-3.9-13.3L11.1,28.3c-2.2-2.2-2.6-4.8-2.6-6.6,0-3,1.4-6.1,3.6-8.1,2.1-1.9,4.7-3,7.6-3s5.5,1.1,7.5,3.1l39.2,39.1c2.7,2.7,6.4,4.2,10.3,4.2s2.1-.1,3.1-.3c2.1-.4,4.3-.7,6.4-.7,7.6,0,15,2.8,20.8,7.8,11.1,9.6,11.3,22.2,11.2,25.8,0,1.3-.2,2.4-.4,3.2l-12.5-12.4c-2.8-2.7-6.4-4.2-10.3-4.2s-4.8.6-7,1.8c-5.1,2.8-9.2,6.9-12,12-3.1,5.6-2.1,12.7,2.5,17.3l12.5,12.5c-1,.3-2.5.5-4.6.5Z"/>
</svg>