<?xml version="1.0" encoding="UTF-8"?>
<svg id="Layer_1" xmlns="http://www.w3.org/2000/svg" version="1.1" viewBox="0 0 127.9 146.5">
  <!-- Generator: Adobe Illustrator 30.1.0, SVG Export Plug-In . SVG Version: 2.1.1 Build 136)  -->
  <defs>
    <style>
      .st0 {
        fill: #c9c300;
      }

      .st1 {
        fill: #fff;
        stroke: #000;
        stroke-miterlimit: 10;
        stroke-width: .5px;
      }
    </style>
  </defs>
  <g id="_x31_">
    <polygon class="st0" points="85.8 33.5 95.1 17.4 64.9 0 64.9 21.5 85.8 33.5"/>
    <path class="st1" d="M81,15.1h0s-2.3-.1-2.3-.1l.3-1.2h2.9c0,.1,1.2.8,1.2.8l-5.9,10.1-1.3-.8,5.2-8.8Z"/>
  </g>
  <g id="_x32_">
    <polygon class="st0" points="108.3 46.5 126.9 35.7 96.8 18.4 87.5 34.5 108.3 46.5"/>
    <path class="st1" d="M96.7,36.1l.5-.9,1.7-.5c4-1,5.9-1.7,6.8-3.2.6-1,.6-2.3-.9-3.1-.9-.5-2-.5-2.7-.3v-1.2c1.1-.2,2.4,0,3.6.6,2.2,1.2,2.3,3.2,1.5,4.7-1,1.9-3.3,2.7-6.6,3.5l-1.2.3h0s4.6,2.6,4.6,2.6l-.6,1.2-6.5-3.6Z"/>
  </g>
  <g id="_x33_">
    <polygon class="st0" points="109.3 48.2 109.3 72.3 127.9 72.3 127.9 37.5 109.3 48.2"/>
    <path class="st1" d="M115.1,62.8c.5.3,1.5.7,2.6.7,2,0,2.7-1.3,2.6-2.3,0-1.6-1.5-2.3-3-2.3h-.9v-1.2h.9c1.2,0,2.6-.6,2.6-2s-.6-1.8-2.1-1.8-1.8.4-2.3.8l-.4-1.2c.6-.4,1.8-.9,3.1-.9,2.3,0,3.3,1.4,3.3,2.8s-.7,2.2-2.2,2.8h0c1.4.3,2.6,1.4,2.6,3s-1.5,3.5-4.3,3.5-2.5-.4-3-.8l.4-1.2Z"/>
  </g>
  <g id="_x34_">
    <polygon class="st0" points="109.3 74.3 109.3 98.3 127.9 109.1 127.9 74.3 109.3 74.3"/>
    <path class="st1" d="M119.7,94.3v-3.2h-5.4v-1l5.2-7.5h1.7v7.3h1.6v1.2h-1.6v3.2h-1.5ZM119.7,89.9v-3.9c0-.6,0-1.2,0-1.8h0c-.4.7-.6,1.2-1,1.7l-2.9,4h0s3.8,0,3.8,0Z"/>
  </g>
  <g id="_x35_">
    <polygon class="st0" points="108.3 100.1 87.4 112.1 96.7 128.2 126.9 110.8 108.3 100.1"/>
    <path class="st1" d="M103.8,108.4l-3.8,2.3,1.2,2.8c.2-.2.4-.3.8-.5.8-.5,1.7-.8,2.5-.7,1.1,0,2.2.5,3,1.7,1.2,2,.5,4.4-1.7,5.7-1.1.7-2.2.9-2.9.9l-.3-1.2c.6,0,1.6-.2,2.5-.7,1.3-.8,1.9-2.3,1.1-3.6-.8-1.3-2.2-1.7-4.2-.5-.6.3-1,.7-1.3.9l-2.2-5.2,4.8-2.9.7,1.1Z"/>
  </g>
  <g id="_x36_">
    <polygon class="st0" points="64.9 125.1 64.9 146.5 95 129.2 85.7 113.1 64.9 125.1"/>
    <path class="st1" d="M78.8,122.5c-.3.1-.6.4-1,.6-2,1.6-2.3,3.8-1.6,5.6h0c.1-.9.7-1.9,1.8-2.6,1.8-1,3.8-.4,4.9,1.6,1,1.9.7,4.3-1.4,5.5-2.2,1.2-4.6.3-6-2.4-1.1-2-1.2-4-.8-5.6.4-1.3,1.3-2.4,2.5-3.3.4-.3.7-.5,1-.6l.6,1.1ZM81.6,128.6c-.8-1.5-2.1-1.9-3.4-1.2-.8.5-1.3,1.4-1.3,2.4,0,.2,0,.4.2.7,1,1.7,2.4,2.5,3.9,1.7,1.2-.7,1.5-2.1.7-3.6Z"/>
  </g>
  <g id="_x31_00">
    <polygon class="st0" points="62.9 21.5 62.9 0 32.9 17.3 42.2 33.4 62.9 21.5"/>
    <g>
      <path class="st1" d="M39.3,20.1h0s-1.1,1.8-1.1,1.8l-.8-.8,1.4-2.2,1-.6,5.1,9.1-1.2.7-4.5-7.9Z"/>
      <path class="st1" d="M50.5,18.1c1.7,3.1,1.6,5.4-.5,6.6-1.8,1-3.9,0-5.6-3-1.7-3-1.3-5.5.5-6.5,1.9-1.1,4,0,5.6,2.9ZM45.7,21c1.3,2.4,2.8,3.3,3.9,2.7,1.3-.7,1-2.5-.3-4.8-1.3-2.2-2.7-3.4-3.9-2.7-1.1.6-1.1,2.4.3,4.8Z"/>
      <path class="st1" d="M57.4,14.2c1.7,3.1,1.6,5.4-.5,6.6-1.8,1-3.9,0-5.6-3-1.7-3-1.3-5.5.5-6.5,1.9-1.1,4,0,5.6,2.9ZM52.6,17.1c1.3,2.4,2.8,3.3,3.9,2.7,1.3-.7,1-2.5-.3-4.8-1.3-2.2-2.7-3.4-3.9-2.7-1.1.6-1.1,2.4.3,4.8Z"/>
    </g>
  </g>
  <g id="_x31_1">
    <polygon class="st0" points="40.4 34.4 31.1 18.3 1 35.7 19.6 46.5 40.4 34.4"/>
    <g>
      <path class="st1" d="M19.8,30.4h0s-1.3,2-1.3,2l-.8-.9,1.6-2.4,1.2-.6,5.6,10.3-1.3.7-4.9-9Z"/>
      <path class="st1" d="M24.5,27.9h0s-1.3,2-1.3,2l-.8-.9,1.6-2.4,1.2-.6,5.6,10.3-1.3.7-4.9-9Z"/>
    </g>
  </g>
  <g id="_x31_0">
    <polygon class="st0" points="18.6 48.2 0 37.5 0 72.3 18.6 72.3 18.6 48.2"/>
    <g>
      <path class="st1" d="M5.5,54.4h0l-2,1.1-.3-1.2,2.6-1.4h1.3v11.7h-1.5v-10.2Z"/>
      <path class="st1" d="M16.2,58.7c0,4-1.5,6.2-4.1,6.2s-3.8-2.1-3.9-6c0-3.9,1.7-6.1,4.1-6.1s3.9,2.2,3.9,5.9ZM9.8,58.8c0,3,.9,4.8,2.4,4.8s2.4-1.9,2.4-4.9-.7-4.8-2.4-4.8-2.4,1.7-2.4,4.9Z"/>
    </g>
  </g>
  <g id="_x39_">
    <polygon class="st0" points="18.6 74.3 0 74.3 0 109.1 18.6 98.3 18.6 74.3"/>
    <path class="st1" d="M6.9,93.2c.3,0,.7,0,1.3,0,.9-.1,1.8-.5,2.4-1.1.8-.7,1.3-1.7,1.5-3.1h0c-.6.8-1.6,1.3-2.8,1.3-2.1,0-3.5-1.6-3.5-3.6s1.6-4.2,4-4.2,3.9,1.9,3.9,4.9-.9,4.4-2,5.5c-.9.9-2.1,1.4-3.4,1.6-.6,0-1.1.1-1.5,0v-1.3ZM7.5,86.5c0,1.5.9,2.5,2.3,2.5s1.9-.5,2.3-1.2c0-.1.1-.3.1-.6,0-2-.7-3.5-2.4-3.5s-2.3,1.2-2.3,2.8Z"/>
  </g>
  <g id="_x38_">
    <polygon class="st0" points="19.6 100.1 1 110.8 31 128.1 40.4 112 19.6 100.1"/>
    <path class="st1" d="M20.7,114.6c.7-1.3,2-1.8,3.5-1.7h0c-.9-1.2-.9-2.4-.4-3.2.9-1.6,2.8-2,4.7-1.1,2,1.1,2.3,2.8,1.7,4.1-.5.9-1.4,1.6-3,1.5h0c1,1.2,1.3,2.6.7,3.8-1,1.8-3.1,2.2-5.1,1.2-2.2-1.1-2.8-3.1-2-4.6ZM26.3,117.5c.7-1.3.1-2.3-1.1-3.5-1.4-.3-2.5.2-3,1.1-.6,1-.3,2.4,1,3.1,1.3.7,2.5.3,3-.8ZM25.2,110.3c-.5,1,0,2,1,3,1.1.2,2.1-.1,2.6-1,.4-.8.4-1.9-.9-2.6-1.2-.6-2.2-.2-2.7.7Z"/>
  </g>
  <g id="_x37_">
    <polygon class="st0" points="42.1 113 32.8 129.1 62.9 146.5 62.9 125.1 42.1 113"/>
    <path class="st1" d="M54.5,124.2l-.5.9-9.3,6.7-1.5-.8,9.1-6.4h0s-5.1-2.7-5.1-2.7l.6-1.1,6.5,3.4Z"/>
  </g>
</svg>