<?xml version="1.0" encoding="UTF-8"?>
<svg id="Layer_1" xmlns="http://www.w3.org/2000/svg" version="1.1" viewBox="0 0 1457.4 1080">
  <!-- Generator: Adobe Illustrator 30.1.0, SVG Export Plug-In . SVG Version: 2.1.1 Build 136)  -->
  <defs>
    <style>
      .st0 {
        fill: #231f20;
      }
    </style>
  </defs>
  <g id="board">
    <g id="row13">
      <polygon class="st0" points="1072.5 989.6 1072.5 1037.7 1114.1 1061.7 1155.7 1037.7 1155.7 989.6 1114.1 965.6 1072.5 989.6"/>
      <polygon class="st0" points="979.2 990.2 979.2 1038.3 1020.8 1062.3 1062.4 1038.3 1062.4 990.2 1020.8 966.2 979.2 990.2 979.2 990.2 979.2 990.2"/>
      <polygon class="st0" points="887.4 990.2 887.4 1038.3 929 1062.3 970.6 1038.3 970.6 990.2 929 966.2 887.4 990.2"/>
      <polygon class="st0" points="795.1 990.2 795.1 1038.3 836.7 1062.3 878.3 1038.3 878.3 990.2 836.7 966.2 795.1 990.2"/>
      <polygon class="st0" points="702.9 990.2 702.9 1038.3 744.5 1062.3 786.1 1038.3 786.1 990.2 744.5 966.2 702.9 990.2"/>
      <polygon class="st0" points="610.6 990.2 610.6 1038.3 652.2 1062.3 693.8 1038.3 693.8 990.2 652.2 966.2 610.6 990.2"/>
      <polygon class="st0" points="518.3 990.2 518.3 1038.3 559.9 1062.3 601.5 1038.3 601.5 990.2 559.9 966.2 518.3 990.2"/>
    </g>
    <g id="row12">
      <polygon class="st0" points="1202 912.1 1160.4 888.1 1118.8 912.1 1118.8 960.2 1160.4 984.2 1202 960.2 1202 912.1"/>
      <polygon class="st0" points="1108.6 912.7 1067 888.7 1025.4 912.7 1025.4 960.8 1067 984.8 1108.6 960.8 1108.6 912.7"/>
      <polygon class="st0" points="1015.8 912.7 974.2 888.7 932.6 912.7 932.6 960.8 974.2 984.8 1015.8 960.8 1015.8 912.7"/>
      <polygon class="st0" points="924.5 912.7 882.9 888.7 841.3 912.7 841.3 960.8 882.9 984.8 924.5 960.8 924.5 912.7"/>
      <polygon class="st0" points="831.6 912.7 790 888.7 748.4 912.7 748.4 960.8 790 984.8 831.6 960.8 831.6 912.7"/>
      <polygon class="st0" points="740 912.7 698.4 888.7 656.8 912.7 656.8 960.8 698.4 984.8 740 960.8 740 912.7"/>
      <polygon class="st0" points="647.4 912.7 605.8 888.7 564.2 912.7 564.2 960.8 605.8 984.8 647.4 960.8 647.4 912.7"/>
      <polygon class="st0" points="555.4 912.7 513.8 888.7 472.2 912.7 472.2 960.8 513.8 984.8 555.4 960.8 555.4 912.7"/>
    </g>
    <g id="row11">
      <polygon class="st0" points="1248.1 883 1248.1 834.9 1206.5 810.9 1164.9 834.9 1164.9 883 1206.5 907 1248.1 883"/>
      <polygon class="st0" points="1154.7 883.7 1154.7 835.6 1113.1 811.6 1071.5 835.6 1071.5 883.7 1113.1 907.7 1154.7 883.7"/>
      <polygon class="st0" points="1062.4 883.7 1062.4 835.6 1020.8 811.6 979.2 835.6 979.2 883.7 1020.8 907.7 1062.4 883.7"/>
      <polygon class="st0" points="970.7 883.7 970.7 835.6 929.1 811.6 887.5 835.6 887.5 883.7 929.1 907.7 970.7 883.7"/>
      <polygon class="st0" points="878.4 883.7 878.4 835.6 836.8 811.6 795.2 835.6 795.2 883.7 836.8 907.7 878.4 883.7"/>
      <polygon class="st0" points="786.1 883.7 786.1 835.6 744.5 811.6 702.9 835.6 702.9 883.7 744.5 907.7 786.1 883.7"/>
      <polygon class="st0" points="693.9 883.7 693.9 835.6 652.3 811.6 610.7 835.6 610.7 883.7 652.3 907.7 693.9 883.7"/>
      <polygon class="st0" points="601.6 883.7 601.6 835.6 560 811.6 518.4 835.6 518.4 883.7 560 907.7 601.6 883.7"/>
      <polygon class="st0" points="509.3 883.7 509.3 835.6 467.7 811.6 426.1 835.6 426.1 883.7 467.7 907.7 509.3 883.7"/>
    </g>
    <g id="row10">
      <polygon class="st0" points="1293.4 805.5 1293.4 757.4 1251.8 733.4 1210.2 757.4 1210.2 805.5 1251.8 829.5 1293.4 805.5"/>
      <polygon class="st0" points="1200 806.1 1200 758 1158.4 734 1116.8 758 1116.8 806.1 1158.4 830.1 1200 806.1"/>
      <polygon class="st0" points="1108.6 806.1 1108.6 758 1067 734 1025.4 758 1025.4 806.1 1067 830.1 1108.6 806.1"/>
      <polygon class="st0" points="1015.8 806.1 1015.8 758 974.2 734 932.6 758 932.6 806.1 974.2 830.1 1015.8 806.1"/>
      <polygon class="st0" points="924.5 806.1 924.5 758 882.9 734 841.3 758 841.3 806.1 882.9 830.1 924.5 806.1"/>
      <polygon class="st0" points="831.6 806.1 831.6 758 790 734 748.4 758 748.4 806.1 790 830.1 831.6 806.1"/>
      <polygon class="st0" points="740 806.1 740 758 698.4 734 656.8 758 656.8 806.1 698.4 830.1 740 806.1"/>
      <polygon class="st0" points="647.4 806.1 647.4 758 605.8 734 564.2 758 564.2 806.1 605.8 830.1 647.4 806.1"/>
      <polygon class="st0" points="555.4 806.1 555.4 758 513.8 734 472.2 758 472.2 806.1 513.8 830.1 555.4 806.1"/>
      <polygon class="st0" points="463.2 806.1 463.2 758 421.6 734 380 758 380 806.1 421.6 830.1 463.2 806.1"/>
    </g>
    <g id="row9">
      <polygon class="st0" points="1340.4 726.1 1340.4 678 1298.8 654 1257.2 678 1257.2 726.1 1298.8 750.1 1340.4 726.1"/>
      <polygon class="st0" points="1247 726.8 1247 678.7 1205.4 654.7 1163.8 678.7 1163.8 726.8 1205.4 750.8 1247 726.8"/>
      <polygon class="st0" points="1154.7 726.8 1154.7 678.7 1113.1 654.7 1071.5 678.7 1071.5 726.8 1113.1 750.8 1154.7 726.8"/>
      <polygon class="st0" points="1062.4 726.8 1062.4 678.7 1020.8 654.7 979.2 678.7 979.2 726.8 1020.8 750.8 1062.4 726.8"/>
      <polygon class="st0" points="970.7 726.8 970.7 678.7 929.1 654.7 887.5 678.7 887.5 726.8 929.1 750.8 970.7 726.8"/>
      <polygon class="st0" points="878.4 726.8 878.4 678.7 836.8 654.7 795.2 678.7 795.2 726.8 836.8 750.8 878.4 726.8"/>
      <polygon class="st0" points="786.1 726.8 786.1 678.7 744.5 654.7 702.9 678.7 702.9 726.8 744.5 750.8 786.1 726.8"/>
      <polygon class="st0" points="693.9 726.8 693.9 678.7 652.3 654.7 610.7 678.7 610.7 726.8 652.3 750.8 693.9 726.8"/>
      <polygon class="st0" points="601.6 726.8 601.6 678.7 560 654.7 518.4 678.7 518.4 726.8 560 750.8 601.6 726.8"/>
      <polygon class="st0" points="509.3 726.8 509.3 678.7 467.7 654.7 426.1 678.7 426.1 726.8 467.7 750.8 509.3 726.8"/>
      <polygon class="st0" points="333.7 726.8 375.3 750.8 416.9 726.8 416.9 678.7 375.3 654.7 333.7 678.7 333.7 726.8"/>
    </g>
    <g id="row8">
      <polygon class="st0" points="1386.2 598.6 1344.6 574.6 1303 598.6 1303 646.6 1344.6 670.6 1386.2 646.6 1386.2 598.6"/>
      <polygon class="st0" points="1292.8 599.3 1251.2 575.3 1209.6 599.3 1209.6 647.4 1251.2 671.4 1292.8 647.4 1292.8 599.3"/>
      <polygon class="st0" points="1199.7 647.3 1199.7 599.2 1158.1 575.2 1116.5 599.2 1116.5 647.3 1158.1 671.3 1199.7 647.3"/>
      <polygon class="st0" points="1108.3 647.3 1108.3 599.2 1066.7 575.2 1025.1 599.2 1025.1 647.3 1066.7 671.3 1108.3 647.3"/>
      <polygon class="st0" points="1015.5 647.3 1015.5 599.2 973.9 575.2 932.3 599.2 932.3 647.3 973.9 671.3 1015.5 647.3"/>
      <polygon class="st0" points="924.2 647.3 924.2 599.2 882.6 575.2 841 599.2 841 647.3 882.6 671.3 924.2 647.3"/>
      <polygon class="st0" points="831.3 647.3 831.3 599.2 789.7 575.2 748.1 599.2 748.1 647.3 789.7 671.3 831.3 647.3"/>
      <polygon class="st0" points="739.7 647.3 739.7 599.2 698.1 575.2 656.5 599.2 656.5 647.3 698.1 671.3 739.7 647.3"/>
      <polygon class="st0" points="647.1 647.3 647.1 599.2 605.5 575.2 563.9 599.2 563.9 647.3 605.5 671.3 647.1 647.3"/>
      <polygon class="st0" points="555.1 647.3 555.1 599.2 513.5 575.2 471.9 599.2 471.9 647.3 513.5 671.3 555.1 647.3"/>
      <polygon class="st0" points="379.6 647.3 421.2 671.3 462.8 647.3 462.8 599.2 421.2 575.2 379.6 599.2 379.6 647.3"/>
      <polygon class="st0" points="370.6 647.3 370.6 599.2 329 575.2 287.4 599.2 287.4 647.3 329 671.3 370.6 647.3"/>
    </g>
    <g id="row7">
      <polygon class="st0" points="1349.4 519 1349.4 567.1 1391 591.1 1432.6 567.1 1432.6 519 1391 495 1349.4 519"/>
      <polygon class="st0" points="1256 519.6 1256 567.7 1297.6 591.7 1339.2 567.7 1339.2 519.6 1297.6 495.6 1256 519.6"/>
      <polygon class="st0" points="1247 519.6 1205.4 495.6 1163.8 519.6 1163.8 567.7 1205.4 591.7 1247 567.7 1247 519.6"/>
      <polygon class="st0" points="1071.5 519.6 1071.5 567.7 1113.1 591.7 1154.7 567.7 1154.7 519.6 1113.1 495.6 1071.5 519.6"/>
      <polygon class="st0" points="979.2 519.6 979.2 567.7 1020.8 591.7 1062.4 567.7 1062.4 519.6 1020.8 495.6 979.2 519.6 979.2 519.6 979.2 519.6"/>
      <polygon class="st0" points="887.4 519.6 887.4 567.7 929 591.7 970.6 567.7 970.6 519.6 929 495.6 887.4 519.6"/>
      <polygon class="st0" points="795.1 519.6 795.1 567.7 836.7 591.7 878.3 567.7 878.3 519.6 836.7 495.6 795.1 519.6"/>
      <polygon class="st0" points="702.9 519.6 702.9 567.7 744.5 591.7 786.1 567.7 786.1 519.6 744.5 495.6 702.9 519.6"/>
      <polygon class="st0" points="610.6 519.6 610.6 567.7 652.2 591.7 693.8 567.7 693.8 519.6 652.2 495.6 610.6 519.6"/>
      <polygon class="st0" points="518.3 519.6 518.3 567.7 559.9 591.7 601.5 567.7 601.5 519.6 559.9 495.6 518.3 519.6"/>
      <polygon class="st0" points="426 519.6 426 567.7 467.6 591.7 509.2 567.7 509.2 519.6 467.6 495.6 426 519.6"/>
      <polygon class="st0" points="333.7 567.7 375.3 591.7 416.9 567.7 416.9 519.6 375.3 495.6 333.7 519.6 333.7 567.7"/>
      <polygon class="st0" points="324.7 567.7 324.7 519.6 283.1 495.6 241.5 519.6 241.5 567.7 283.1 591.7 324.7 567.7"/>
    </g>
    <g id="row6">
      <polygon class="st0" points="1293.1 439.9 1251.5 415.9 1209.9 439.9 1209.9 488 1251.5 512 1293.1 488 1293.1 439.9"/>
      <polygon class="st0" points="1025.3 439.9 1025.3 488 1066.9 512 1108.5 488 1108.5 439.9 1066.9 415.9 1025.3 439.9"/>
      <polygon class="st0" points="841.3 439.9 841.3 488 882.9 512 924.5 488 924.5 439.9 882.9 415.9 841.3 439.9"/>
      <polygon class="st0" points="656.7 439.9 656.7 488 698.3 512 739.9 488 739.9 439.9 698.3 415.9 656.7 439.9"/>
      <polygon class="st0" points="472.2 439.9 472.2 488 513.8 512 555.4 488 555.4 439.9 513.8 415.9 472.2 439.9 472.2 439.9"/>
      <polygon class="st0" points="370.9 487.9 370.9 439.8 329.3 415.8 287.7 439.8 287.7 487.9 329.3 511.9 370.9 487.9"/>
      <polygon class="st0" points="379.9 439.9 379.9 488 421.5 512 463.1 488 463.1 439.9 421.5 415.9 379.9 439.9"/>
      <polygon class="st0" points="564.1 439.9 564.1 488 605.7 512 647.3 488 647.3 439.9 605.7 415.9 564.1 439.9"/>
      <polygon class="st0" points="748.3 439.9 748.3 488 789.9 512 831.5 488 831.5 439.9 789.9 415.9 748.3 439.9"/>
      <polygon class="st0" points="932.5 439.9 932.5 488 974.1 512 1015.7 488 1015.7 439.9 974.1 415.9 932.5 439.9"/>
      <polygon class="st0" points="1200 487.9 1200 439.8 1158.4 415.8 1116.8 439.8 1116.8 487.9 1158.4 511.9 1200 487.9"/>
      <polygon class="st0" points="1386.5 439.2 1344.9 415.2 1303.3 439.2 1303.3 487.3 1344.9 511.3 1386.5 487.3 1386.5 439.2"/>
    </g>
    <g id="row5">
      <polygon class="st0" points="1247 360.5 1205.4 336.5 1163.8 360.5 1163.8 408.6 1205.4 432.6 1247 408.6 1247 360.5"/>
      <polygon class="st0" points="1071.5 360.5 1071.5 408.6 1113.1 432.6 1154.7 408.6 1154.7 360.5 1113.1 336.5 1071.5 360.5"/>
      <polygon class="st0" points="979.2 360.5 979.2 408.6 1020.8 432.6 1062.4 408.6 1062.4 360.5 1020.8 336.5 979.2 360.5 979.2 360.5"/>
      <polygon class="st0" points="887.4 360.5 887.4 408.6 929 432.6 970.6 408.6 970.6 360.5 929 336.5 887.4 360.5"/>
      <polygon class="st0" points="795.1 360.5 795.1 408.6 836.7 432.6 878.3 408.6 878.3 360.5 836.7 336.5 795.1 360.5"/>
      <polygon class="st0" points="702.9 360.5 702.9 408.6 744.5 432.6 786.1 408.6 786.1 360.5 744.5 336.5 702.9 360.5"/>
      <polygon class="st0" points="610.6 360.5 610.6 408.6 652.2 432.6 693.8 408.6 693.8 360.5 652.2 336.5 610.6 360.5"/>
      <polygon class="st0" points="518.3 360.5 518.3 408.6 559.9 432.6 601.5 408.6 601.5 360.5 559.9 336.5 518.3 360.5"/>
      <polygon class="st0" points="426 360.5 426 408.6 467.6 432.6 509.2 408.6 509.2 360.5 467.6 336.5 426 360.5"/>
      <polygon class="st0" points="333.7 408.6 375.3 432.6 416.9 408.6 416.9 360.5 375.3 336.5 333.7 360.5 333.7 408.6"/>
      <polygon class="st0" points="1340.4 359.9 1298.8 335.9 1257.2 359.9 1257.2 408 1298.8 432 1340.4 408 1340.4 359.9"/>
    </g>
    <g id="row4">
      <polygon class="st0" points="1210.1 280.1 1210.1 328.2 1251.7 352.2 1293.3 328.2 1293.3 280.1 1251.7 256.1 1210.1 280.1"/>
      <polygon class="st0" points="1116.8 280.8 1116.8 328.9 1158.4 352.9 1200 328.9 1200 280.8 1158.4 256.8 1116.8 280.8"/>
      <polygon class="st0" points="1025.3 280.8 1025.3 328.9 1066.9 352.9 1108.5 328.9 1108.5 280.8 1066.9 256.8 1025.3 280.8"/>
      <polygon class="st0" points="932.5 280.8 932.5 328.9 974.1 352.9 1015.7 328.9 1015.7 280.8 974.1 256.8 932.5 280.8"/>
      <polygon class="st0" points="841.3 280.8 841.3 328.9 882.9 352.9 924.5 328.9 924.5 280.8 882.9 256.8 841.3 280.8"/>
      <polygon class="st0" points="748.3 280.8 748.3 328.9 789.9 352.9 831.5 328.9 831.5 280.8 789.9 256.8 748.3 280.8"/>
      <polygon class="st0" points="656.7 280.8 656.7 328.9 698.3 352.9 739.9 328.9 739.9 280.8 698.3 256.8 656.7 280.8"/>
      <polygon class="st0" points="564.1 280.8 564.1 328.9 605.7 352.9 647.3 328.9 647.3 280.8 605.7 256.8 564.1 280.8"/>
      <polygon class="st0" points="472.2 280.8 472.2 328.9 513.8 352.9 555.4 328.9 555.4 280.8 513.8 256.8 472.2 280.8 472.2 280.8"/>
      <polygon class="st0" points="379.9 280.8 379.9 328.9 421.5 352.9 463.1 328.9 463.1 280.8 421.5 256.8 379.9 280.8"/>
    </g>
    <g id="row3">
      <polygon class="st0" points="1164.8 200.8 1164.8 248.9 1206.4 272.9 1248 248.9 1248 200.8 1206.4 176.8 1164.8 200.8"/>
      <polygon class="st0" points="1071.5 201.4 1071.5 249.5 1113.1 273.5 1154.7 249.5 1154.7 201.4 1113.1 177.4 1071.5 201.4 1071.5 201.4"/>
      <polygon class="st0" points="979.2 201.4 979.2 249.5 1020.8 273.5 1062.4 249.5 1062.4 201.4 1020.8 177.4 979.2 201.4 979.2 201.4"/>
      <polygon class="st0" points="887.4 201.4 887.4 249.5 929 273.5 970.6 249.5 970.6 201.4 929 177.4 887.4 201.4 887.4 201.4"/>
      <polygon class="st0" points="795.1 201.4 795.1 249.5 836.7 273.5 878.3 249.5 878.3 201.4 836.7 177.4 795.1 201.4 795.1 201.4"/>
      <polygon class="st0" points="702.9 201.4 702.9 249.5 744.5 273.5 786.1 249.5 786.1 201.4 744.5 177.4 702.9 201.4 702.9 201.4"/>
      <polygon class="st0" points="610.6 201.4 610.6 249.5 652.2 273.5 693.8 249.5 693.8 201.4 652.2 177.4 610.6 201.4 610.6 201.4"/>
      <polygon class="st0" points="518.3 201.4 518.3 249.5 559.9 273.5 601.5 249.5 601.5 201.4 559.9 177.4 518.3 201.4 518.3 201.4"/>
      <polygon class="st0" points="427 199.9 427 248.3 468 273.5 510.3 248.4 510.3 202 469.3 178.1 427 199.9 427 199.9"/>
    </g>
    <g id="row2">
      <polygon class="st0" points="1118.7 169.1 1160.3 193.1 1201.9 169.1 1201.9 121 1160.3 97 1118.7 121 1118.7 169.1"/>
      <polygon class="st0" points="1025.3 169.8 1066.9 193.8 1108.5 169.8 1108.5 121.7 1066.9 97.7 1025.3 121.7 1025.3 169.8"/>
      <polygon class="st0" points="932.5 169.8 974.1 193.8 1015.7 169.8 1015.7 121.7 974.1 97.7 932.5 121.7 932.5 169.8"/>
      <polygon class="st0" points="841.3 169.8 882.9 193.8 924.5 169.8 924.5 121.7 882.9 97.7 841.3 121.7 841.3 169.8"/>
      <polygon class="st0" points="748.3 169.8 789.9 193.8 831.5 169.8 831.5 121.7 789.9 97.7 748.3 121.7 748.3 169.8"/>
      <polygon class="st0" points="656.7 169.8 698.3 193.8 739.9 169.8 739.9 121.7 698.3 97.7 656.7 121.7 656.7 169.8"/>
      <polygon class="st0" points="564.1 169.8 605.7 193.8 647.3 169.8 647.3 121.7 605.7 97.7 564.1 121.7 564.1 169.8"/>
      <polygon class="st0" points="472.2 169.8 513.8 193.8 555.4 169.8 555.4 121.7 513.8 97.7 472.2 121.7 472.2 169.8 472.2 169.8"/>
    </g>
    <g id="row1">
      <polygon class="st0" points="1155.8 89.8 1155.8 41.7 1114.2 17.7 1072.6 41.7 1072.6 89.8 1114.2 113.8 1155.8 89.8"/>
      <polygon class="st0" points="1062.4 90.4 1062.4 42.3 1020.8 18.3 979.2 42.3 979.2 90.4 1020.8 114.4 1062.4 90.4"/>
      <polygon class="st0" points="970.7 90.4 970.7 42.3 929.1 18.3 887.5 42.3 887.5 90.4 929.1 114.4 970.7 90.4"/>
      <polygon class="st0" points="878.4 90.4 878.4 42.3 836.8 18.3 795.2 42.3 795.2 90.4 836.8 114.4 878.4 90.4"/>
      <polygon class="st0" points="786.1 90.4 786.1 42.3 744.5 18.3 702.9 42.3 702.9 90.4 744.5 114.4 786.1 90.4"/>
      <polygon class="st0" points="693.9 90.4 693.9 42.3 652.3 18.3 610.7 42.3 610.7 90.4 652.3 114.4 693.9 90.4"/>
      <polygon class="st0" points="601.6 90.4 601.6 42.3 560 18.3 518.4 42.3 518.4 90.4 560 114.4 601.6 90.4"/>
    </g>
  </g>
  <polygon id="zoom" class="st0" points="13.7 765.9 13.7 968.3 188.8 1069.3 363.8 968.3 363.8 765.9 188.8 664.9 13.7 765.9"/>
</svg>