<?xml version="1.0" encoding="UTF-8"?>
<svg id="Layer_1" xmlns="http://www.w3.org/2000/svg" version="1.1" viewBox="0 0 1347.1 1080">
  <!-- Generator: Adobe Illustrator 30.1.0, SVG Export Plug-In . SVG Version: 2.1.1 Build 136)  -->
  <defs>
    <style>
      .st0 {
        fill: #231f20;
      }
    </style>
  </defs>
  <g id="board">
    <g id="row12">
      <polygon class="st0" points="1039 960.2 992.1 933.1 945.2 960.2 945.2 1014.4 992.1 1041.5 1039 1014.4 1039 960.2"/>
      <polygon class="st0" points="934.3 960.2 887.4 933.1 840.5 960.2 840.5 1014.4 887.4 1041.5 934.3 1014.4 934.3 960.2"/>
      <polygon class="st0" points="831.3 960.2 784.4 933.1 737.4 960.2 737.4 1014.4 784.4 1041.5 831.3 1014.4 831.3 960.2"/>
      <polygon class="st0" points="726.5 960.2 679.6 933.1 632.6 960.2 632.6 1014.4 679.6 1041.5 726.5 1014.4 726.5 960.2"/>
      <polygon class="st0" points="623.2 960.2 576.2 933.1 529.3 960.2 529.3 1014.4 576.2 1041.5 623.2 1014.4 623.2 960.2"/>
      <polygon class="st0" points="518.7 960.2 471.7 933.1 424.8 960.2 424.8 1014.4 471.7 1041.5 518.7 1014.4 518.7 960.2"/>
    </g>
    <g id="row11">
      <polygon class="st0" points="1091.1 927.4 1091.1 873.2 1044.1 846.1 997.2 873.2 997.2 927.4 1044.1 954.5 1091.1 927.4"/>
      <polygon class="st0" points="986.9 927.4 986.9 873.2 940 846.1 893 873.2 893 927.4 940 954.5 986.9 927.4"/>
      <polygon class="st0" points="883.5 927.4 883.5 873.2 836.5 846.1 789.6 873.2 789.6 927.4 836.5 954.5 883.5 927.4"/>
      <polygon class="st0" points="779.3 927.4 779.3 873.2 732.4 846.1 685.4 873.2 685.4 927.4 732.4 954.5 779.3 927.4"/>
      <polygon class="st0" points="675.2 927.4 675.2 873.2 628.2 846.1 581.3 873.2 581.3 927.4 628.2 954.5 675.2 927.4"/>
      <polygon class="st0" points="571.1 927.4 571.1 873.2 524.2 846.1 477.3 873.2 477.3 927.4 524.2 954.5 571.1 927.4"/>
      <polygon class="st0" points="467 927.4 467 873.2 420.1 846.1 373.1 873.2 373.1 927.4 420.1 954.5 467 927.4"/>
    </g>
    <g id="row10">
      <polygon class="st0" points="1142.2 839.9 1142.2 785.6 1095.2 758.5 1048.3 785.6 1048.3 839.9 1095.2 867 1142.2 839.9"/>
      <polygon class="st0" points="1039 839.9 1039 785.6 992.1 758.5 945.2 785.6 945.2 839.9 992.1 867 1039 839.9"/>
      <polygon class="st0" points="934.3 839.9 934.3 785.6 887.4 758.5 840.5 785.6 840.5 839.9 887.4 867 934.3 839.9"/>
      <polygon class="st0" points="831.3 839.9 831.3 785.6 784.4 758.5 737.4 785.6 737.4 839.9 784.4 867 831.3 839.9"/>
      <polygon class="st0" points="726.5 839.9 726.5 785.6 679.6 758.5 632.6 785.6 632.6 839.9 679.6 867 726.5 839.9"/>
      <polygon class="st0" points="623.2 839.9 623.2 785.6 576.2 758.5 529.3 785.6 529.3 839.9 576.2 867 623.2 839.9"/>
      <polygon class="st0" points="518.7 839.9 518.7 785.6 471.7 758.5 424.8 785.6 424.8 839.9 471.7 867 518.7 839.9"/>
      <polygon class="st0" points="414.9 839.9 414.9 785.6 367.9 758.5 321 785.6 321 839.9 367.9 867 414.9 839.9"/>
    </g>
    <g id="row9">
      <polygon class="st0" points="1195.2 750.4 1195.2 696.1 1148.3 669.1 1101.3 696.1 1101.3 750.4 1148.3 777.5 1195.2 750.4"/>
      <polygon class="st0" points="1091.1 750.4 1091.1 696.1 1044.1 669.1 997.2 696.1 997.2 750.4 1044.1 777.5 1091.1 750.4"/>
      <polygon class="st0" points="986.9 750.4 986.9 696.1 940 669.1 893 696.1 893 750.4 940 777.5 986.9 750.4"/>
      <polygon class="st0" points="883.5 750.4 883.5 696.1 836.5 669.1 789.6 696.1 789.6 750.4 836.5 777.5 883.5 750.4"/>
      <polygon class="st0" points="779.3 750.4 779.3 696.1 732.4 669.1 685.4 696.1 685.4 750.4 732.4 777.5 779.3 750.4"/>
      <polygon class="st0" points="675.2 750.4 675.2 696.1 628.2 669.1 581.3 696.1 581.3 750.4 628.2 777.5 675.2 750.4"/>
      <polygon class="st0" points="571.1 750.4 571.1 696.1 524.2 669.1 477.3 696.1 477.3 750.4 524.2 777.5 571.1 750.4"/>
      <polygon class="st0" points="467 750.4 467 696.1 420.1 669.1 373.1 696.1 373.1 750.4 420.1 777.5 467 750.4"/>
      <polygon class="st0" points="362.9 750.4 362.9 696.1 315.9 669.1 269 696.1 269 750.4 315.9 777.5 362.9 750.4"/>
    </g>
    <g id="row8">
      <polygon class="st0" points="1246.9 606.6 1199.9 579.5 1153 606.6 1153 660.8 1199.9 687.9 1246.9 660.8 1246.9 606.6"/>
      <polygon class="st0" points="1141.8 660.7 1141.8 606.4 1094.9 579.4 1048 606.4 1048 660.7 1094.9 687.8 1141.8 660.7"/>
      <polygon class="st0" points="1038.7 660.7 1038.7 606.4 991.8 579.4 944.8 606.4 944.8 660.7 991.8 687.8 1038.7 660.7"/>
      <polygon class="st0" points="934 660.7 934 606.4 887.1 579.4 840.1 606.4 840.1 660.7 887.1 687.8 934 660.7"/>
      <polygon class="st0" points="831 660.7 831 606.4 784 579.4 737.1 606.4 737.1 660.7 784 687.8 831 660.7"/>
      <polygon class="st0" points="726.2 660.7 726.2 606.4 679.2 579.4 632.3 606.4 632.3 660.7 679.2 687.8 726.2 660.7"/>
      <polygon class="st0" points="622.8 660.7 622.8 606.4 575.9 579.4 528.9 606.4 528.9 660.7 575.9 687.8 622.8 660.7"/>
      <polygon class="st0" points="518.3 660.7 518.3 606.4 471.4 579.4 424.5 606.4 424.5 660.7 471.4 687.8 518.3 660.7"/>
      <polygon class="st0" points="414.5 660.7 414.5 606.4 367.6 579.4 320.7 606.4 320.7 660.7 367.6 687.8 414.5 660.7"/>
      <polygon class="st0" points="216.5 660.7 263.5 687.8 310.4 660.7 310.4 606.4 263.5 579.4 216.5 606.4 216.5 660.7"/>
    </g>
    <g id="row7">
      <polygon class="st0" points="1205.4 516.6 1205.4 570.9 1252.3 598 1299.2 570.9 1299.2 516.6 1252.3 489.6 1205.4 516.6"/>
      <polygon class="st0" points="1195.2 516.6 1148.3 489.6 1101.3 516.6 1101.3 570.9 1148.3 598 1195.2 570.9 1195.2 516.6"/>
      <polygon class="st0" points="997.2 516.6 997.2 570.9 1044.1 598 1091.1 570.9 1091.1 516.6 1044.1 489.6 997.2 516.6"/>
      <polygon class="st0" points="893 516.6 893 570.9 940 598 986.9 570.9 986.9 516.6 940 489.6 893 516.6 893 516.6 893 516.6"/>
      <polygon class="st0" points="789.5 516.6 789.5 570.9 836.4 598 883.3 570.9 883.3 516.6 836.4 489.6 789.5 516.6"/>
      <polygon class="st0" points="685.3 516.6 685.3 570.9 732.3 598 779.2 570.9 779.2 516.6 732.3 489.6 685.3 516.6"/>
      <polygon class="st0" points="581.3 516.6 581.3 570.9 628.2 598 675.2 570.9 675.2 516.6 628.2 489.6 581.3 516.6"/>
      <polygon class="st0" points="477.2 516.6 477.2 570.9 524.1 598 571 570.9 571 516.6 524.1 489.6 477.2 516.6"/>
      <polygon class="st0" points="373 516.6 373 570.9 419.9 598 466.9 570.9 466.9 516.6 419.9 489.6 373 516.6"/>
      <polygon class="st0" points="268.9 516.6 268.9 570.9 315.8 598 362.7 570.9 362.7 516.6 315.8 489.6 268.9 516.6"/>
      <polygon class="st0" points="164.7 570.9 211.7 598 258.6 570.9 258.6 516.6 211.7 489.6 164.7 516.6 164.7 570.9"/>
    </g>
    <g id="row6">
      <polygon class="st0" points="1247.2 426.7 1200.3 399.6 1153.3 426.7 1153.3 481 1200.3 508.1 1247.2 481 1247.2 426.7"/>
      <polygon class="st0" points="1142.2 480.9 1142.2 426.6 1095.2 399.5 1048.3 426.6 1048.3 480.9 1095.2 507.9 1142.2 480.9"/>
      <polygon class="st0" points="945.1 426.7 945.1 481 992 508.1 1038.9 481 1038.9 426.7 992 399.6 945.1 426.7"/>
      <polygon class="st0" points="840.3 426.7 840.3 481 887.3 508.1 934.2 481 934.2 426.7 887.3 399.6 840.3 426.7"/>
      <polygon class="st0" points="737.4 426.7 737.4 481 784.4 508.1 831.3 481 831.3 426.7 784.4 399.6 737.4 426.7"/>
      <polygon class="st0" points="632.5 426.7 632.5 481 679.5 508.1 726.4 481 726.4 426.7 679.5 399.6 632.5 426.7"/>
      <polygon class="st0" points="529.2 426.7 529.2 481 576.1 508.1 623 481 623 426.7 576.1 399.6 529.2 426.7"/>
      <polygon class="st0" points="424.7 426.7 424.7 481 471.6 508.1 518.6 481 518.6 426.7 471.6 399.6 424.7 426.7"/>
      <polygon class="st0" points="321 426.7 321 481 367.9 508.1 414.9 481 414.9 426.7 367.9 399.6 321 426.7 321 426.7"/>
      <polygon class="st0" points="216.9 426.7 216.9 481 263.8 508.1 310.7 481 310.7 426.7 263.8 399.6 216.9 426.7"/>
    </g>
    <g id="row5">
      <polygon class="st0" points="1195.2 337.1 1148.3 310 1101.3 337.1 1101.3 391.4 1148.3 418.5 1195.2 391.4 1195.2 337.1"/>
      <polygon class="st0" points="997.2 337.1 997.2 391.4 1044.1 418.5 1091.1 391.4 1091.1 337.1 1044.1 310 997.2 337.1"/>
      <polygon class="st0" points="893 337.1 893 391.4 940 418.5 986.9 391.4 986.9 337.1 940 310 893 337.1 893 337.1"/>
      <polygon class="st0" points="789.5 337.1 789.5 391.4 836.4 418.5 883.3 391.4 883.3 337.1 836.4 310 789.5 337.1"/>
      <polygon class="st0" points="685.3 337.1 685.3 391.4 732.3 418.5 779.2 391.4 779.2 337.1 732.3 310 685.3 337.1"/>
      <polygon class="st0" points="581.3 337.1 581.3 391.4 628.2 418.5 675.2 391.4 675.2 337.1 628.2 310 581.3 337.1"/>
      <polygon class="st0" points="477.2 337.1 477.2 391.4 524.1 418.5 571 391.4 571 337.1 524.1 310 477.2 337.1"/>
      <polygon class="st0" points="373 337.1 373 391.4 419.9 418.5 466.9 391.4 466.9 337.1 419.9 310 373 337.1"/>
      <polygon class="st0" points="268.9 337.1 268.9 391.4 315.8 418.5 362.7 391.4 362.7 337.1 315.8 310 268.9 337.1"/>
    </g>
    <g id="row4">
      <polygon class="st0" points="1048.3 247.2 1048.3 301.5 1095.2 328.5 1142.2 301.5 1142.2 247.2 1095.2 220.1 1048.3 247.2"/>
      <polygon class="st0" points="945.1 247.2 945.1 301.5 992 328.5 1038.9 301.5 1038.9 247.2 992 220.1 945.1 247.2"/>
      <polygon class="st0" points="840.3 247.2 840.3 301.5 887.3 328.5 934.2 301.5 934.2 247.2 887.3 220.1 840.3 247.2"/>
      <polygon class="st0" points="737.4 247.2 737.4 301.5 784.4 328.5 831.3 301.5 831.3 247.2 784.4 220.1 737.4 247.2"/>
      <polygon class="st0" points="632.5 247.2 632.5 301.5 679.5 328.5 726.4 301.5 726.4 247.2 679.5 220.1 632.5 247.2"/>
      <polygon class="st0" points="529.2 247.2 529.2 301.5 576.1 328.5 623 301.5 623 247.2 576.1 220.1 529.2 247.2"/>
      <polygon class="st0" points="424.7 247.2 424.7 301.5 471.6 328.5 518.6 301.5 518.6 247.2 471.6 220.1 424.7 247.2"/>
      <polygon class="st0" points="321 247.2 321 301.5 367.9 328.5 414.9 301.5 414.9 247.2 367.9 220.1 321 247.2 321 247.2"/>
    </g>
    <g id="row3">
      <polygon class="st0" points="997.2 157.6 997.2 211.9 1044.1 239 1091.1 211.9 1091.1 157.6 1044.1 130.5 997.2 157.6 997.2 157.6"/>
      <polygon class="st0" points="893 157.6 893 211.9 940 239 986.9 211.9 986.9 157.6 940 130.5 893 157.6 893 157.6"/>
      <polygon class="st0" points="789.5 157.6 789.5 211.9 836.4 239 883.3 211.9 883.3 157.6 836.4 130.5 789.5 157.6 789.5 157.6"/>
      <polygon class="st0" points="685.3 157.6 685.3 211.9 732.3 239 779.2 211.9 779.2 157.6 732.3 130.5 685.3 157.6 685.3 157.6"/>
      <polygon class="st0" points="581.3 157.6 581.3 211.9 628.2 239 675.2 211.9 675.2 157.6 628.2 130.5 581.3 157.6 581.3 157.6"/>
      <polygon class="st0" points="477.2 157.6 477.2 211.9 524.1 239 571 211.9 571 157.6 524.1 130.5 477.2 157.6 477.2 157.6"/>
      <polygon class="st0" points="373 157.6 373 211.9 419.9 239 466.9 211.9 466.9 157.6 419.9 130.5 373 157.6 373 157.6"/>
    </g>
    <g id="row2">
      <polygon class="st0" points="945.1 122 992 149 1038.9 122 1038.9 67.7 992 40.6 945.1 67.7 945.1 122"/>
      <polygon class="st0" points="840.3 122 887.3 149 934.2 122 934.2 67.7 887.3 40.6 840.3 67.7 840.3 122"/>
      <polygon class="st0" points="737.4 122 784.4 149 831.3 122 831.3 67.7 784.4 40.6 737.4 67.7 737.4 122"/>
      <polygon class="st0" points="632.5 122 679.5 149 726.4 122 726.4 67.7 679.5 40.6 632.5 67.7 632.5 122"/>
      <polygon class="st0" points="529.2 122 576.1 149 623 122 623 67.7 576.1 40.6 529.2 67.7 529.2 122"/>
      <polygon class="st0" points="424.7 122 471.6 149 518.6 122 518.6 67.7 471.6 40.6 424.7 67.7 424.7 122"/>
    </g>
  </g>
  <polygon id="zoom" class="st0" points="28.5 793.2 28.5 958.9 164.8 1041.5 301 958.9 301 793.2 164.8 710.6 28.5 793.2"/>
  <rect id="text" class="st0" x="12.5" y="954.5" width="402.1" height="110" rx="38.4" ry="38.4"/>
</svg>