<?xml version="1.0" encoding="UTF-8"?>
<svg id="Layer_1" xmlns="http://www.w3.org/2000/svg" version="1.1" viewBox="0 0 1457.4 1080">
  <!-- Generator: Adobe Illustrator 30.1.0, SVG Export Plug-In . SVG Version: 2.1.1 Build 136)  -->
  <defs>
    <style>
      .st0 {
        fill: #231f20;
      }
    </style>
  </defs>
  <g id="board">
    <g id="row12">
      <polygon class="st0" points="1149.3 960.2 1102.4 933.1 1055.4 960.2 1055.4 1014.4 1102.4 1041.5 1149.3 1014.4 1149.3 960.2"/>
      <polygon class="st0" points="1044.6 960.2 997.7 933.1 950.7 960.2 950.7 1014.4 997.7 1041.5 1044.6 1014.4 1044.6 960.2"/>
      <polygon class="st0" points="941.6 960.2 894.6 933.1 847.7 960.2 847.7 1014.4 894.6 1041.5 941.6 1014.4 941.6 960.2"/>
      <polygon class="st0" points="836.8 960.2 789.8 933.1 742.9 960.2 742.9 1014.4 789.8 1041.5 836.8 1014.4 836.8 960.2"/>
      <polygon class="st0" points="733.4 960.2 686.5 933.1 639.5 960.2 639.5 1014.4 686.5 1041.5 733.4 1014.4 733.4 960.2"/>
      <polygon class="st0" points="628.9 960.2 582 933.1 535.1 960.2 535.1 1014.4 582 1041.5 628.9 1014.4 628.9 960.2"/>
    </g>
    <g id="row11">
      <polygon class="st0" points="1201.3 927.4 1201.3 873.2 1154.4 846.1 1107.4 873.2 1107.4 927.4 1154.4 954.5 1201.3 927.4"/>
      <polygon class="st0" points="1097.2 927.4 1097.2 873.2 1050.2 846.1 1003.3 873.2 1003.3 927.4 1050.2 954.5 1097.2 927.4"/>
      <polygon class="st0" points="993.7 927.4 993.7 873.2 946.8 846.1 899.8 873.2 899.8 927.4 946.8 954.5 993.7 927.4"/>
      <polygon class="st0" points="889.6 927.4 889.6 873.2 842.6 846.1 795.7 873.2 795.7 927.4 842.6 954.5 889.6 927.4"/>
      <polygon class="st0" points="785.4 927.4 785.4 873.2 738.5 846.1 691.6 873.2 691.6 927.4 738.5 954.5 785.4 927.4"/>
      <polygon class="st0" points="681.4 927.4 681.4 873.2 634.5 846.1 587.5 873.2 587.5 927.4 634.5 954.5 681.4 927.4"/>
      <polygon class="st0" points="577.3 927.4 577.3 873.2 530.3 846.1 483.4 873.2 483.4 927.4 530.3 954.5 577.3 927.4"/>
    </g>
    <g id="row10">
      <polygon class="st0" points="1252.4 839.9 1252.4 785.6 1205.5 758.5 1158.6 785.6 1158.6 839.9 1205.5 867 1252.4 839.9"/>
      <polygon class="st0" points="1149.3 839.9 1149.3 785.6 1102.4 758.5 1055.4 785.6 1055.4 839.9 1102.4 867 1149.3 839.9"/>
      <polygon class="st0" points="1044.6 839.9 1044.6 785.6 997.7 758.5 950.7 785.6 950.7 839.9 997.7 867 1044.6 839.9"/>
      <polygon class="st0" points="941.6 839.9 941.6 785.6 894.6 758.5 847.7 785.6 847.7 839.9 894.6 867 941.6 839.9"/>
      <polygon class="st0" points="836.8 839.9 836.8 785.6 789.8 758.5 742.9 785.6 742.9 839.9 789.8 867 836.8 839.9"/>
      <polygon class="st0" points="733.4 839.9 733.4 785.6 686.5 758.5 639.5 785.6 639.5 839.9 686.5 867 733.4 839.9"/>
      <polygon class="st0" points="628.9 839.9 628.9 785.6 582 758.5 535.1 785.6 535.1 839.9 582 867 628.9 839.9"/>
      <polygon class="st0" points="525.1 839.9 525.1 785.6 478.2 758.5 431.3 785.6 431.3 839.9 478.2 867 525.1 839.9"/>
    </g>
    <g id="row9">
      <polygon class="st0" points="1305.5 750.4 1305.5 696.1 1258.5 669.1 1211.6 696.1 1211.6 750.4 1258.5 777.5 1305.5 750.4"/>
      <polygon class="st0" points="1201.3 750.4 1201.3 696.1 1154.4 669.1 1107.4 696.1 1107.4 750.4 1154.4 777.5 1201.3 750.4"/>
      <polygon class="st0" points="1097.2 750.4 1097.2 696.1 1050.2 669.1 1003.3 696.1 1003.3 750.4 1050.2 777.5 1097.2 750.4"/>
      <polygon class="st0" points="993.7 750.4 993.7 696.1 946.8 669.1 899.8 696.1 899.8 750.4 946.8 777.5 993.7 750.4"/>
      <polygon class="st0" points="889.6 750.4 889.6 696.1 842.6 669.1 795.7 696.1 795.7 750.4 842.6 777.5 889.6 750.4"/>
      <polygon class="st0" points="785.4 750.4 785.4 696.1 738.5 669.1 691.6 696.1 691.6 750.4 738.5 777.5 785.4 750.4"/>
      <polygon class="st0" points="681.4 750.4 681.4 696.1 634.5 669.1 587.5 696.1 587.5 750.4 634.5 777.5 681.4 750.4"/>
      <polygon class="st0" points="577.3 750.4 577.3 696.1 530.3 669.1 483.4 696.1 483.4 750.4 530.3 777.5 577.3 750.4"/>
      <polygon class="st0" points="473.1 750.4 473.1 696.1 426.2 669.1 379.2 696.1 379.2 750.4 426.2 777.5 473.1 750.4"/>
    </g>
    <g id="row8">
      <polygon class="st0" points="1357.1 606.6 1310.2 579.5 1263.3 606.6 1263.3 660.8 1310.2 687.9 1357.1 660.8 1357.1 606.6"/>
      <polygon class="st0" points="1252.1 660.7 1252.1 606.4 1205.1 579.4 1158.2 606.4 1158.2 660.7 1205.1 687.8 1252.1 660.7"/>
      <polygon class="st0" points="1149 660.7 1149 606.4 1102 579.4 1055.1 606.4 1055.1 660.7 1102 687.8 1149 660.7"/>
      <polygon class="st0" points="1044.3 660.7 1044.3 606.4 997.3 579.4 950.4 606.4 950.4 660.7 997.3 687.8 1044.3 660.7"/>
      <polygon class="st0" points="941.2 660.7 941.2 606.4 894.3 579.4 847.4 606.4 847.4 660.7 894.3 687.8 941.2 660.7"/>
      <polygon class="st0" points="836.4 660.7 836.4 606.4 789.5 579.4 742.6 606.4 742.6 660.7 789.5 687.8 836.4 660.7"/>
      <polygon class="st0" points="733.1 660.7 733.1 606.4 686.1 579.4 639.2 606.4 639.2 660.7 686.1 687.8 733.1 660.7"/>
      <polygon class="st0" points="628.6 660.7 628.6 606.4 581.7 579.4 534.7 606.4 534.7 660.7 581.7 687.8 628.6 660.7"/>
      <polygon class="st0" points="524.8 660.7 524.8 606.4 477.9 579.4 430.9 606.4 430.9 660.7 477.9 687.8 524.8 660.7"/>
      <polygon class="st0" points="326.8 660.7 373.7 687.8 420.6 660.7 420.6 606.4 373.7 579.4 326.8 606.4 326.8 660.7"/>
    </g>
    <g id="row7">
      <polygon class="st0" points="1315.6 516.6 1315.6 570.9 1362.5 598 1409.5 570.9 1409.5 516.6 1362.5 489.6 1315.6 516.6"/>
      <polygon class="st0" points="1305.5 516.6 1258.5 489.6 1211.6 516.6 1211.6 570.9 1258.5 598 1305.5 570.9 1305.5 516.6"/>
      <polygon class="st0" points="1107.4 516.6 1107.4 570.9 1154.4 598 1201.3 570.9 1201.3 516.6 1154.4 489.6 1107.4 516.6"/>
      <polygon class="st0" points="1003.3 516.6 1003.3 570.9 1050.2 598 1097.2 570.9 1097.2 516.6 1050.2 489.6 1003.3 516.6 1003.3 516.6 1003.3 516.6"/>
      <polygon class="st0" points="899.7 516.6 899.7 570.9 946.7 598 993.6 570.9 993.6 516.6 946.7 489.6 899.7 516.6"/>
      <polygon class="st0" points="795.6 516.6 795.6 570.9 842.5 598 889.5 570.9 889.5 516.6 842.5 489.6 795.6 516.6"/>
      <polygon class="st0" points="691.6 516.6 691.6 570.9 738.5 598 785.4 570.9 785.4 516.6 738.5 489.6 691.6 516.6"/>
      <polygon class="st0" points="587.4 516.6 587.4 570.9 634.3 598 681.3 570.9 681.3 516.6 634.3 489.6 587.4 516.6"/>
      <polygon class="st0" points="483.3 516.6 483.3 570.9 530.2 598 577.1 570.9 577.1 516.6 530.2 489.6 483.3 516.6"/>
      <polygon class="st0" points="379.1 516.6 379.1 570.9 426.1 598 473 570.9 473 516.6 426.1 489.6 379.1 516.6"/>
      <polygon class="st0" points="275 570.9 321.9 598 368.9 570.9 368.9 516.6 321.9 489.6 275 516.6 275 570.9"/>
    </g>
    <g id="row6">
      <polygon class="st0" points="1357.5 426.7 1310.5 399.6 1263.6 426.7 1263.6 481 1310.5 508.1 1357.5 481 1357.5 426.7"/>
      <polygon class="st0" points="1252.4 480.9 1252.4 426.6 1205.5 399.5 1158.6 426.6 1158.6 480.9 1205.5 507.9 1252.4 480.9"/>
      <polygon class="st0" points="1055.3 426.7 1055.3 481 1102.2 508.1 1149.2 481 1149.2 426.7 1102.2 399.6 1055.3 426.7"/>
      <polygon class="st0" points="950.6 426.7 950.6 481 997.5 508.1 1044.5 481 1044.5 426.7 997.5 399.6 950.6 426.7"/>
      <polygon class="st0" points="847.7 426.7 847.7 481 894.6 508.1 941.6 481 941.6 426.7 894.6 399.6 847.7 426.7"/>
      <polygon class="st0" points="742.8 426.7 742.8 481 789.7 508.1 836.6 481 836.6 426.7 789.7 399.6 742.8 426.7"/>
      <polygon class="st0" points="639.4 426.7 639.4 481 686.4 508.1 733.3 481 733.3 426.7 686.4 399.6 639.4 426.7"/>
      <polygon class="st0" points="534.9 426.7 534.9 481 581.9 508.1 628.8 481 628.8 426.7 581.9 399.6 534.9 426.7"/>
      <polygon class="st0" points="431.3 426.7 431.3 481 478.2 508.1 525.1 481 525.1 426.7 478.2 399.6 431.3 426.7 431.3 426.7"/>
      <polygon class="st0" points="327.1 426.7 327.1 481 374.1 508.1 421 481 421 426.7 374.1 399.6 327.1 426.7"/>
    </g>
    <g id="row5">
      <polygon class="st0" points="1305.5 337.1 1258.5 310 1211.6 337.1 1211.6 391.4 1258.5 418.5 1305.5 391.4 1305.5 337.1"/>
      <polygon class="st0" points="1107.4 337.1 1107.4 391.4 1154.4 418.5 1201.3 391.4 1201.3 337.1 1154.4 310 1107.4 337.1"/>
      <polygon class="st0" points="1003.3 337.1 1003.3 391.4 1050.2 418.5 1097.2 391.4 1097.2 337.1 1050.2 310 1003.3 337.1 1003.3 337.1"/>
      <polygon class="st0" points="899.7 337.1 899.7 391.4 946.7 418.5 993.6 391.4 993.6 337.1 946.7 310 899.7 337.1"/>
      <polygon class="st0" points="795.6 337.1 795.6 391.4 842.5 418.5 889.5 391.4 889.5 337.1 842.5 310 795.6 337.1"/>
      <polygon class="st0" points="691.6 337.1 691.6 391.4 738.5 418.5 785.4 391.4 785.4 337.1 738.5 310 691.6 337.1"/>
      <polygon class="st0" points="587.4 337.1 587.4 391.4 634.3 418.5 681.3 391.4 681.3 337.1 634.3 310 587.4 337.1"/>
      <polygon class="st0" points="483.3 337.1 483.3 391.4 530.2 418.5 577.1 391.4 577.1 337.1 530.2 310 483.3 337.1"/>
      <polygon class="st0" points="379.1 337.1 379.1 391.4 426.1 418.5 473 391.4 473 337.1 426.1 310 379.1 337.1"/>
    </g>
    <g id="row4">
      <polygon class="st0" points="1158.6 247.2 1158.6 301.5 1205.5 328.5 1252.4 301.5 1252.4 247.2 1205.5 220.1 1158.6 247.2"/>
      <polygon class="st0" points="1055.3 247.2 1055.3 301.5 1102.2 328.5 1149.2 301.5 1149.2 247.2 1102.2 220.1 1055.3 247.2"/>
      <polygon class="st0" points="950.6 247.2 950.6 301.5 997.5 328.5 1044.5 301.5 1044.5 247.2 997.5 220.1 950.6 247.2"/>
      <polygon class="st0" points="847.7 247.2 847.7 301.5 894.6 328.5 941.6 301.5 941.6 247.2 894.6 220.1 847.7 247.2"/>
      <polygon class="st0" points="742.8 247.2 742.8 301.5 789.7 328.5 836.6 301.5 836.6 247.2 789.7 220.1 742.8 247.2"/>
      <polygon class="st0" points="639.4 247.2 639.4 301.5 686.4 328.5 733.3 301.5 733.3 247.2 686.4 220.1 639.4 247.2"/>
      <polygon class="st0" points="534.9 247.2 534.9 301.5 581.9 328.5 628.8 301.5 628.8 247.2 581.9 220.1 534.9 247.2"/>
      <polygon class="st0" points="431.3 247.2 431.3 301.5 478.2 328.5 525.1 301.5 525.1 247.2 478.2 220.1 431.3 247.2 431.3 247.2"/>
    </g>
    <g id="row3">
      <polygon class="st0" points="1107.4 157.6 1107.4 211.9 1154.4 239 1201.3 211.9 1201.3 157.6 1154.4 130.5 1107.4 157.6 1107.4 157.6"/>
      <polygon class="st0" points="1003.3 157.6 1003.3 211.9 1050.2 239 1097.2 211.9 1097.2 157.6 1050.2 130.5 1003.3 157.6 1003.3 157.6"/>
      <polygon class="st0" points="899.7 157.6 899.7 211.9 946.7 239 993.6 211.9 993.6 157.6 946.7 130.5 899.7 157.6 899.7 157.6"/>
      <polygon class="st0" points="795.6 157.6 795.6 211.9 842.5 239 889.5 211.9 889.5 157.6 842.5 130.5 795.6 157.6 795.6 157.6"/>
      <polygon class="st0" points="691.6 157.6 691.6 211.9 738.5 239 785.4 211.9 785.4 157.6 738.5 130.5 691.6 157.6 691.6 157.6"/>
      <polygon class="st0" points="587.4 157.6 587.4 211.9 634.3 239 681.3 211.9 681.3 157.6 634.3 130.5 587.4 157.6 587.4 157.6"/>
      <polygon class="st0" points="483.3 157.6 483.3 211.9 530.2 239 577.1 211.9 577.1 157.6 530.2 130.5 483.3 157.6 483.3 157.6"/>
    </g>
    <g id="row2">
      <polygon class="st0" points="1055.3 122 1102.2 149 1149.2 122 1149.2 67.7 1102.2 40.6 1055.3 67.7 1055.3 122"/>
      <polygon class="st0" points="950.6 122 997.5 149 1044.5 122 1044.5 67.7 997.5 40.6 950.6 67.7 950.6 122"/>
      <polygon class="st0" points="847.7 122 894.6 149 941.6 122 941.6 67.7 894.6 40.6 847.7 67.7 847.7 122"/>
      <polygon class="st0" points="742.8 122 789.7 149 836.6 122 836.6 67.7 789.7 40.6 742.8 67.7 742.8 122"/>
      <polygon class="st0" points="639.4 122 686.4 149 733.3 122 733.3 67.7 686.4 40.6 639.4 67.7 639.4 122"/>
      <polygon class="st0" points="534.9 122 581.9 149 628.8 122 628.8 67.7 581.9 40.6 534.9 67.7 534.9 122"/>
    </g>
  </g>
  <polygon id="zoom" class="st0" points="13.7 765.9 13.7 968.3 188.8 1069.3 363.8 968.3 363.8 765.9 188.8 664.9 13.7 765.9"/>
</svg>