<?xml version="1.0" encoding="UTF-8"?>
<svg id="Layer_1" xmlns="http://www.w3.org/2000/svg" version="1.1" viewBox="0 0 1457.4 1080">
  <!-- Generator: Adobe Illustrator 30.1.0, SVG Export Plug-In . SVG Version: 2.1.1 Build 136)  -->
  <defs>
    <style>
      .st0, .st1 {
        fill: #231f20;
      }

      .st2 {
        fill: none;
        stroke: #50deff;
      }

      .st2, .st1 {
        stroke-miterlimit: 10;
        stroke-width: 4.5px;
      }

      .st1 {
        stroke: #470093;
      }
    </style>
  </defs>
  <g>
    <g id="row13">
      <path class="st0" d="M986.2,987v48.1l41.6,24,41.6-24v-48.1l-41.6-24-41.6,24h0ZM1067.2,1033.8l-39.4,22.8-39.4-22.8v-45.5l39.4-22.8,39.4,22.8v45.5Z"/>
      <path class="st0" d="M894.4,987v48.1l41.6,24,41.6-24v-48.1l-41.6-24-41.6,24ZM975.5,1033.8l-39.4,22.8-39.4-22.8v-45.5l39.4-22.8,39.4,22.8v45.5Z"/>
      <path class="st0" d="M802.1,987v48.1l41.6,24,41.6-24v-48.1l-41.6-24-41.6,24ZM883.2,1033.8l-39.4,22.8-39.4-22.8v-45.5l39.4-22.8,39.4,22.8v45.5Z"/>
      <path class="st0" d="M709.9,987v48.1l41.6,24,41.6-24v-48.1l-41.6-24-41.6,24ZM790.9,1033.8l-39.4,22.8-39.4-22.8v-45.5l39.4-22.8,39.4,22.8v45.5Z"/>
      <path class="st0" d="M617.6,987v48.1l41.6,24,41.6-24v-48.1l-41.6-24-41.6,24ZM698.6,1033.8l-39.4,22.8-39.4-22.8v-45.5l39.4-22.8,39.4,22.8v45.5Z"/>
      <path class="st0" d="M525.3,987v48.1l41.6,24,41.6-24v-48.1l-41.6-24-41.6,24ZM606.4,1033.8l-39.4,22.8-39.4-22.8v-45.5l39.4-22.8,39.4,22.8v45.5Z"/>
      <path id="_x36__x2C_0_x2C_-6" class="st0" d="M1079.5,986.4v48.1l41.6,24,41.6-24v-48.1l-41.6-24-41.6,24ZM1160.6,1033.2l-39.4,22.8-39.4-22.8v-45.5l39.4-22.8,39.4,22.8v45.5Z"/>
    </g>
    <g id="row12">
      <path class="st0" d="M1115.6,909.5l-41.6-24-41.6,24v48.1l41.6,24,41.6-24v-48.1ZM1113.4,956.3l-39.4,22.8-39.4-22.8v-45.5l39.4-22.8,39.4,22.8v45.5Z"/>
      <path class="st0" d="M931.5,909.5l-41.6-24-41.6,24v48.1l41.6,24,41.6-24v-48.1ZM929.3,956.3l-39.4,22.8-39.4-22.8v-45.5l39.4-22.8,39.4,22.8v45.5Z"/>
      <path class="st0" d="M747,909.5l-41.6-24-41.6,24v48.1l41.6,24,41.6-24v-48.1ZM744.8,956.3l-39.4,22.8-39.4-22.8v-45.5l39.4-22.8,39.4,22.8v45.5Z"/>
      <path class="st0" d="M562.4,909.5l-41.6-24-41.6,24v48.1l41.6,24,41.6-24v-48.1ZM560.2,956.3l-39.4,22.8-39.4-22.8v-45.5l39.4-22.8,39.4,22.8v45.5Z"/>
      <path class="st0" d="M654.4,909.5l-41.6-24-41.6,24v48.1l41.6,24,41.6-24v-48.1ZM652.2,956.3l-39.4,22.8-39.4-22.8v-45.5l39.4-22.8,39.4,22.8v45.5Z"/>
      <path class="st0" d="M838.6,909.5l-41.6-24-41.6,24v48.1l41.6,24,41.6-24v-48.1ZM836.4,956.3l-39.4,22.8-39.4-22.8v-45.5l39.4-22.8,39.4,22.8v45.5Z"/>
      <path class="st0" d="M1022.8,909.5l-41.6-24-41.6,24v48.1l41.6,24,41.6-24v-48.1ZM1020.6,956.3l-39.4,22.8-39.4-22.8v-45.5l39.4-22.8,39.4,22.8v45.5Z"/>
      <path class="st0" d="M1209,908.9l-41.6-24-41.6,24v48.1l41.6,24,41.6-24v-48.1ZM1206.7,955.7l-39.4,22.8-39.4-22.8v-45.5l39.4-22.8,39.4,22.8v45.5Z"/>
    </g>
    <g id="row11">
      <path class="st0" d="M1161.7,880.5v-48.1l-41.6-24-41.6,24v48.1l41.6,24,41.6-24ZM1080.7,833.7l39.4-22.8,39.4,22.8v45.5l-39.4,22.8-39.4-22.8v-45.5Z"/>
      <path class="st0" d="M1069.4,880.5v-48.1l-41.6-24-41.6,24v48.1l41.6,24,41.6-24ZM988.4,833.7l39.4-22.8,39.4,22.8v45.5l-39.4,22.8-39.4-22.8v-45.5Z"/>
      <path class="st0" d="M977.7,880.5v-48.1l-41.6-24-41.6,24v48.1l41.6,24,41.6-24ZM896.6,833.7l39.4-22.8,39.4,22.8v45.5l-39.4,22.8-39.4-22.8v-45.5Z"/>
      <path class="st0" d="M885.4,880.5v-48.1l-41.6-24-41.6,24v48.1l41.6,24,41.6-24ZM804.4,833.7l39.4-22.8,39.4,22.8v45.5l-39.4,22.8-39.4-22.8v-45.5Z"/>
      <path class="st0" d="M793.1,880.5v-48.1l-41.6-24-41.6,24v48.1l41.6,24,41.6-24ZM712.1,833.7l39.4-22.8,39.4,22.8v45.5l-39.4,22.8-39.4-22.8v-45.5Z"/>
      <path class="st0" d="M700.9,880.5v-48.1l-41.6-24-41.6,24v48.1l41.6,24,41.6-24ZM619.8,833.7l39.4-22.8,39.4,22.8v45.5l-39.4,22.8-39.4-22.8v-45.5Z"/>
      <path class="st0" d="M608.6,880.5v-48.1l-41.6-24-41.6,24v48.1l41.6,24,41.6-24ZM527.5,833.7l39.4-22.8,39.4,22.8v45.5l-39.4,22.8-39.4-22.8v-45.5Z"/>
      <path class="st0" d="M516.3,880.5v-48.1l-41.6-24-41.6,24v48.1l41.6,24,41.6-24ZM435.2,833.7l39.4-22.8,39.4,22.8v45.5l-39.4,22.8-39.4-22.8v-45.5Z"/>
      <path class="st0" d="M1255.1,879.8v-48.1l-41.6-24-41.6,24v48.1l41.6,24,41.6-24ZM1174,833l39.4-22.8,39.4,22.8v45.5l-39.4,22.8-39.4-22.8v-45.5Z"/>
    </g>
    <g id="row10">
      <path class="st0" d="M1115.6,802.9v-48.1l-41.6-24-41.6,24v48.1l41.6,24,41.6-24ZM1034.5,756.1l39.4-22.8,39.4,22.8v45.5l-39.4,22.8-39.4-22.8v-45.5Z"/>
      <path class="st0" d="M931.5,802.9v-48.1l-41.6-24-41.6,24v48.1l41.6,24,41.6-24ZM850.5,756.1l39.4-22.8,39.4,22.8v45.5l-39.4,22.8-39.4-22.8v-45.5Z"/>
      <path class="st0" d="M747,802.9v-48.1l-41.6-24-41.6,24v48.1l41.6,24,41.6-24ZM665.9,756.1l39.4-22.8,39.4,22.8v45.5l-39.4,22.8-39.4-22.8v-45.5Z"/>
      <path class="st0" d="M562.4,802.9v-48.1l-41.6-24-41.6,24v48.1l41.6,24,41.6-24ZM481.4,756.1l39.4-22.8,39.4,22.8v45.5l-39.4,22.8-39.4-22.8v-45.5Z"/>
      <path class="st0" d="M470.2,802.9v-48.1l-41.6-24-41.6,24v48.1l41.6,24,41.6-24ZM389.1,756.1l39.4-22.8,39.4,22.8v45.5l-39.4,22.8-39.4-22.8v-45.5Z"/>
      <path class="st0" d="M654.4,802.9v-48.1l-41.6-24-41.6,24v48.1l41.6,24,41.6-24ZM573.3,756.1l39.4-22.8,39.4,22.8v45.5l-39.4,22.8-39.4-22.8v-45.5Z"/>
      <path class="st0" d="M838.6,802.9v-48.1l-41.6-24-41.6,24v48.1l41.6,24,41.6-24ZM757.5,756.1l39.4-22.8,39.4,22.8v45.5l-39.4,22.8-39.4-22.8v-45.5Z"/>
      <path class="st0" d="M1022.8,802.9v-48.1l-41.6-24-41.6,24v48.1l41.6,24,41.6-24ZM941.8,756.1l39.4-22.8,39.4,22.8v45.5l-39.4,22.8-39.4-22.8v-45.5Z"/>
      <path class="st0" d="M1207,802.9v-48.1l-41.6-24-41.6,24v48.1l41.6,24,41.6-24ZM1126,756.1l39.4-22.8,39.4,22.8v45.5l-39.4,22.8-39.4-22.8v-45.5Z"/>
      <path class="st0" d="M1300.4,802.3v-48.1l-41.6-24-41.6,24v48.1l41.6,24,41.6-24ZM1219.3,755.5l39.4-22.8,39.4,22.8v45.5l-39.4,22.8-39.4-22.8v-45.5Z"/>
    </g>
    <g id="row9">
      <path class="st0" d="M1254,723.6v-48.1l-41.6-24-41.6,24v48.1l41.6,24,41.6-24ZM1172.9,676.8l39.4-22.8,39.4,22.8v45.5l-39.4,22.8-39.4-22.8v-45.5Z"/>
      <path class="st0" d="M1161.7,723.6v-48.1l-41.6-24-41.6,24v48.1l41.6,24,41.6-24ZM1080.7,676.8l39.4-22.8,39.4,22.8v45.5l-39.4,22.8-39.4-22.8v-45.5Z"/>
      <path class="st0" d="M1069.4,723.6v-48.1l-41.6-24-41.6,24v48.1l41.6,24,41.6-24ZM988.4,676.8l39.4-22.8,39.4,22.8v45.5l-39.4,22.8-39.4-22.8v-45.5Z"/>
      <path class="st0" d="M977.7,723.6v-48.1l-41.6-24-41.6,24v48.1l41.6,24,41.6-24ZM896.6,676.8l39.4-22.8,39.4,22.8v45.5l-39.4,22.8-39.4-22.8v-45.5Z"/>
      <path class="st0" d="M885.4,723.6v-48.1l-41.6-24-41.6,24v48.1l41.6,24,41.6-24ZM804.4,676.8l39.4-22.8,39.4,22.8v45.5l-39.4,22.8-39.4-22.8v-45.5Z"/>
      <path class="st0" d="M793.1,723.6v-48.1l-41.6-24-41.6,24v48.1l41.6,24,41.6-24ZM712.1,676.8l39.4-22.8,39.4,22.8v45.5l-39.4,22.8-39.4-22.8v-45.5Z"/>
      <path class="st0" d="M700.9,723.6v-48.1l-41.6-24-41.6,24v48.1l41.6,24,41.6-24ZM619.8,676.8l39.4-22.8,39.4,22.8v45.5l-39.4,22.8-39.4-22.8v-45.5Z"/>
      <path class="st0" d="M608.6,723.6v-48.1l-41.6-24-41.6,24v48.1l41.6,24,41.6-24ZM527.5,676.8l39.4-22.8,39.4,22.8v45.5l-39.4,22.8-39.4-22.8v-45.5Z"/>
      <path class="st0" d="M516.3,723.6v-48.1l-41.6-24-41.6,24v48.1l41.6,24,41.6-24ZM435.2,676.8l39.4-22.8,39.4,22.8v45.5l-39.4,22.8-39.4-22.8v-45.5Z"/>
      <path class="st0" d="M340.7,723.6l41.6,24,41.6-24v-48.1l-41.6-24-41.6,24v48.1ZM343,676.8l39.4-22.8,39.4,22.8v45.5l-39.4,22.8-39.4-22.8v-45.5Z"/>
      <path class="st0" d="M1347.4,722.9v-48.1l-41.6-24-41.6,24v48.1l41.6,24,41.6-24ZM1266.3,676.1l39.4-22.8,39.4,22.8v45.5l-39.4,22.8-39.4-22.8v-45.5Z"/>
    </g>
    <g id="row8">
      <path class="st0" d="M1300.1,595.8l-41.6-24-41.6,24v48.1l41.6,24,41.6-24v-48.1ZM1297.9,642.6l-39.4,22.8-39.4-22.8v-45.5l39.4-22.8,39.4,22.8v45.5Z"/>
      <path class="st0" d="M1115.6,643.8v-48.1l-41.6-24-41.6,24v48.1l41.6,24,41.6-24ZM1034.5,597l39.4-22.8,39.4,22.8v45.5l-39.4,22.8-39.4-22.8v-45.5Z"/>
      <path class="st0" d="M931.5,643.8v-48.1l-41.6-24-41.6,24v48.1l41.6,24,41.6-24ZM850.5,597l39.4-22.8,39.4,22.8v45.5l-39.4,22.8-39.4-22.8v-45.5Z"/>
      <path class="st0" d="M747,643.8v-48.1l-41.6-24-41.6,24v48.1l41.6,24,41.6-24ZM665.9,597l39.4-22.8,39.4,22.8v45.5l-39.4,22.8-39.4-22.8v-45.5Z"/>
      <path class="st0" d="M562.4,643.8v-48.1l-41.6-24-41.6,24v48.1l41.6,24,41.6-24ZM481.4,597l39.4-22.8,39.4,22.8v45.5l-39.4,22.8-39.4-22.8v-45.5Z"/>
      <path class="st0" d="M377.9,643.8v-48.1l-41.6-24-41.6,24v48.1l41.6,24,41.6-24ZM296.8,597l39.4-22.8,39.4,22.8v45.5l-39.4,22.8-39.4-22.8v-45.5Z"/>
      <path class="st0" d="M386.9,643.8l41.6,24,41.6-24v-48.1l-41.6-24-41.6,24v48.1ZM389.1,597l39.4-22.8,39.4,22.8v45.5l-39.4,22.8-39.4-22.8v-45.5Z"/>
      <path class="st0" d="M654.4,643.8v-48.1l-41.6-24-41.6,24v48.1l41.6,24,41.6-24ZM573.3,597l39.4-22.8,39.4,22.8v45.5l-39.4,22.8-39.4-22.8v-45.5Z"/>
      <path class="st0" d="M838.6,643.8v-48.1l-41.6-24-41.6,24v48.1l41.6,24,41.6-24ZM757.5,597l39.4-22.8,39.4,22.8v45.5l-39.4,22.8-39.4-22.8v-45.5Z"/>
      <path class="st0" d="M1022.8,643.8v-48.1l-41.6-24-41.6,24v48.1l41.6,24,41.6-24ZM941.8,597l39.4-22.8,39.4,22.8v45.5l-39.4,22.8-39.4-22.8v-45.5Z"/>
      <path class="st0" d="M1207,643.8v-48.1l-41.6-24-41.6,24v48.1l41.6,24,41.6-24ZM1126,597l39.4-22.8,39.4,22.8v45.5l-39.4,22.8-39.4-22.8v-45.5Z"/>
      <path class="st0" d="M1393.5,595.1l-41.6-24-41.6,24v48.1l41.6,24,41.6-24v-48.1ZM1391.3,641.9l-39.4,22.8-39.4-22.8v-45.5l39.4-22.8,39.4,22.8v45.5Z"/>
    </g>
    <g id="row7">
      <path class="st0" d="M1263,516.4v48.1l41.6,24,41.6-24v-48.1l-41.6-24-41.6,24ZM1344.1,563.2l-39.4,22.8-39.4-22.8v-45.5l39.4-22.8,39.4,22.8v45.5Z"/>
      <path class="st0" d="M1254,516.4l-41.6-24-41.6,24v48.1l41.6,24,41.6-24v-48.1ZM1251.8,563.2l-39.4,22.8-39.4-22.8v-45.5l39.4-22.8,39.4,22.8v45.5Z"/>
      <path class="st0" d="M1078.5,516.4v48.1l41.6,24,41.6-24v-48.1l-41.6-24-41.6,24ZM1159.5,563.2l-39.4,22.8-39.4-22.8v-45.5l39.4-22.8,39.4,22.8v45.5Z"/>
      <path class="st0" d="M986.2,516.4v48.1l41.6,24,41.6-24v-48.1l-41.6-24-41.6,24h0ZM1067.2,563.2l-39.4,22.8-39.4-22.8v-45.5l39.4-22.8,39.4,22.8v45.5Z"/>
      <path class="st0" d="M894.4,516.4v48.1l41.6,24,41.6-24v-48.1l-41.6-24-41.6,24ZM975.5,563.2l-39.4,22.8-39.4-22.8v-45.5l39.4-22.8,39.4,22.8v45.5Z"/>
      <path class="st0" d="M802.1,516.4v48.1l41.6,24,41.6-24v-48.1l-41.6-24-41.6,24ZM883.2,563.2l-39.4,22.8-39.4-22.8v-45.5l39.4-22.8,39.4,22.8v45.5Z"/>
      <path class="st0" d="M709.9,516.4v48.1l41.6,24,41.6-24v-48.1l-41.6-24-41.6,24ZM790.9,563.2l-39.4,22.8-39.4-22.8v-45.5l39.4-22.8,39.4,22.8v45.5Z"/>
      <path class="st0" d="M617.6,516.4v48.1l41.6,24,41.6-24v-48.1l-41.6-24-41.6,24ZM698.6,563.2l-39.4,22.8-39.4-22.8v-45.5l39.4-22.8,39.4,22.8v45.5Z"/>
      <path class="st0" d="M525.3,516.4v48.1l41.6,24,41.6-24v-48.1l-41.6-24-41.6,24ZM606.4,563.2l-39.4,22.8-39.4-22.8v-45.5l39.4-22.8,39.4,22.8v45.5Z"/>
      <path class="st0" d="M433,516.4v48.1l41.6,24,41.6-24v-48.1l-41.6-24-41.6,24ZM514.1,563.2l-39.4,22.8-39.4-22.8v-45.5l39.4-22.8,39.4,22.8v45.5Z"/>
      <path class="st0" d="M340.7,564.5l41.6,24,41.6-24v-48.1l-41.6-24-41.6,24v48.1ZM343,517.7l39.4-22.8,39.4,22.8v45.5l-39.4,22.8-39.4-22.8v-45.5Z"/>
      <path class="st0" d="M331.7,564.5v-48.1l-41.6-24-41.6,24v48.1l41.6,24,41.6-24ZM250.7,517.7l39.4-22.8,39.4,22.8v45.5l-39.4,22.8-39.4-22.8v-45.5h0Z"/>
      <path class="st0" d="M1356.4,515.8v48.1l41.6,24,41.6-24v-48.1l-41.6-24-41.6,24ZM1437.4,562.6l-39.4,22.8-39.4-22.8v-45.5l39.4-22.8,39.4,22.8v45.5Z"/>
    </g>
    <g id="row6">
      <polygon class="st0" points="1300.1 436.7 1258.5 412.7 1216.9 436.7 1216.9 484.8 1258.5 508.8 1300.1 484.8 1300.1 436.7"/>
      <polygon class="st0" points="1032.3 436.7 1032.3 484.8 1073.9 508.8 1115.5 484.8 1115.5 436.7 1073.9 412.7 1032.3 436.7"/>
      <polygon class="st0" points="848.3 436.7 848.3 484.8 889.9 508.8 931.5 484.8 931.5 436.7 889.9 412.7 848.3 436.7"/>
      <polygon class="st0" points="663.7 436.7 663.7 484.8 705.3 508.8 746.9 484.8 746.9 436.7 705.3 412.7 663.7 436.7"/>
      <polygon class="st0" points="479.2 436.7 479.2 484.8 520.8 508.8 562.4 484.8 562.4 436.7 520.8 412.7 479.2 436.7 479.2 436.7"/>
      <polygon class="st0" points="377.9 484.7 377.9 436.6 336.3 412.6 294.7 436.6 294.7 484.7 336.3 508.7 377.9 484.7"/>
      <polygon class="st0" points="386.9 436.7 386.9 484.8 428.5 508.8 470.1 484.8 470.1 436.7 428.5 412.7 386.9 436.7"/>
      <polygon class="st0" points="571.1 436.7 571.1 484.8 612.7 508.8 654.3 484.8 654.3 436.7 612.7 412.7 571.1 436.7"/>
      <polygon class="st0" points="755.3 436.7 755.3 484.8 796.9 508.8 838.5 484.8 838.5 436.7 796.9 412.7 755.3 436.7"/>
      <polygon class="st0" points="939.5 436.7 939.5 484.8 981.1 508.8 1022.7 484.8 1022.7 436.7 981.1 412.7 939.5 436.7"/>
      <polygon class="st0" points="1207 484.7 1207 436.6 1165.4 412.6 1123.8 436.6 1123.8 484.7 1165.4 508.7 1207 484.7"/>
      <polygon class="st0" points="1393.5 436 1351.9 412 1310.3 436 1310.3 484.1 1351.9 508.1 1393.5 484.1 1393.5 436"/>
    </g>
    <g id="row5">
      <polygon class="st0" points="1254 357.3 1212.4 333.3 1170.8 357.3 1170.8 405.4 1212.4 429.4 1254 405.4 1254 357.3"/>
      <polygon class="st0" points="1078.5 357.3 1078.5 405.4 1120.1 429.4 1161.7 405.4 1161.7 357.3 1120.1 333.3 1078.5 357.3"/>
      <polygon class="st0" points="986.2 357.3 986.2 405.4 1027.8 429.4 1069.4 405.4 1069.4 357.3 1027.8 333.3 986.2 357.3 986.2 357.3"/>
      <polygon class="st0" points="894.4 357.3 894.4 405.4 936 429.4 977.6 405.4 977.6 357.3 936 333.3 894.4 357.3"/>
      <polygon class="st0" points="802.1 357.3 802.1 405.4 843.7 429.4 885.3 405.4 885.3 357.3 843.7 333.3 802.1 357.3"/>
      <polygon class="st0" points="709.9 357.3 709.9 405.4 751.5 429.4 793.1 405.4 793.1 357.3 751.5 333.3 709.9 357.3"/>
      <polygon class="st0" points="617.6 357.3 617.6 405.4 659.2 429.4 700.8 405.4 700.8 357.3 659.2 333.3 617.6 357.3"/>
      <polygon class="st0" points="525.3 357.3 525.3 405.4 566.9 429.4 608.5 405.4 608.5 357.3 566.9 333.3 525.3 357.3"/>
      <polygon class="st0" points="433 357.3 433 405.4 474.6 429.4 516.2 405.4 516.2 357.3 474.6 333.3 433 357.3"/>
      <polygon class="st0" points="340.7 405.4 382.3 429.4 423.9 405.4 423.9 357.3 382.3 333.3 340.7 357.3 340.7 405.4"/>
      <polygon class="st0" points="1347.4 356.7 1305.8 332.7 1264.2 356.7 1264.2 404.8 1305.8 428.8 1347.4 404.8 1347.4 356.7"/>
    </g>
    <g id="row4">
      <polygon class="st0" points="1217.1 276.9 1217.1 325 1258.7 349 1300.3 325 1300.3 276.9 1258.7 252.9 1217.1 276.9"/>
      <polygon class="st0" points="1123.8 277.6 1123.8 325.7 1165.4 349.7 1207 325.7 1207 277.6 1165.4 253.6 1123.8 277.6"/>
      <polygon class="st0" points="1032.3 277.6 1032.3 325.7 1073.9 349.7 1115.5 325.7 1115.5 277.6 1073.9 253.6 1032.3 277.6"/>
      <polygon class="st0" points="939.5 277.6 939.5 325.7 981.1 349.7 1022.7 325.7 1022.7 277.6 981.1 253.6 939.5 277.6"/>
      <polygon class="st0" points="848.3 277.6 848.3 325.7 889.9 349.7 931.5 325.7 931.5 277.6 889.9 253.6 848.3 277.6"/>
      <polygon class="st0" points="755.3 277.6 755.3 325.7 796.9 349.7 838.5 325.7 838.5 277.6 796.9 253.6 755.3 277.6"/>
      <polygon class="st0" points="663.7 277.6 663.7 325.7 705.3 349.7 746.9 325.7 746.9 277.6 705.3 253.6 663.7 277.6"/>
      <polygon class="st0" points="571.1 277.6 571.1 325.7 612.7 349.7 654.3 325.7 654.3 277.6 612.7 253.6 571.1 277.6"/>
      <polygon class="st0" points="479.2 277.6 479.2 325.7 520.8 349.7 562.4 325.7 562.4 277.6 520.8 253.6 479.2 277.6 479.2 277.6"/>
      <polygon class="st0" points="386.9 277.6 386.9 325.7 428.5 349.7 470.1 325.7 470.1 277.6 428.5 253.6 386.9 277.6"/>
    </g>
    <g id="row3">
      <g>
        <polygon class="st0" points="1171.8 197.6 1171.8 245.7 1213.4 269.7 1255 245.7 1255 197.6 1213.4 173.6 1171.8 197.6"/>
        <polygon class="st0" points="1078.5 198.2 1078.5 246.3 1120.1 270.3 1161.7 246.3 1161.7 198.2 1120.1 174.2 1078.5 198.2 1078.5 198.2"/>
        <polygon class="st0" points="986.2 198.2 986.2 246.3 1027.8 270.3 1069.4 246.3 1069.4 198.2 1027.8 174.2 986.2 198.2 986.2 198.2"/>
        <polygon class="st0" points="894.4 198.2 894.4 246.3 936 270.3 977.6 246.3 977.6 198.2 936 174.2 894.4 198.2 894.4 198.2"/>
        <polygon class="st0" points="802.1 198.2 802.1 246.3 843.7 270.3 885.3 246.3 885.3 198.2 843.7 174.2 802.1 198.2 802.1 198.2"/>
        <polygon class="st0" points="709.9 198.2 709.9 246.3 751.5 270.3 793.1 246.3 793.1 198.2 751.5 174.2 709.9 198.2 709.9 198.2"/>
        <polygon class="st0" points="617.6 198.2 617.6 246.3 659.2 270.3 700.8 246.3 700.8 198.2 659.2 174.2 617.6 198.2 617.6 198.2"/>
        <polygon class="st0" points="525.3 198.2 525.3 246.3 566.9 270.3 608.5 246.3 608.5 198.2 566.9 174.2 525.3 198.2 525.3 198.2"/>
        <polygon class="st0" points="434 196.7 434 245.1 475 270.3 517.3 245.2 517.3 198.8 476.3 174.9 434 196.7 434 196.7"/>
      </g>
      <g>
        <polygon class="st0" points="1171.8 197.6 1171.8 245.7 1213.4 269.7 1255 245.7 1255 197.6 1213.4 173.6 1171.8 197.6"/>
        <polygon class="st0" points="1078.5 198.2 1078.5 246.3 1120.1 270.3 1161.7 246.3 1161.7 198.2 1120.1 174.2 1078.5 198.2 1078.5 198.2"/>
        <polygon class="st0" points="986.2 198.2 986.2 246.3 1027.8 270.3 1069.4 246.3 1069.4 198.2 1027.8 174.2 986.2 198.2 986.2 198.2"/>
        <polygon class="st0" points="894.4 198.2 894.4 246.3 936 270.3 977.6 246.3 977.6 198.2 936 174.2 894.4 198.2 894.4 198.2"/>
        <polygon class="st0" points="802.1 198.2 802.1 246.3 843.7 270.3 885.3 246.3 885.3 198.2 843.7 174.2 802.1 198.2 802.1 198.2"/>
        <polygon class="st0" points="709.9 198.2 709.9 246.3 751.5 270.3 793.1 246.3 793.1 198.2 751.5 174.2 709.9 198.2 709.9 198.2"/>
        <polygon class="st0" points="617.6 198.2 617.6 246.3 659.2 270.3 700.8 246.3 700.8 198.2 659.2 174.2 617.6 198.2 617.6 198.2"/>
        <polygon class="st0" points="525.3 198.2 525.3 246.3 566.9 270.3 608.5 246.3 608.5 198.2 566.9 174.2 525.3 198.2 525.3 198.2"/>
        <polygon class="st0" points="434 196.7 434 245.1 475 270.3 517.3 245.2 517.3 198.8 476.3 174.9 434 196.7 434 196.7"/>
      </g>
    </g>
    <g id="row2">
      <polygon class="st0" points="1125.7 165.9 1167.3 189.9 1208.9 165.9 1208.9 117.8 1167.3 93.8 1125.7 117.8 1125.7 165.9"/>
      <polygon class="st0" points="1032.3 166.6 1073.9 190.6 1115.5 166.6 1115.5 118.5 1073.9 94.5 1032.3 118.5 1032.3 166.6"/>
      <polygon class="st0" points="939.5 166.6 981.1 190.6 1022.7 166.6 1022.7 118.5 981.1 94.5 939.5 118.5 939.5 166.6"/>
      <polygon class="st0" points="848.3 166.6 889.9 190.6 931.5 166.6 931.5 118.5 889.9 94.5 848.3 118.5 848.3 166.6"/>
      <polygon class="st0" points="755.3 166.6 796.9 190.6 838.5 166.6 838.5 118.5 796.9 94.5 755.3 118.5 755.3 166.6"/>
      <polygon class="st0" points="663.7 166.6 705.3 190.6 746.9 166.6 746.9 118.5 705.3 94.5 663.7 118.5 663.7 166.6"/>
      <polygon class="st0" points="571.1 166.6 612.7 190.6 654.3 166.6 654.3 118.5 612.7 94.5 571.1 118.5 571.1 166.6"/>
      <polygon class="st0" points="479.2 166.6 520.8 190.6 562.4 166.6 562.4 118.5 520.8 94.5 479.2 118.5 479.2 166.6 479.2 166.6"/>
    </g>
    <g id="row1">
      <polygon class="st0" points="1162.8 86.6 1162.8 38.5 1121.2 14.5 1079.6 38.5 1079.6 86.6 1121.2 110.6 1162.8 86.6"/>
      <polygon class="st0" points="1069.4 87.2 1069.4 39.1 1027.8 15.1 986.2 39.1 986.2 87.2 1027.8 111.2 1069.4 87.2"/>
      <polygon class="st0" points="977.7 87.2 977.7 39.1 936.1 15.1 894.5 39.1 894.5 87.2 936.1 111.2 977.7 87.2"/>
      <polygon class="st0" points="885.4 87.2 885.4 39.1 843.8 15.1 802.2 39.1 802.2 87.2 843.8 111.2 885.4 87.2"/>
      <polygon class="st0" points="793.1 87.2 793.1 39.1 751.5 15.1 709.9 39.1 709.9 87.2 751.5 111.2 793.1 87.2"/>
      <polygon class="st0" points="700.9 87.2 700.9 39.1 659.3 15.1 617.7 39.1 617.7 87.2 659.3 111.2 700.9 87.2"/>
      <polygon class="st0" points="608.6 87.2 608.6 39.1 567 15.1 525.4 39.1 525.4 87.2 567 111.2 608.6 87.2"/>
    </g>
  </g>
  <g>
    <g id="row131" data-name="row13">
      <path class="st0" d="M986.2,987v48.1l41.6,24,41.6-24v-48.1l-41.6-24-41.6,24h0ZM1067.2,1033.8l-39.4,22.8-39.4-22.8v-45.5l39.4-22.8,39.4,22.8v45.5Z"/>
      <path class="st0" d="M894.4,987v48.1l41.6,24,41.6-24v-48.1l-41.6-24-41.6,24ZM975.5,1033.8l-39.4,22.8-39.4-22.8v-45.5l39.4-22.8,39.4,22.8v45.5Z"/>
      <path class="st0" d="M802.1,987v48.1l41.6,24,41.6-24v-48.1l-41.6-24-41.6,24ZM883.2,1033.8l-39.4,22.8-39.4-22.8v-45.5l39.4-22.8,39.4,22.8v45.5Z"/>
      <path class="st0" d="M709.9,987v48.1l41.6,24,41.6-24v-48.1l-41.6-24-41.6,24ZM790.9,1033.8l-39.4,22.8-39.4-22.8v-45.5l39.4-22.8,39.4,22.8v45.5Z"/>
      <path class="st0" d="M617.6,987v48.1l41.6,24,41.6-24v-48.1l-41.6-24-41.6,24ZM698.6,1033.8l-39.4,22.8-39.4-22.8v-45.5l39.4-22.8,39.4,22.8v45.5Z"/>
      <path class="st0" d="M525.3,987v48.1l41.6,24,41.6-24v-48.1l-41.6-24-41.6,24ZM606.4,1033.8l-39.4,22.8-39.4-22.8v-45.5l39.4-22.8,39.4,22.8v45.5Z"/>
      <path id="_x36__x2C_0_x2C_-61" data-name="_x36__x2C_0_x2C_-6" class="st0" d="M1079.5,986.4v48.1l41.6,24,41.6-24v-48.1l-41.6-24-41.6,24ZM1160.6,1033.2l-39.4,22.8-39.4-22.8v-45.5l39.4-22.8,39.4,22.8v45.5Z"/>
    </g>
    <g id="row121" data-name="row12">
      <path class="st0" d="M1115.6,909.5l-41.6-24-41.6,24v48.1l41.6,24,41.6-24v-48.1ZM1113.4,956.3l-39.4,22.8-39.4-22.8v-45.5l39.4-22.8,39.4,22.8v45.5Z"/>
      <path class="st0" d="M931.5,909.5l-41.6-24-41.6,24v48.1l41.6,24,41.6-24v-48.1ZM929.3,956.3l-39.4,22.8-39.4-22.8v-45.5l39.4-22.8,39.4,22.8v45.5Z"/>
      <path class="st0" d="M747,909.5l-41.6-24-41.6,24v48.1l41.6,24,41.6-24v-48.1ZM744.8,956.3l-39.4,22.8-39.4-22.8v-45.5l39.4-22.8,39.4,22.8v45.5Z"/>
      <path class="st0" d="M562.4,909.5l-41.6-24-41.6,24v48.1l41.6,24,41.6-24v-48.1ZM560.2,956.3l-39.4,22.8-39.4-22.8v-45.5l39.4-22.8,39.4,22.8v45.5Z"/>
      <path class="st0" d="M654.4,909.5l-41.6-24-41.6,24v48.1l41.6,24,41.6-24v-48.1ZM652.2,956.3l-39.4,22.8-39.4-22.8v-45.5l39.4-22.8,39.4,22.8v45.5Z"/>
      <path class="st0" d="M838.6,909.5l-41.6-24-41.6,24v48.1l41.6,24,41.6-24v-48.1ZM836.4,956.3l-39.4,22.8-39.4-22.8v-45.5l39.4-22.8,39.4,22.8v45.5Z"/>
      <path class="st0" d="M1022.8,909.5l-41.6-24-41.6,24v48.1l41.6,24,41.6-24v-48.1ZM1020.6,956.3l-39.4,22.8-39.4-22.8v-45.5l39.4-22.8,39.4,22.8v45.5Z"/>
      <path class="st0" d="M1209,908.9l-41.6-24-41.6,24v48.1l41.6,24,41.6-24v-48.1ZM1206.7,955.7l-39.4,22.8-39.4-22.8v-45.5l39.4-22.8,39.4,22.8v45.5Z"/>
    </g>
    <g id="row111" data-name="row11">
      <path class="st0" d="M1161.7,880.5v-48.1l-41.6-24-41.6,24v48.1l41.6,24,41.6-24ZM1080.7,833.7l39.4-22.8,39.4,22.8v45.5l-39.4,22.8-39.4-22.8v-45.5Z"/>
      <path class="st0" d="M1069.4,880.5v-48.1l-41.6-24-41.6,24v48.1l41.6,24,41.6-24ZM988.4,833.7l39.4-22.8,39.4,22.8v45.5l-39.4,22.8-39.4-22.8v-45.5Z"/>
      <path class="st0" d="M977.7,880.5v-48.1l-41.6-24-41.6,24v48.1l41.6,24,41.6-24ZM896.6,833.7l39.4-22.8,39.4,22.8v45.5l-39.4,22.8-39.4-22.8v-45.5Z"/>
      <path class="st0" d="M885.4,880.5v-48.1l-41.6-24-41.6,24v48.1l41.6,24,41.6-24ZM804.4,833.7l39.4-22.8,39.4,22.8v45.5l-39.4,22.8-39.4-22.8v-45.5Z"/>
      <path class="st0" d="M793.1,880.5v-48.1l-41.6-24-41.6,24v48.1l41.6,24,41.6-24ZM712.1,833.7l39.4-22.8,39.4,22.8v45.5l-39.4,22.8-39.4-22.8v-45.5Z"/>
      <path class="st0" d="M700.9,880.5v-48.1l-41.6-24-41.6,24v48.1l41.6,24,41.6-24ZM619.8,833.7l39.4-22.8,39.4,22.8v45.5l-39.4,22.8-39.4-22.8v-45.5Z"/>
      <path class="st0" d="M608.6,880.5v-48.1l-41.6-24-41.6,24v48.1l41.6,24,41.6-24ZM527.5,833.7l39.4-22.8,39.4,22.8v45.5l-39.4,22.8-39.4-22.8v-45.5Z"/>
      <path class="st0" d="M516.3,880.5v-48.1l-41.6-24-41.6,24v48.1l41.6,24,41.6-24ZM435.2,833.7l39.4-22.8,39.4,22.8v45.5l-39.4,22.8-39.4-22.8v-45.5Z"/>
      <path class="st0" d="M1255.1,879.8v-48.1l-41.6-24-41.6,24v48.1l41.6,24,41.6-24ZM1174,833l39.4-22.8,39.4,22.8v45.5l-39.4,22.8-39.4-22.8v-45.5Z"/>
    </g>
    <g id="row101" data-name="row10">
      <path class="st0" d="M1115.6,802.9v-48.1l-41.6-24-41.6,24v48.1l41.6,24,41.6-24ZM1034.5,756.1l39.4-22.8,39.4,22.8v45.5l-39.4,22.8-39.4-22.8v-45.5Z"/>
      <path class="st0" d="M931.5,802.9v-48.1l-41.6-24-41.6,24v48.1l41.6,24,41.6-24ZM850.5,756.1l39.4-22.8,39.4,22.8v45.5l-39.4,22.8-39.4-22.8v-45.5Z"/>
      <path class="st0" d="M747,802.9v-48.1l-41.6-24-41.6,24v48.1l41.6,24,41.6-24ZM665.9,756.1l39.4-22.8,39.4,22.8v45.5l-39.4,22.8-39.4-22.8v-45.5Z"/>
      <path class="st0" d="M562.4,802.9v-48.1l-41.6-24-41.6,24v48.1l41.6,24,41.6-24ZM481.4,756.1l39.4-22.8,39.4,22.8v45.5l-39.4,22.8-39.4-22.8v-45.5Z"/>
      <path class="st0" d="M470.2,802.9v-48.1l-41.6-24-41.6,24v48.1l41.6,24,41.6-24ZM389.1,756.1l39.4-22.8,39.4,22.8v45.5l-39.4,22.8-39.4-22.8v-45.5Z"/>
      <path class="st0" d="M654.4,802.9v-48.1l-41.6-24-41.6,24v48.1l41.6,24,41.6-24ZM573.3,756.1l39.4-22.8,39.4,22.8v45.5l-39.4,22.8-39.4-22.8v-45.5Z"/>
      <path class="st0" d="M838.6,802.9v-48.1l-41.6-24-41.6,24v48.1l41.6,24,41.6-24ZM757.5,756.1l39.4-22.8,39.4,22.8v45.5l-39.4,22.8-39.4-22.8v-45.5Z"/>
      <path class="st0" d="M1022.8,802.9v-48.1l-41.6-24-41.6,24v48.1l41.6,24,41.6-24ZM941.8,756.1l39.4-22.8,39.4,22.8v45.5l-39.4,22.8-39.4-22.8v-45.5Z"/>
      <path class="st0" d="M1207,802.9v-48.1l-41.6-24-41.6,24v48.1l41.6,24,41.6-24ZM1126,756.1l39.4-22.8,39.4,22.8v45.5l-39.4,22.8-39.4-22.8v-45.5Z"/>
      <path class="st0" d="M1300.4,802.3v-48.1l-41.6-24-41.6,24v48.1l41.6,24,41.6-24ZM1219.3,755.5l39.4-22.8,39.4,22.8v45.5l-39.4,22.8-39.4-22.8v-45.5Z"/>
    </g>
    <g id="row91" data-name="row9">
      <path class="st0" d="M1254,723.6v-48.1l-41.6-24-41.6,24v48.1l41.6,24,41.6-24ZM1172.9,676.8l39.4-22.8,39.4,22.8v45.5l-39.4,22.8-39.4-22.8v-45.5Z"/>
      <path class="st0" d="M1161.7,723.6v-48.1l-41.6-24-41.6,24v48.1l41.6,24,41.6-24ZM1080.7,676.8l39.4-22.8,39.4,22.8v45.5l-39.4,22.8-39.4-22.8v-45.5Z"/>
      <path class="st0" d="M1069.4,723.6v-48.1l-41.6-24-41.6,24v48.1l41.6,24,41.6-24ZM988.4,676.8l39.4-22.8,39.4,22.8v45.5l-39.4,22.8-39.4-22.8v-45.5Z"/>
      <path class="st0" d="M977.7,723.6v-48.1l-41.6-24-41.6,24v48.1l41.6,24,41.6-24ZM896.6,676.8l39.4-22.8,39.4,22.8v45.5l-39.4,22.8-39.4-22.8v-45.5Z"/>
      <path class="st0" d="M885.4,723.6v-48.1l-41.6-24-41.6,24v48.1l41.6,24,41.6-24ZM804.4,676.8l39.4-22.8,39.4,22.8v45.5l-39.4,22.8-39.4-22.8v-45.5Z"/>
      <path class="st0" d="M793.1,723.6v-48.1l-41.6-24-41.6,24v48.1l41.6,24,41.6-24ZM712.1,676.8l39.4-22.8,39.4,22.8v45.5l-39.4,22.8-39.4-22.8v-45.5Z"/>
      <path class="st0" d="M700.9,723.6v-48.1l-41.6-24-41.6,24v48.1l41.6,24,41.6-24ZM619.8,676.8l39.4-22.8,39.4,22.8v45.5l-39.4,22.8-39.4-22.8v-45.5Z"/>
      <path class="st0" d="M608.6,723.6v-48.1l-41.6-24-41.6,24v48.1l41.6,24,41.6-24ZM527.5,676.8l39.4-22.8,39.4,22.8v45.5l-39.4,22.8-39.4-22.8v-45.5Z"/>
      <path class="st0" d="M516.3,723.6v-48.1l-41.6-24-41.6,24v48.1l41.6,24,41.6-24ZM435.2,676.8l39.4-22.8,39.4,22.8v45.5l-39.4,22.8-39.4-22.8v-45.5Z"/>
      <path class="st0" d="M340.7,723.6l41.6,24,41.6-24v-48.1l-41.6-24-41.6,24v48.1ZM343,676.8l39.4-22.8,39.4,22.8v45.5l-39.4,22.8-39.4-22.8v-45.5Z"/>
      <path class="st0" d="M1347.4,722.9v-48.1l-41.6-24-41.6,24v48.1l41.6,24,41.6-24ZM1266.3,676.1l39.4-22.8,39.4,22.8v45.5l-39.4,22.8-39.4-22.8v-45.5Z"/>
    </g>
    <g id="row81" data-name="row8">
      <path class="st0" d="M1300.1,595.8l-41.6-24-41.6,24v48.1l41.6,24,41.6-24v-48.1ZM1297.9,642.6l-39.4,22.8-39.4-22.8v-45.5l39.4-22.8,39.4,22.8v45.5Z"/>
      <path class="st0" d="M1115.6,643.8v-48.1l-41.6-24-41.6,24v48.1l41.6,24,41.6-24ZM1034.5,597l39.4-22.8,39.4,22.8v45.5l-39.4,22.8-39.4-22.8v-45.5Z"/>
      <path class="st0" d="M931.5,643.8v-48.1l-41.6-24-41.6,24v48.1l41.6,24,41.6-24ZM850.5,597l39.4-22.8,39.4,22.8v45.5l-39.4,22.8-39.4-22.8v-45.5Z"/>
      <path class="st0" d="M747,643.8v-48.1l-41.6-24-41.6,24v48.1l41.6,24,41.6-24ZM665.9,597l39.4-22.8,39.4,22.8v45.5l-39.4,22.8-39.4-22.8v-45.5Z"/>
      <path class="st0" d="M562.4,643.8v-48.1l-41.6-24-41.6,24v48.1l41.6,24,41.6-24ZM481.4,597l39.4-22.8,39.4,22.8v45.5l-39.4,22.8-39.4-22.8v-45.5Z"/>
      <path class="st0" d="M377.9,643.8v-48.1l-41.6-24-41.6,24v48.1l41.6,24,41.6-24ZM296.8,597l39.4-22.8,39.4,22.8v45.5l-39.4,22.8-39.4-22.8v-45.5Z"/>
      <path class="st0" d="M386.9,643.8l41.6,24,41.6-24v-48.1l-41.6-24-41.6,24v48.1ZM389.1,597l39.4-22.8,39.4,22.8v45.5l-39.4,22.8-39.4-22.8v-45.5Z"/>
      <path class="st0" d="M654.4,643.8v-48.1l-41.6-24-41.6,24v48.1l41.6,24,41.6-24ZM573.3,597l39.4-22.8,39.4,22.8v45.5l-39.4,22.8-39.4-22.8v-45.5Z"/>
      <path class="st0" d="M838.6,643.8v-48.1l-41.6-24-41.6,24v48.1l41.6,24,41.6-24ZM757.5,597l39.4-22.8,39.4,22.8v45.5l-39.4,22.8-39.4-22.8v-45.5Z"/>
      <path class="st0" d="M1022.8,643.8v-48.1l-41.6-24-41.6,24v48.1l41.6,24,41.6-24ZM941.8,597l39.4-22.8,39.4,22.8v45.5l-39.4,22.8-39.4-22.8v-45.5Z"/>
      <path class="st0" d="M1207,643.8v-48.1l-41.6-24-41.6,24v48.1l41.6,24,41.6-24ZM1126,597l39.4-22.8,39.4,22.8v45.5l-39.4,22.8-39.4-22.8v-45.5Z"/>
      <path class="st0" d="M1393.5,595.1l-41.6-24-41.6,24v48.1l41.6,24,41.6-24v-48.1ZM1391.3,641.9l-39.4,22.8-39.4-22.8v-45.5l39.4-22.8,39.4,22.8v45.5Z"/>
    </g>
    <g id="row71" data-name="row7">
      <path class="st0" d="M1263,516.4v48.1l41.6,24,41.6-24v-48.1l-41.6-24-41.6,24ZM1344.1,563.2l-39.4,22.8-39.4-22.8v-45.5l39.4-22.8,39.4,22.8v45.5Z"/>
      <path class="st0" d="M1254,516.4l-41.6-24-41.6,24v48.1l41.6,24,41.6-24v-48.1ZM1251.8,563.2l-39.4,22.8-39.4-22.8v-45.5l39.4-22.8,39.4,22.8v45.5Z"/>
      <path class="st0" d="M1078.5,516.4v48.1l41.6,24,41.6-24v-48.1l-41.6-24-41.6,24ZM1159.5,563.2l-39.4,22.8-39.4-22.8v-45.5l39.4-22.8,39.4,22.8v45.5Z"/>
      <path class="st0" d="M986.2,516.4v48.1l41.6,24,41.6-24v-48.1l-41.6-24-41.6,24h0ZM1067.2,563.2l-39.4,22.8-39.4-22.8v-45.5l39.4-22.8,39.4,22.8v45.5Z"/>
      <path class="st0" d="M894.4,516.4v48.1l41.6,24,41.6-24v-48.1l-41.6-24-41.6,24ZM975.5,563.2l-39.4,22.8-39.4-22.8v-45.5l39.4-22.8,39.4,22.8v45.5Z"/>
      <path class="st0" d="M802.1,516.4v48.1l41.6,24,41.6-24v-48.1l-41.6-24-41.6,24ZM883.2,563.2l-39.4,22.8-39.4-22.8v-45.5l39.4-22.8,39.4,22.8v45.5Z"/>
      <path class="st0" d="M709.9,516.4v48.1l41.6,24,41.6-24v-48.1l-41.6-24-41.6,24ZM790.9,563.2l-39.4,22.8-39.4-22.8v-45.5l39.4-22.8,39.4,22.8v45.5Z"/>
      <path class="st0" d="M617.6,516.4v48.1l41.6,24,41.6-24v-48.1l-41.6-24-41.6,24ZM698.6,563.2l-39.4,22.8-39.4-22.8v-45.5l39.4-22.8,39.4,22.8v45.5Z"/>
      <path class="st0" d="M525.3,516.4v48.1l41.6,24,41.6-24v-48.1l-41.6-24-41.6,24ZM606.4,563.2l-39.4,22.8-39.4-22.8v-45.5l39.4-22.8,39.4,22.8v45.5Z"/>
      <path class="st0" d="M433,516.4v48.1l41.6,24,41.6-24v-48.1l-41.6-24-41.6,24ZM514.1,563.2l-39.4,22.8-39.4-22.8v-45.5l39.4-22.8,39.4,22.8v45.5Z"/>
      <path class="st0" d="M340.7,564.5l41.6,24,41.6-24v-48.1l-41.6-24-41.6,24v48.1ZM343,517.7l39.4-22.8,39.4,22.8v45.5l-39.4,22.8-39.4-22.8v-45.5Z"/>
      <path class="st0" d="M331.7,564.5v-48.1l-41.6-24-41.6,24v48.1l41.6,24,41.6-24ZM250.7,517.7l39.4-22.8,39.4,22.8v45.5l-39.4,22.8-39.4-22.8v-45.5h0Z"/>
      <path class="st0" d="M1356.4,515.8v48.1l41.6,24,41.6-24v-48.1l-41.6-24-41.6,24ZM1437.4,562.6l-39.4,22.8-39.4-22.8v-45.5l39.4-22.8,39.4,22.8v45.5Z"/>
    </g>
    <g id="row61" data-name="row6">
      <polygon class="st0" points="1300.1 436.7 1258.5 412.7 1216.9 436.7 1216.9 484.8 1258.5 508.8 1300.1 484.8 1300.1 436.7"/>
      <polygon class="st0" points="1032.3 436.7 1032.3 484.8 1073.9 508.8 1115.5 484.8 1115.5 436.7 1073.9 412.7 1032.3 436.7"/>
      <polygon class="st0" points="848.3 436.7 848.3 484.8 889.9 508.8 931.5 484.8 931.5 436.7 889.9 412.7 848.3 436.7"/>
      <polygon class="st0" points="663.7 436.7 663.7 484.8 705.3 508.8 746.9 484.8 746.9 436.7 705.3 412.7 663.7 436.7"/>
      <polygon class="st0" points="479.2 436.7 479.2 484.8 520.8 508.8 562.4 484.8 562.4 436.7 520.8 412.7 479.2 436.7 479.2 436.7"/>
      <polygon class="st0" points="377.9 484.7 377.9 436.6 336.3 412.6 294.7 436.6 294.7 484.7 336.3 508.7 377.9 484.7"/>
      <polygon class="st0" points="386.9 436.7 386.9 484.8 428.5 508.8 470.1 484.8 470.1 436.7 428.5 412.7 386.9 436.7"/>
      <polygon class="st0" points="571.1 436.7 571.1 484.8 612.7 508.8 654.3 484.8 654.3 436.7 612.7 412.7 571.1 436.7"/>
      <polygon class="st0" points="755.3 436.7 755.3 484.8 796.9 508.8 838.5 484.8 838.5 436.7 796.9 412.7 755.3 436.7"/>
      <polygon class="st0" points="939.5 436.7 939.5 484.8 981.1 508.8 1022.7 484.8 1022.7 436.7 981.1 412.7 939.5 436.7"/>
      <polygon class="st0" points="1207 484.7 1207 436.6 1165.4 412.6 1123.8 436.6 1123.8 484.7 1165.4 508.7 1207 484.7"/>
      <polygon class="st0" points="1393.5 436 1351.9 412 1310.3 436 1310.3 484.1 1351.9 508.1 1393.5 484.1 1393.5 436"/>
    </g>
    <g id="row51" data-name="row5">
      <polygon class="st0" points="1254 357.3 1212.4 333.3 1170.8 357.3 1170.8 405.4 1212.4 429.4 1254 405.4 1254 357.3"/>
      <polygon class="st0" points="1078.5 357.3 1078.5 405.4 1120.1 429.4 1161.7 405.4 1161.7 357.3 1120.1 333.3 1078.5 357.3"/>
      <polygon class="st0" points="986.2 357.3 986.2 405.4 1027.8 429.4 1069.4 405.4 1069.4 357.3 1027.8 333.3 986.2 357.3 986.2 357.3"/>
      <polygon class="st0" points="894.4 357.3 894.4 405.4 936 429.4 977.6 405.4 977.6 357.3 936 333.3 894.4 357.3"/>
      <polygon class="st0" points="802.1 357.3 802.1 405.4 843.7 429.4 885.3 405.4 885.3 357.3 843.7 333.3 802.1 357.3"/>
      <polygon class="st0" points="709.9 357.3 709.9 405.4 751.5 429.4 793.1 405.4 793.1 357.3 751.5 333.3 709.9 357.3"/>
      <polygon class="st0" points="617.6 357.3 617.6 405.4 659.2 429.4 700.8 405.4 700.8 357.3 659.2 333.3 617.6 357.3"/>
      <polygon class="st0" points="525.3 357.3 525.3 405.4 566.9 429.4 608.5 405.4 608.5 357.3 566.9 333.3 525.3 357.3"/>
      <polygon class="st0" points="433 357.3 433 405.4 474.6 429.4 516.2 405.4 516.2 357.3 474.6 333.3 433 357.3"/>
      <polygon class="st0" points="340.7 405.4 382.3 429.4 423.9 405.4 423.9 357.3 382.3 333.3 340.7 357.3 340.7 405.4"/>
      <polygon class="st0" points="1347.4 356.7 1305.8 332.7 1264.2 356.7 1264.2 404.8 1305.8 428.8 1347.4 404.8 1347.4 356.7"/>
    </g>
    <g id="row41" data-name="row4">
      <polygon class="st0" points="1217.1 276.9 1217.1 325 1258.7 349 1300.3 325 1300.3 276.9 1258.7 252.9 1217.1 276.9"/>
      <polygon class="st0" points="1123.8 277.6 1123.8 325.7 1165.4 349.7 1207 325.7 1207 277.6 1165.4 253.6 1123.8 277.6"/>
      <polygon class="st0" points="1032.3 277.6 1032.3 325.7 1073.9 349.7 1115.5 325.7 1115.5 277.6 1073.9 253.6 1032.3 277.6"/>
      <polygon class="st0" points="939.5 277.6 939.5 325.7 981.1 349.7 1022.7 325.7 1022.7 277.6 981.1 253.6 939.5 277.6"/>
      <polygon class="st0" points="848.3 277.6 848.3 325.7 889.9 349.7 931.5 325.7 931.5 277.6 889.9 253.6 848.3 277.6"/>
      <polygon class="st0" points="755.3 277.6 755.3 325.7 796.9 349.7 838.5 325.7 838.5 277.6 796.9 253.6 755.3 277.6"/>
      <polygon class="st0" points="663.7 277.6 663.7 325.7 705.3 349.7 746.9 325.7 746.9 277.6 705.3 253.6 663.7 277.6"/>
      <polygon class="st0" points="571.1 277.6 571.1 325.7 612.7 349.7 654.3 325.7 654.3 277.6 612.7 253.6 571.1 277.6"/>
      <polygon class="st0" points="479.2 277.6 479.2 325.7 520.8 349.7 562.4 325.7 562.4 277.6 520.8 253.6 479.2 277.6 479.2 277.6"/>
      <polygon class="st0" points="386.9 277.6 386.9 325.7 428.5 349.7 470.1 325.7 470.1 277.6 428.5 253.6 386.9 277.6"/>
    </g>
    <g id="row31" data-name="row3">
      <g>
        <polygon class="st0" points="1171.8 197.6 1171.8 245.7 1213.4 269.7 1255 245.7 1255 197.6 1213.4 173.6 1171.8 197.6"/>
        <polygon class="st0" points="1078.5 198.2 1078.5 246.3 1120.1 270.3 1161.7 246.3 1161.7 198.2 1120.1 174.2 1078.5 198.2 1078.5 198.2"/>
        <polygon class="st0" points="986.2 198.2 986.2 246.3 1027.8 270.3 1069.4 246.3 1069.4 198.2 1027.8 174.2 986.2 198.2 986.2 198.2"/>
        <polygon class="st0" points="894.4 198.2 894.4 246.3 936 270.3 977.6 246.3 977.6 198.2 936 174.2 894.4 198.2 894.4 198.2"/>
        <polygon class="st0" points="802.1 198.2 802.1 246.3 843.7 270.3 885.3 246.3 885.3 198.2 843.7 174.2 802.1 198.2 802.1 198.2"/>
        <polygon class="st0" points="709.9 198.2 709.9 246.3 751.5 270.3 793.1 246.3 793.1 198.2 751.5 174.2 709.9 198.2 709.9 198.2"/>
        <polygon class="st0" points="617.6 198.2 617.6 246.3 659.2 270.3 700.8 246.3 700.8 198.2 659.2 174.2 617.6 198.2 617.6 198.2"/>
        <polygon class="st0" points="525.3 198.2 525.3 246.3 566.9 270.3 608.5 246.3 608.5 198.2 566.9 174.2 525.3 198.2 525.3 198.2"/>
        <polygon class="st0" points="434 196.7 434 245.1 475 270.3 517.3 245.2 517.3 198.8 476.3 174.9 434 196.7 434 196.7"/>
      </g>
      <g>
        <polygon class="st0" points="1171.8 197.6 1171.8 245.7 1213.4 269.7 1255 245.7 1255 197.6 1213.4 173.6 1171.8 197.6"/>
        <polygon class="st0" points="1078.5 198.2 1078.5 246.3 1120.1 270.3 1161.7 246.3 1161.7 198.2 1120.1 174.2 1078.5 198.2 1078.5 198.2"/>
        <polygon class="st0" points="986.2 198.2 986.2 246.3 1027.8 270.3 1069.4 246.3 1069.4 198.2 1027.8 174.2 986.2 198.2 986.2 198.2"/>
        <polygon class="st0" points="894.4 198.2 894.4 246.3 936 270.3 977.6 246.3 977.6 198.2 936 174.2 894.4 198.2 894.4 198.2"/>
        <polygon class="st0" points="802.1 198.2 802.1 246.3 843.7 270.3 885.3 246.3 885.3 198.2 843.7 174.2 802.1 198.2 802.1 198.2"/>
        <polygon class="st0" points="709.9 198.2 709.9 246.3 751.5 270.3 793.1 246.3 793.1 198.2 751.5 174.2 709.9 198.2 709.9 198.2"/>
        <polygon class="st0" points="617.6 198.2 617.6 246.3 659.2 270.3 700.8 246.3 700.8 198.2 659.2 174.2 617.6 198.2 617.6 198.2"/>
        <polygon class="st0" points="525.3 198.2 525.3 246.3 566.9 270.3 608.5 246.3 608.5 198.2 566.9 174.2 525.3 198.2 525.3 198.2"/>
        <polygon class="st0" points="434 196.7 434 245.1 475 270.3 517.3 245.2 517.3 198.8 476.3 174.9 434 196.7 434 196.7"/>
      </g>
    </g>
    <g id="row21" data-name="row2">
      <polygon class="st0" points="1125.7 165.9 1167.3 189.9 1208.9 165.9 1208.9 117.8 1167.3 93.8 1125.7 117.8 1125.7 165.9"/>
      <polygon class="st0" points="1032.3 166.6 1073.9 190.6 1115.5 166.6 1115.5 118.5 1073.9 94.5 1032.3 118.5 1032.3 166.6"/>
      <polygon class="st0" points="939.5 166.6 981.1 190.6 1022.7 166.6 1022.7 118.5 981.1 94.5 939.5 118.5 939.5 166.6"/>
      <polygon class="st0" points="848.3 166.6 889.9 190.6 931.5 166.6 931.5 118.5 889.9 94.5 848.3 118.5 848.3 166.6"/>
      <polygon class="st0" points="755.3 166.6 796.9 190.6 838.5 166.6 838.5 118.5 796.9 94.5 755.3 118.5 755.3 166.6"/>
      <polygon class="st0" points="663.7 166.6 705.3 190.6 746.9 166.6 746.9 118.5 705.3 94.5 663.7 118.5 663.7 166.6"/>
      <polygon class="st0" points="571.1 166.6 612.7 190.6 654.3 166.6 654.3 118.5 612.7 94.5 571.1 118.5 571.1 166.6"/>
      <polygon class="st0" points="479.2 166.6 520.8 190.6 562.4 166.6 562.4 118.5 520.8 94.5 479.2 118.5 479.2 166.6 479.2 166.6"/>
    </g>
    <g id="row14" data-name="row1">
      <polygon class="st1" points="1162.8 86.6 1162.8 38.5 1121.2 14.5 1079.6 38.5 1079.6 86.6 1121.2 110.6 1162.8 86.6"/>
      <polygon class="st1" points="1069.4 87.2 1069.4 39.1 1027.8 15.1 986.2 39.1 986.2 87.2 1027.8 111.2 1069.4 87.2"/>
      <polygon class="st1" points="977.7 87.2 977.7 39.1 936.1 15.1 894.5 39.1 894.5 87.2 936.1 111.2 977.7 87.2"/>
      <polygon class="st1" points="885.4 87.2 885.4 39.1 843.8 15.1 802.2 39.1 802.2 87.2 843.8 111.2 885.4 87.2"/>
      <polygon class="st1" points="793.1 87.2 793.1 39.1 751.5 15.1 709.9 39.1 709.9 87.2 751.5 111.2 793.1 87.2"/>
      <polygon class="st1" points="700.9 87.2 700.9 39.1 659.3 15.1 617.7 39.1 617.7 87.2 659.3 111.2 700.9 87.2"/>
      <polygon class="st1" points="608.6 87.2 608.6 39.1 567 15.1 525.4 39.1 525.4 87.2 567 111.2 608.6 87.2"/>
    </g>
  </g>
  <g>
    <g id="row132" data-name="row13">
      <path class="st2" d="M986.2,987v48.1l41.6,24,41.6-24v-48.1l-41.6-24-41.6,24h0ZM1067.2,1033.8l-39.4,22.8-39.4-22.8v-45.5l39.4-22.8,39.4,22.8v45.5Z"/>
      <path class="st2" d="M894.4,987v48.1l41.6,24,41.6-24v-48.1l-41.6-24-41.6,24ZM975.5,1033.8l-39.4,22.8-39.4-22.8v-45.5l39.4-22.8,39.4,22.8v45.5Z"/>
      <path class="st2" d="M802.1,987v48.1l41.6,24,41.6-24v-48.1l-41.6-24-41.6,24ZM883.2,1033.8l-39.4,22.8-39.4-22.8v-45.5l39.4-22.8,39.4,22.8v45.5Z"/>
      <path class="st2" d="M709.9,987v48.1l41.6,24,41.6-24v-48.1l-41.6-24-41.6,24ZM790.9,1033.8l-39.4,22.8-39.4-22.8v-45.5l39.4-22.8,39.4,22.8v45.5Z"/>
      <path class="st2" d="M617.6,987v48.1l41.6,24,41.6-24v-48.1l-41.6-24-41.6,24ZM698.6,1033.8l-39.4,22.8-39.4-22.8v-45.5l39.4-22.8,39.4,22.8v45.5Z"/>
      <path class="st2" d="M525.3,987v48.1l41.6,24,41.6-24v-48.1l-41.6-24-41.6,24ZM606.4,1033.8l-39.4,22.8-39.4-22.8v-45.5l39.4-22.8,39.4,22.8v45.5Z"/>
      <path id="_x36__x2C_0_x2C_-62" data-name="_x36__x2C_0_x2C_-6" class="st2" d="M1079.5,986.4v48.1l41.6,24,41.6-24v-48.1l-41.6-24-41.6,24ZM1160.6,1033.2l-39.4,22.8-39.4-22.8v-45.5l39.4-22.8,39.4,22.8v45.5Z"/>
    </g>
    <g id="row122" data-name="row12">
      <path class="st2" d="M1115.6,909.5l-41.6-24-41.6,24v48.1l41.6,24,41.6-24v-48.1ZM1113.4,956.3l-39.4,22.8-39.4-22.8v-45.5l39.4-22.8,39.4,22.8v45.5Z"/>
      <path class="st2" d="M931.5,909.5l-41.6-24-41.6,24v48.1l41.6,24,41.6-24v-48.1ZM929.3,956.3l-39.4,22.8-39.4-22.8v-45.5l39.4-22.8,39.4,22.8v45.5Z"/>
      <path class="st2" d="M747,909.5l-41.6-24-41.6,24v48.1l41.6,24,41.6-24v-48.1ZM744.8,956.3l-39.4,22.8-39.4-22.8v-45.5l39.4-22.8,39.4,22.8v45.5Z"/>
      <path class="st2" d="M562.4,909.5l-41.6-24-41.6,24v48.1l41.6,24,41.6-24v-48.1ZM560.2,956.3l-39.4,22.8-39.4-22.8v-45.5l39.4-22.8,39.4,22.8v45.5Z"/>
      <path class="st2" d="M654.4,909.5l-41.6-24-41.6,24v48.1l41.6,24,41.6-24v-48.1ZM652.2,956.3l-39.4,22.8-39.4-22.8v-45.5l39.4-22.8,39.4,22.8v45.5Z"/>
      <path class="st2" d="M838.6,909.5l-41.6-24-41.6,24v48.1l41.6,24,41.6-24v-48.1ZM836.4,956.3l-39.4,22.8-39.4-22.8v-45.5l39.4-22.8,39.4,22.8v45.5Z"/>
      <path class="st2" d="M1022.8,909.5l-41.6-24-41.6,24v48.1l41.6,24,41.6-24v-48.1ZM1020.6,956.3l-39.4,22.8-39.4-22.8v-45.5l39.4-22.8,39.4,22.8v45.5Z"/>
      <path class="st2" d="M1209,908.9l-41.6-24-41.6,24v48.1l41.6,24,41.6-24v-48.1ZM1206.7,955.7l-39.4,22.8-39.4-22.8v-45.5l39.4-22.8,39.4,22.8v45.5Z"/>
    </g>
    <g id="row112" data-name="row11">
      <path class="st2" d="M1161.7,880.5v-48.1l-41.6-24-41.6,24v48.1l41.6,24,41.6-24ZM1080.7,833.7l39.4-22.8,39.4,22.8v45.5l-39.4,22.8-39.4-22.8v-45.5Z"/>
      <path class="st2" d="M1069.4,880.5v-48.1l-41.6-24-41.6,24v48.1l41.6,24,41.6-24ZM988.4,833.7l39.4-22.8,39.4,22.8v45.5l-39.4,22.8-39.4-22.8v-45.5Z"/>
      <path class="st2" d="M977.7,880.5v-48.1l-41.6-24-41.6,24v48.1l41.6,24,41.6-24ZM896.6,833.7l39.4-22.8,39.4,22.8v45.5l-39.4,22.8-39.4-22.8v-45.5Z"/>
      <path class="st2" d="M885.4,880.5v-48.1l-41.6-24-41.6,24v48.1l41.6,24,41.6-24ZM804.4,833.7l39.4-22.8,39.4,22.8v45.5l-39.4,22.8-39.4-22.8v-45.5Z"/>
      <path class="st2" d="M793.1,880.5v-48.1l-41.6-24-41.6,24v48.1l41.6,24,41.6-24ZM712.1,833.7l39.4-22.8,39.4,22.8v45.5l-39.4,22.8-39.4-22.8v-45.5Z"/>
      <path class="st2" d="M700.9,880.5v-48.1l-41.6-24-41.6,24v48.1l41.6,24,41.6-24ZM619.8,833.7l39.4-22.8,39.4,22.8v45.5l-39.4,22.8-39.4-22.8v-45.5Z"/>
      <path class="st2" d="M608.6,880.5v-48.1l-41.6-24-41.6,24v48.1l41.6,24,41.6-24ZM527.5,833.7l39.4-22.8,39.4,22.8v45.5l-39.4,22.8-39.4-22.8v-45.5Z"/>
      <path class="st2" d="M516.3,880.5v-48.1l-41.6-24-41.6,24v48.1l41.6,24,41.6-24ZM435.2,833.7l39.4-22.8,39.4,22.8v45.5l-39.4,22.8-39.4-22.8v-45.5Z"/>
      <path class="st2" d="M1255.1,879.8v-48.1l-41.6-24-41.6,24v48.1l41.6,24,41.6-24ZM1174,833l39.4-22.8,39.4,22.8v45.5l-39.4,22.8-39.4-22.8v-45.5Z"/>
    </g>
    <g id="row102" data-name="row10">
      <path class="st2" d="M1115.6,802.9v-48.1l-41.6-24-41.6,24v48.1l41.6,24,41.6-24ZM1034.5,756.1l39.4-22.8,39.4,22.8v45.5l-39.4,22.8-39.4-22.8v-45.5Z"/>
      <path class="st2" d="M931.5,802.9v-48.1l-41.6-24-41.6,24v48.1l41.6,24,41.6-24ZM850.5,756.1l39.4-22.8,39.4,22.8v45.5l-39.4,22.8-39.4-22.8v-45.5Z"/>
      <path class="st2" d="M747,802.9v-48.1l-41.6-24-41.6,24v48.1l41.6,24,41.6-24ZM665.9,756.1l39.4-22.8,39.4,22.8v45.5l-39.4,22.8-39.4-22.8v-45.5Z"/>
      <path class="st2" d="M562.4,802.9v-48.1l-41.6-24-41.6,24v48.1l41.6,24,41.6-24ZM481.4,756.1l39.4-22.8,39.4,22.8v45.5l-39.4,22.8-39.4-22.8v-45.5Z"/>
      <path class="st2" d="M470.2,802.9v-48.1l-41.6-24-41.6,24v48.1l41.6,24,41.6-24ZM389.1,756.1l39.4-22.8,39.4,22.8v45.5l-39.4,22.8-39.4-22.8v-45.5Z"/>
      <path class="st2" d="M654.4,802.9v-48.1l-41.6-24-41.6,24v48.1l41.6,24,41.6-24ZM573.3,756.1l39.4-22.8,39.4,22.8v45.5l-39.4,22.8-39.4-22.8v-45.5Z"/>
      <path class="st2" d="M838.6,802.9v-48.1l-41.6-24-41.6,24v48.1l41.6,24,41.6-24ZM757.5,756.1l39.4-22.8,39.4,22.8v45.5l-39.4,22.8-39.4-22.8v-45.5Z"/>
      <path class="st2" d="M1022.8,802.9v-48.1l-41.6-24-41.6,24v48.1l41.6,24,41.6-24ZM941.8,756.1l39.4-22.8,39.4,22.8v45.5l-39.4,22.8-39.4-22.8v-45.5Z"/>
      <path class="st2" d="M1207,802.9v-48.1l-41.6-24-41.6,24v48.1l41.6,24,41.6-24ZM1126,756.1l39.4-22.8,39.4,22.8v45.5l-39.4,22.8-39.4-22.8v-45.5Z"/>
      <path class="st2" d="M1300.4,802.3v-48.1l-41.6-24-41.6,24v48.1l41.6,24,41.6-24ZM1219.3,755.5l39.4-22.8,39.4,22.8v45.5l-39.4,22.8-39.4-22.8v-45.5Z"/>
    </g>
    <g id="row92" data-name="row9">
      <path class="st2" d="M1254,723.6v-48.1l-41.6-24-41.6,24v48.1l41.6,24,41.6-24ZM1172.9,676.8l39.4-22.8,39.4,22.8v45.5l-39.4,22.8-39.4-22.8v-45.5Z"/>
      <path class="st2" d="M1161.7,723.6v-48.1l-41.6-24-41.6,24v48.1l41.6,24,41.6-24ZM1080.7,676.8l39.4-22.8,39.4,22.8v45.5l-39.4,22.8-39.4-22.8v-45.5Z"/>
      <path class="st2" d="M1069.4,723.6v-48.1l-41.6-24-41.6,24v48.1l41.6,24,41.6-24ZM988.4,676.8l39.4-22.8,39.4,22.8v45.5l-39.4,22.8-39.4-22.8v-45.5Z"/>
      <path class="st2" d="M977.7,723.6v-48.1l-41.6-24-41.6,24v48.1l41.6,24,41.6-24ZM896.6,676.8l39.4-22.8,39.4,22.8v45.5l-39.4,22.8-39.4-22.8v-45.5Z"/>
      <path class="st2" d="M885.4,723.6v-48.1l-41.6-24-41.6,24v48.1l41.6,24,41.6-24ZM804.4,676.8l39.4-22.8,39.4,22.8v45.5l-39.4,22.8-39.4-22.8v-45.5Z"/>
      <path class="st2" d="M793.1,723.6v-48.1l-41.6-24-41.6,24v48.1l41.6,24,41.6-24ZM712.1,676.8l39.4-22.8,39.4,22.8v45.5l-39.4,22.8-39.4-22.8v-45.5Z"/>
      <path class="st2" d="M700.9,723.6v-48.1l-41.6-24-41.6,24v48.1l41.6,24,41.6-24ZM619.8,676.8l39.4-22.8,39.4,22.8v45.5l-39.4,22.8-39.4-22.8v-45.5Z"/>
      <path class="st2" d="M608.6,723.6v-48.1l-41.6-24-41.6,24v48.1l41.6,24,41.6-24ZM527.5,676.8l39.4-22.8,39.4,22.8v45.5l-39.4,22.8-39.4-22.8v-45.5Z"/>
      <path class="st2" d="M516.3,723.6v-48.1l-41.6-24-41.6,24v48.1l41.6,24,41.6-24ZM435.2,676.8l39.4-22.8,39.4,22.8v45.5l-39.4,22.8-39.4-22.8v-45.5Z"/>
      <path class="st2" d="M340.7,723.6l41.6,24,41.6-24v-48.1l-41.6-24-41.6,24v48.1ZM343,676.8l39.4-22.8,39.4,22.8v45.5l-39.4,22.8-39.4-22.8v-45.5Z"/>
      <path class="st2" d="M1347.4,722.9v-48.1l-41.6-24-41.6,24v48.1l41.6,24,41.6-24ZM1266.3,676.1l39.4-22.8,39.4,22.8v45.5l-39.4,22.8-39.4-22.8v-45.5Z"/>
    </g>
    <g id="row82" data-name="row8">
      <path class="st2" d="M1300.1,595.8l-41.6-24-41.6,24v48.1l41.6,24,41.6-24v-48.1ZM1297.9,642.6l-39.4,22.8-39.4-22.8v-45.5l39.4-22.8,39.4,22.8v45.5Z"/>
      <path class="st2" d="M1115.6,643.8v-48.1l-41.6-24-41.6,24v48.1l41.6,24,41.6-24ZM1034.5,597l39.4-22.8,39.4,22.8v45.5l-39.4,22.8-39.4-22.8v-45.5Z"/>
      <path class="st2" d="M931.5,643.8v-48.1l-41.6-24-41.6,24v48.1l41.6,24,41.6-24ZM850.5,597l39.4-22.8,39.4,22.8v45.5l-39.4,22.8-39.4-22.8v-45.5Z"/>
      <path class="st2" d="M747,643.8v-48.1l-41.6-24-41.6,24v48.1l41.6,24,41.6-24ZM665.9,597l39.4-22.8,39.4,22.8v45.5l-39.4,22.8-39.4-22.8v-45.5Z"/>
      <path class="st2" d="M562.4,643.8v-48.1l-41.6-24-41.6,24v48.1l41.6,24,41.6-24ZM481.4,597l39.4-22.8,39.4,22.8v45.5l-39.4,22.8-39.4-22.8v-45.5Z"/>
      <path class="st2" d="M377.9,643.8v-48.1l-41.6-24-41.6,24v48.1l41.6,24,41.6-24ZM296.8,597l39.4-22.8,39.4,22.8v45.5l-39.4,22.8-39.4-22.8v-45.5Z"/>
      <path class="st2" d="M386.9,643.8l41.6,24,41.6-24v-48.1l-41.6-24-41.6,24v48.1ZM389.1,597l39.4-22.8,39.4,22.8v45.5l-39.4,22.8-39.4-22.8v-45.5Z"/>
      <path class="st2" d="M654.4,643.8v-48.1l-41.6-24-41.6,24v48.1l41.6,24,41.6-24ZM573.3,597l39.4-22.8,39.4,22.8v45.5l-39.4,22.8-39.4-22.8v-45.5Z"/>
      <path class="st2" d="M838.6,643.8v-48.1l-41.6-24-41.6,24v48.1l41.6,24,41.6-24ZM757.5,597l39.4-22.8,39.4,22.8v45.5l-39.4,22.8-39.4-22.8v-45.5Z"/>
      <path class="st2" d="M1022.8,643.8v-48.1l-41.6-24-41.6,24v48.1l41.6,24,41.6-24ZM941.8,597l39.4-22.8,39.4,22.8v45.5l-39.4,22.8-39.4-22.8v-45.5Z"/>
      <path class="st2" d="M1207,643.8v-48.1l-41.6-24-41.6,24v48.1l41.6,24,41.6-24ZM1126,597l39.4-22.8,39.4,22.8v45.5l-39.4,22.8-39.4-22.8v-45.5Z"/>
      <path class="st2" d="M1393.5,595.1l-41.6-24-41.6,24v48.1l41.6,24,41.6-24v-48.1ZM1391.3,641.9l-39.4,22.8-39.4-22.8v-45.5l39.4-22.8,39.4,22.8v45.5Z"/>
    </g>
    <g id="row72" data-name="row7">
      <path class="st2" d="M1263,516.4v48.1l41.6,24,41.6-24v-48.1l-41.6-24-41.6,24ZM1344.1,563.2l-39.4,22.8-39.4-22.8v-45.5l39.4-22.8,39.4,22.8v45.5Z"/>
      <path class="st2" d="M1254,516.4l-41.6-24-41.6,24v48.1l41.6,24,41.6-24v-48.1ZM1251.8,563.2l-39.4,22.8-39.4-22.8v-45.5l39.4-22.8,39.4,22.8v45.5Z"/>
      <path class="st2" d="M1078.5,516.4v48.1l41.6,24,41.6-24v-48.1l-41.6-24-41.6,24ZM1159.5,563.2l-39.4,22.8-39.4-22.8v-45.5l39.4-22.8,39.4,22.8v45.5Z"/>
      <path class="st2" d="M986.2,516.4v48.1l41.6,24,41.6-24v-48.1l-41.6-24-41.6,24h0ZM1067.2,563.2l-39.4,22.8-39.4-22.8v-45.5l39.4-22.8,39.4,22.8v45.5Z"/>
      <path class="st2" d="M894.4,516.4v48.1l41.6,24,41.6-24v-48.1l-41.6-24-41.6,24ZM975.5,563.2l-39.4,22.8-39.4-22.8v-45.5l39.4-22.8,39.4,22.8v45.5Z"/>
      <path class="st2" d="M802.1,516.4v48.1l41.6,24,41.6-24v-48.1l-41.6-24-41.6,24ZM883.2,563.2l-39.4,22.8-39.4-22.8v-45.5l39.4-22.8,39.4,22.8v45.5Z"/>
      <path class="st2" d="M709.9,516.4v48.1l41.6,24,41.6-24v-48.1l-41.6-24-41.6,24ZM790.9,563.2l-39.4,22.8-39.4-22.8v-45.5l39.4-22.8,39.4,22.8v45.5Z"/>
      <path class="st2" d="M617.6,516.4v48.1l41.6,24,41.6-24v-48.1l-41.6-24-41.6,24ZM698.6,563.2l-39.4,22.8-39.4-22.8v-45.5l39.4-22.8,39.4,22.8v45.5Z"/>
      <path class="st2" d="M525.3,516.4v48.1l41.6,24,41.6-24v-48.1l-41.6-24-41.6,24ZM606.4,563.2l-39.4,22.8-39.4-22.8v-45.5l39.4-22.8,39.4,22.8v45.5Z"/>
      <path class="st2" d="M433,516.4v48.1l41.6,24,41.6-24v-48.1l-41.6-24-41.6,24ZM514.1,563.2l-39.4,22.8-39.4-22.8v-45.5l39.4-22.8,39.4,22.8v45.5Z"/>
      <path class="st2" d="M340.7,564.5l41.6,24,41.6-24v-48.1l-41.6-24-41.6,24v48.1ZM343,517.7l39.4-22.8,39.4,22.8v45.5l-39.4,22.8-39.4-22.8v-45.5Z"/>
      <path class="st2" d="M331.7,564.5v-48.1l-41.6-24-41.6,24v48.1l41.6,24,41.6-24ZM250.7,517.7l39.4-22.8,39.4,22.8v45.5l-39.4,22.8-39.4-22.8v-45.5h0Z"/>
      <path class="st2" d="M1356.4,515.8v48.1l41.6,24,41.6-24v-48.1l-41.6-24-41.6,24ZM1437.4,562.6l-39.4,22.8-39.4-22.8v-45.5l39.4-22.8,39.4,22.8v45.5Z"/>
    </g>
    <g id="row62" data-name="row6">
      <polygon class="st2" points="1300.1 436.7 1258.5 412.7 1216.9 436.7 1216.9 484.8 1258.5 508.8 1300.1 484.8 1300.1 436.7"/>
      <polygon class="st2" points="1032.3 436.7 1032.3 484.8 1073.9 508.8 1115.5 484.8 1115.5 436.7 1073.9 412.7 1032.3 436.7"/>
      <polygon class="st2" points="848.3 436.7 848.3 484.8 889.9 508.8 931.5 484.8 931.5 436.7 889.9 412.7 848.3 436.7"/>
      <polygon class="st2" points="663.7 436.7 663.7 484.8 705.3 508.8 746.9 484.8 746.9 436.7 705.3 412.7 663.7 436.7"/>
      <polygon class="st2" points="479.2 436.7 479.2 484.8 520.8 508.8 562.4 484.8 562.4 436.7 520.8 412.7 479.2 436.7 479.2 436.7"/>
      <polygon class="st2" points="377.9 484.7 377.9 436.6 336.3 412.6 294.7 436.6 294.7 484.7 336.3 508.7 377.9 484.7"/>
      <polygon class="st2" points="386.9 436.7 386.9 484.8 428.5 508.8 470.1 484.8 470.1 436.7 428.5 412.7 386.9 436.7"/>
      <polygon class="st2" points="571.1 436.7 571.1 484.8 612.7 508.8 654.3 484.8 654.3 436.7 612.7 412.7 571.1 436.7"/>
      <polygon class="st2" points="755.3 436.7 755.3 484.8 796.9 508.8 838.5 484.8 838.5 436.7 796.9 412.7 755.3 436.7"/>
      <polygon class="st2" points="939.5 436.7 939.5 484.8 981.1 508.8 1022.7 484.8 1022.7 436.7 981.1 412.7 939.5 436.7"/>
      <polygon class="st2" points="1207 484.7 1207 436.6 1165.4 412.6 1123.8 436.6 1123.8 484.7 1165.4 508.7 1207 484.7"/>
      <polygon class="st2" points="1393.5 436 1351.9 412 1310.3 436 1310.3 484.1 1351.9 508.1 1393.5 484.1 1393.5 436"/>
    </g>
    <g id="row52" data-name="row5">
      <polygon class="st2" points="1254 357.3 1212.4 333.3 1170.8 357.3 1170.8 405.4 1212.4 429.4 1254 405.4 1254 357.3"/>
      <polygon class="st2" points="1078.5 357.3 1078.5 405.4 1120.1 429.4 1161.7 405.4 1161.7 357.3 1120.1 333.3 1078.5 357.3"/>
      <polygon class="st2" points="986.2 357.3 986.2 405.4 1027.8 429.4 1069.4 405.4 1069.4 357.3 1027.8 333.3 986.2 357.3 986.2 357.3"/>
      <polygon class="st2" points="894.4 357.3 894.4 405.4 936 429.4 977.6 405.4 977.6 357.3 936 333.3 894.4 357.3"/>
      <polygon class="st2" points="802.1 357.3 802.1 405.4 843.7 429.4 885.3 405.4 885.3 357.3 843.7 333.3 802.1 357.3"/>
      <polygon class="st2" points="709.9 357.3 709.9 405.4 751.5 429.4 793.1 405.4 793.1 357.3 751.5 333.3 709.9 357.3"/>
      <polygon class="st2" points="617.6 357.3 617.6 405.4 659.2 429.4 700.8 405.4 700.8 357.3 659.2 333.3 617.6 357.3"/>
      <polygon class="st2" points="525.3 357.3 525.3 405.4 566.9 429.4 608.5 405.4 608.5 357.3 566.9 333.3 525.3 357.3"/>
      <polygon class="st2" points="433 357.3 433 405.4 474.6 429.4 516.2 405.4 516.2 357.3 474.6 333.3 433 357.3"/>
      <polygon class="st2" points="340.7 405.4 382.3 429.4 423.9 405.4 423.9 357.3 382.3 333.3 340.7 357.3 340.7 405.4"/>
      <polygon class="st2" points="1347.4 356.7 1305.8 332.7 1264.2 356.7 1264.2 404.8 1305.8 428.8 1347.4 404.8 1347.4 356.7"/>
    </g>
    <g id="row42" data-name="row4">
      <polygon class="st2" points="1217.1 276.9 1217.1 325 1258.7 349 1300.3 325 1300.3 276.9 1258.7 252.9 1217.1 276.9"/>
      <polygon class="st2" points="1123.8 277.6 1123.8 325.7 1165.4 349.7 1207 325.7 1207 277.6 1165.4 253.6 1123.8 277.6"/>
      <polygon class="st2" points="1032.3 277.6 1032.3 325.7 1073.9 349.7 1115.5 325.7 1115.5 277.6 1073.9 253.6 1032.3 277.6"/>
      <polygon class="st2" points="939.5 277.6 939.5 325.7 981.1 349.7 1022.7 325.7 1022.7 277.6 981.1 253.6 939.5 277.6"/>
      <polygon class="st2" points="848.3 277.6 848.3 325.7 889.9 349.7 931.5 325.7 931.5 277.6 889.9 253.6 848.3 277.6"/>
      <polygon class="st2" points="755.3 277.6 755.3 325.7 796.9 349.7 838.5 325.7 838.5 277.6 796.9 253.6 755.3 277.6"/>
      <polygon class="st2" points="663.7 277.6 663.7 325.7 705.3 349.7 746.9 325.7 746.9 277.6 705.3 253.6 663.7 277.6"/>
      <polygon class="st2" points="571.1 277.6 571.1 325.7 612.7 349.7 654.3 325.7 654.3 277.6 612.7 253.6 571.1 277.6"/>
      <polygon class="st2" points="479.2 277.6 479.2 325.7 520.8 349.7 562.4 325.7 562.4 277.6 520.8 253.6 479.2 277.6 479.2 277.6"/>
      <polygon class="st2" points="386.9 277.6 386.9 325.7 428.5 349.7 470.1 325.7 470.1 277.6 428.5 253.6 386.9 277.6"/>
    </g>
    <g id="row32" data-name="row3">
      <g>
        <polygon class="st2" points="1171.8 197.6 1171.8 245.7 1213.4 269.7 1255 245.7 1255 197.6 1213.4 173.6 1171.8 197.6"/>
        <polygon class="st2" points="1078.5 198.2 1078.5 246.3 1120.1 270.3 1161.7 246.3 1161.7 198.2 1120.1 174.2 1078.5 198.2 1078.5 198.2"/>
        <polygon class="st2" points="986.2 198.2 986.2 246.3 1027.8 270.3 1069.4 246.3 1069.4 198.2 1027.8 174.2 986.2 198.2 986.2 198.2"/>
        <polygon class="st2" points="894.4 198.2 894.4 246.3 936 270.3 977.6 246.3 977.6 198.2 936 174.2 894.4 198.2 894.4 198.2"/>
        <polygon class="st2" points="802.1 198.2 802.1 246.3 843.7 270.3 885.3 246.3 885.3 198.2 843.7 174.2 802.1 198.2 802.1 198.2"/>
        <polygon class="st2" points="709.9 198.2 709.9 246.3 751.5 270.3 793.1 246.3 793.1 198.2 751.5 174.2 709.9 198.2 709.9 198.2"/>
        <polygon class="st2" points="617.6 198.2 617.6 246.3 659.2 270.3 700.8 246.3 700.8 198.2 659.2 174.2 617.6 198.2 617.6 198.2"/>
        <polygon class="st2" points="525.3 198.2 525.3 246.3 566.9 270.3 608.5 246.3 608.5 198.2 566.9 174.2 525.3 198.2 525.3 198.2"/>
        <polygon class="st2" points="434 196.7 434 245.1 475 270.3 517.3 245.2 517.3 198.8 476.3 174.9 434 196.7 434 196.7"/>
      </g>
      <g>
        <polygon class="st2" points="1171.8 197.6 1171.8 245.7 1213.4 269.7 1255 245.7 1255 197.6 1213.4 173.6 1171.8 197.6"/>
        <polygon class="st2" points="1078.5 198.2 1078.5 246.3 1120.1 270.3 1161.7 246.3 1161.7 198.2 1120.1 174.2 1078.5 198.2 1078.5 198.2"/>
        <polygon class="st2" points="986.2 198.2 986.2 246.3 1027.8 270.3 1069.4 246.3 1069.4 198.2 1027.8 174.2 986.2 198.2 986.2 198.2"/>
        <polygon class="st2" points="894.4 198.2 894.4 246.3 936 270.3 977.6 246.3 977.6 198.2 936 174.2 894.4 198.2 894.4 198.2"/>
        <polygon class="st2" points="802.1 198.2 802.1 246.3 843.7 270.3 885.3 246.3 885.3 198.2 843.7 174.2 802.1 198.2 802.1 198.2"/>
        <polygon class="st2" points="709.9 198.2 709.9 246.3 751.5 270.3 793.1 246.3 793.1 198.2 751.5 174.2 709.9 198.2 709.9 198.2"/>
        <polygon class="st2" points="617.6 198.2 617.6 246.3 659.2 270.3 700.8 246.3 700.8 198.2 659.2 174.2 617.6 198.2 617.6 198.2"/>
        <polygon class="st2" points="525.3 198.2 525.3 246.3 566.9 270.3 608.5 246.3 608.5 198.2 566.9 174.2 525.3 198.2 525.3 198.2"/>
        <polygon class="st2" points="434 196.7 434 245.1 475 270.3 517.3 245.2 517.3 198.8 476.3 174.9 434 196.7 434 196.7"/>
      </g>
    </g>
    <g id="row22" data-name="row2">
      <polygon class="st2" points="1125.7 165.9 1167.3 189.9 1208.9 165.9 1208.9 117.8 1167.3 93.8 1125.7 117.8 1125.7 165.9"/>
      <polygon class="st2" points="1032.3 166.6 1073.9 190.6 1115.5 166.6 1115.5 118.5 1073.9 94.5 1032.3 118.5 1032.3 166.6"/>
      <polygon class="st2" points="939.5 166.6 981.1 190.6 1022.7 166.6 1022.7 118.5 981.1 94.5 939.5 118.5 939.5 166.6"/>
      <polygon class="st2" points="848.3 166.6 889.9 190.6 931.5 166.6 931.5 118.5 889.9 94.5 848.3 118.5 848.3 166.6"/>
      <polygon class="st2" points="755.3 166.6 796.9 190.6 838.5 166.6 838.5 118.5 796.9 94.5 755.3 118.5 755.3 166.6"/>
      <polygon class="st2" points="663.7 166.6 705.3 190.6 746.9 166.6 746.9 118.5 705.3 94.5 663.7 118.5 663.7 166.6"/>
      <polygon class="st2" points="571.1 166.6 612.7 190.6 654.3 166.6 654.3 118.5 612.7 94.5 571.1 118.5 571.1 166.6"/>
      <polygon class="st2" points="479.2 166.6 520.8 190.6 562.4 166.6 562.4 118.5 520.8 94.5 479.2 118.5 479.2 166.6 479.2 166.6"/>
    </g>
    <g id="row15" data-name="row1">
      <polygon class="st2" points="1162.8 86.6 1162.8 38.5 1121.2 14.5 1079.6 38.5 1079.6 86.6 1121.2 110.6 1162.8 86.6"/>
      <polygon class="st2" points="1069.4 87.2 1069.4 39.1 1027.8 15.1 986.2 39.1 986.2 87.2 1027.8 111.2 1069.4 87.2"/>
      <polygon class="st2" points="977.7 87.2 977.7 39.1 936.1 15.1 894.5 39.1 894.5 87.2 936.1 111.2 977.7 87.2"/>
      <polygon class="st2" points="885.4 87.2 885.4 39.1 843.8 15.1 802.2 39.1 802.2 87.2 843.8 111.2 885.4 87.2"/>
      <polygon class="st2" points="793.1 87.2 793.1 39.1 751.5 15.1 709.9 39.1 709.9 87.2 751.5 111.2 793.1 87.2"/>
      <polygon class="st2" points="700.9 87.2 700.9 39.1 659.3 15.1 617.7 39.1 617.7 87.2 659.3 111.2 700.9 87.2"/>
      <polygon class="st2" points="608.6 87.2 608.6 39.1 567 15.1 525.4 39.1 525.4 87.2 567 111.2 608.6 87.2"/>
    </g>
  </g>
</svg>