<?xml version="1.0" encoding="UTF-8"?>
<svg id="Layer_1" xmlns="http://www.w3.org/2000/svg" version="1.1" viewBox="0 0 1457.4 1080">
  <!-- Generator: Adobe Illustrator 30.1.0, SVG Export Plug-In . SVG Version: 2.1.1 Build 136)  -->
  <defs>
    <style>
      .st0 {
        fill: #231f20;
      }
    </style>
  </defs>
  <g id="row13">
    <path class="st0" d="M986.2,987v48.1l41.6,24,41.6-24v-48.1l-41.6-24-41.6,24ZM1067.2,1033.8l-39.4,22.8-39.4-22.8v-45.5l39.4-22.8,39.4,22.8v45.5Z"/>
    <path class="st0" d="M894.4,987v48.1l41.6,24,41.6-24v-48.1l-41.6-24-41.6,24ZM975.5,1033.8l-39.4,22.8-39.4-22.8v-45.5l39.4-22.8,39.4,22.8v45.5Z"/>
    <path class="st0" d="M802.1,987v48.1l41.6,24,41.6-24v-48.1l-41.6-24-41.6,24ZM883.2,1033.8l-39.4,22.8-39.4-22.8v-45.5l39.4-22.8,39.4,22.8v45.5Z"/>
    <path class="st0" d="M709.9,987v48.1l41.6,24,41.6-24v-48.1l-41.6-24-41.6,24ZM790.9,1033.8l-39.4,22.8-39.4-22.8v-45.5l39.4-22.8,39.4,22.8v45.5Z"/>
    <path class="st0" d="M617.6,987v48.1l41.6,24,41.6-24v-48.1l-41.6-24-41.6,24ZM698.6,1033.8l-39.4,22.8-39.4-22.8v-45.5l39.4-22.8,39.4,22.8v45.5Z"/>
    <path class="st0" d="M525.3,987v48.1l41.6,24,41.6-24v-48.1l-41.6-24-41.6,24ZM606.4,1033.8l-39.4,22.8-39.4-22.8v-45.5l39.4-22.8,39.4,22.8v45.5Z"/>
    <path id="_x36__x2C_0_x2C_-6" class="st0" d="M1079.5,986.4v48.1l41.6,24,41.6-24v-48.1l-41.6-24-41.6,24ZM1160.6,1033.2l-39.4,22.8-39.4-22.8v-45.5l39.4-22.8,39.4,22.8v45.5Z"/>
  </g>
  <g id="row12">
    <path class="st0" d="M1115.6,909.5l-41.6-24-41.6,24v48.1l41.6,24,41.6-24v-48.1ZM1113.4,956.3l-39.4,22.8-39.4-22.8v-45.5l39.4-22.8,39.4,22.8v45.5Z"/>
    <path class="st0" d="M931.5,909.5l-41.6-24-41.6,24v48.1l41.6,24,41.6-24v-48.1ZM929.3,956.3l-39.4,22.8-39.4-22.8v-45.5l39.4-22.8,39.4,22.8v45.5Z"/>
    <path class="st0" d="M747,909.5l-41.6-24-41.6,24v48.1l41.6,24,41.6-24v-48.1ZM744.8,956.3l-39.4,22.8-39.4-22.8v-45.5l39.4-22.8,39.4,22.8v45.5Z"/>
    <path class="st0" d="M562.4,909.5l-41.6-24-41.6,24v48.1l41.6,24,41.6-24v-48.1ZM560.2,956.3l-39.4,22.8-39.4-22.8v-45.5l39.4-22.8,39.4,22.8v45.5Z"/>
    <path class="st0" d="M654.4,909.5l-41.6-24-41.6,24v48.1l41.6,24,41.6-24v-48.1ZM652.2,956.3l-39.4,22.8-39.4-22.8v-45.5l39.4-22.8,39.4,22.8v45.5Z"/>
    <path class="st0" d="M838.6,909.5l-41.6-24-41.6,24v48.1l41.6,24,41.6-24v-48.1ZM836.4,956.3l-39.4,22.8-39.4-22.8v-45.5l39.4-22.8,39.4,22.8v45.5Z"/>
    <path class="st0" d="M1022.8,909.5l-41.6-24-41.6,24v48.1l41.6,24,41.6-24v-48.1ZM1020.6,956.3l-39.4,22.8-39.4-22.8v-45.5l39.4-22.8,39.4,22.8v45.5Z"/>
    <path class="st0" d="M1209,908.9l-41.6-24-41.6,24v48.1l41.6,24,41.6-24v-48.1ZM1206.7,955.7l-39.4,22.8-39.4-22.8v-45.5l39.4-22.8,39.4,22.8v45.5Z"/>
  </g>
  <g id="row11">
    <path class="st0" d="M1161.7,880.5v-48.1l-41.6-24-41.6,24v48.1l41.6,24,41.6-24ZM1080.7,833.7l39.4-22.8,39.4,22.8v45.5l-39.4,22.8-39.4-22.8v-45.5Z"/>
    <path class="st0" d="M1069.4,880.5v-48.1l-41.6-24-41.6,24v48.1l41.6,24,41.6-24ZM988.4,833.7l39.4-22.8,39.4,22.8v45.5l-39.4,22.8-39.4-22.8v-45.5Z"/>
    <path class="st0" d="M977.7,880.5v-48.1l-41.6-24-41.6,24v48.1l41.6,24,41.6-24ZM896.6,833.7l39.4-22.8,39.4,22.8v45.5l-39.4,22.8-39.4-22.8v-45.5Z"/>
    <path class="st0" d="M885.4,880.5v-48.1l-41.6-24-41.6,24v48.1l41.6,24,41.6-24ZM804.4,833.7l39.4-22.8,39.4,22.8v45.5l-39.4,22.8-39.4-22.8v-45.5Z"/>
    <path class="st0" d="M793.1,880.5v-48.1l-41.6-24-41.6,24v48.1l41.6,24,41.6-24ZM712.1,833.7l39.4-22.8,39.4,22.8v45.5l-39.4,22.8-39.4-22.8v-45.5Z"/>
    <path class="st0" d="M700.9,880.5v-48.1l-41.6-24-41.6,24v48.1l41.6,24,41.6-24ZM619.8,833.7l39.4-22.8,39.4,22.8v45.5l-39.4,22.8-39.4-22.8v-45.5Z"/>
    <path class="st0" d="M608.6,880.5v-48.1l-41.6-24-41.6,24v48.1l41.6,24,41.6-24ZM527.5,833.7l39.4-22.8,39.4,22.8v45.5l-39.4,22.8-39.4-22.8v-45.5Z"/>
    <path class="st0" d="M516.3,880.5v-48.1l-41.6-24-41.6,24v48.1l41.6,24,41.6-24ZM435.2,833.7l39.4-22.8,39.4,22.8v45.5l-39.4,22.8-39.4-22.8v-45.5Z"/>
    <path class="st0" d="M1255.1,879.8v-48.1l-41.6-24-41.6,24v48.1l41.6,24,41.6-24ZM1174,833l39.4-22.8,39.4,22.8v45.5l-39.4,22.8-39.4-22.8v-45.5Z"/>
  </g>
  <g id="row10">
    <path class="st0" d="M1115.6,802.9v-48.1l-41.6-24-41.6,24v48.1l41.6,24,41.6-24ZM1034.5,756.1l39.4-22.8,39.4,22.8v45.5l-39.4,22.8-39.4-22.8v-45.5Z"/>
    <path class="st0" d="M931.5,802.9v-48.1l-41.6-24-41.6,24v48.1l41.6,24,41.6-24ZM850.5,756.1l39.4-22.8,39.4,22.8v45.5l-39.4,22.8-39.4-22.8v-45.5Z"/>
    <path class="st0" d="M747,802.9v-48.1l-41.6-24-41.6,24v48.1l41.6,24,41.6-24ZM665.9,756.1l39.4-22.8,39.4,22.8v45.5l-39.4,22.8-39.4-22.8v-45.5Z"/>
    <path class="st0" d="M562.4,802.9v-48.1l-41.6-24-41.6,24v48.1l41.6,24,41.6-24ZM481.4,756.1l39.4-22.8,39.4,22.8v45.5l-39.4,22.8-39.4-22.8v-45.5Z"/>
    <path class="st0" d="M470.2,802.9v-48.1l-41.6-24-41.6,24v48.1l41.6,24,41.6-24ZM389.1,756.1l39.4-22.8,39.4,22.8v45.5l-39.4,22.8-39.4-22.8v-45.5Z"/>
    <path class="st0" d="M654.4,802.9v-48.1l-41.6-24-41.6,24v48.1l41.6,24,41.6-24ZM573.3,756.1l39.4-22.8,39.4,22.8v45.5l-39.4,22.8-39.4-22.8v-45.5Z"/>
    <path class="st0" d="M838.6,802.9v-48.1l-41.6-24-41.6,24v48.1l41.6,24,41.6-24ZM757.5,756.1l39.4-22.8,39.4,22.8v45.5l-39.4,22.8-39.4-22.8v-45.5Z"/>
    <path class="st0" d="M1022.8,802.9v-48.1l-41.6-24-41.6,24v48.1l41.6,24,41.6-24ZM941.8,756.1l39.4-22.8,39.4,22.8v45.5l-39.4,22.8-39.4-22.8v-45.5Z"/>
    <path class="st0" d="M1207,802.9v-48.1l-41.6-24-41.6,24v48.1l41.6,24,41.6-24ZM1126,756.1l39.4-22.8,39.4,22.8v45.5l-39.4,22.8-39.4-22.8v-45.5Z"/>
    <path class="st0" d="M1300.4,802.3v-48.1l-41.6-24-41.6,24v48.1l41.6,24,41.6-24ZM1219.3,755.5l39.4-22.8,39.4,22.8v45.5l-39.4,22.8-39.4-22.8v-45.5Z"/>
  </g>
  <g id="row9">
    <path class="st0" d="M1254,723.6v-48.1l-41.6-24-41.6,24v48.1l41.6,24,41.6-24ZM1172.9,676.8l39.4-22.8,39.4,22.8v45.5l-39.4,22.8-39.4-22.8v-45.5Z"/>
    <path class="st0" d="M1161.7,723.6v-48.1l-41.6-24-41.6,24v48.1l41.6,24,41.6-24ZM1080.7,676.8l39.4-22.8,39.4,22.8v45.5l-39.4,22.8-39.4-22.8v-45.5Z"/>
    <path class="st0" d="M1069.4,723.6v-48.1l-41.6-24-41.6,24v48.1l41.6,24,41.6-24ZM988.4,676.8l39.4-22.8,39.4,22.8v45.5l-39.4,22.8-39.4-22.8v-45.5Z"/>
    <path class="st0" d="M977.7,723.6v-48.1l-41.6-24-41.6,24v48.1l41.6,24,41.6-24ZM896.6,676.8l39.4-22.8,39.4,22.8v45.5l-39.4,22.8-39.4-22.8v-45.5Z"/>
    <path class="st0" d="M885.4,723.6v-48.1l-41.6-24-41.6,24v48.1l41.6,24,41.6-24ZM804.4,676.8l39.4-22.8,39.4,22.8v45.5l-39.4,22.8-39.4-22.8v-45.5Z"/>
    <path class="st0" d="M793.1,723.6v-48.1l-41.6-24-41.6,24v48.1l41.6,24,41.6-24ZM712.1,676.8l39.4-22.8,39.4,22.8v45.5l-39.4,22.8-39.4-22.8v-45.5Z"/>
    <path class="st0" d="M700.9,723.6v-48.1l-41.6-24-41.6,24v48.1l41.6,24,41.6-24ZM619.8,676.8l39.4-22.8,39.4,22.8v45.5l-39.4,22.8-39.4-22.8v-45.5Z"/>
    <path class="st0" d="M608.6,723.6v-48.1l-41.6-24-41.6,24v48.1l41.6,24,41.6-24ZM527.5,676.8l39.4-22.8,39.4,22.8v45.5l-39.4,22.8-39.4-22.8v-45.5Z"/>
    <path class="st0" d="M516.3,723.6v-48.1l-41.6-24-41.6,24v48.1l41.6,24,41.6-24ZM435.2,676.8l39.4-22.8,39.4,22.8v45.5l-39.4,22.8-39.4-22.8v-45.5Z"/>
    <path class="st0" d="M340.7,723.6l41.6,24,41.6-24v-48.1l-41.6-24-41.6,24v48.1ZM343,676.8l39.4-22.8,39.4,22.8v45.5l-39.4,22.8-39.4-22.8v-45.5Z"/>
    <path class="st0" d="M1347.4,722.9v-48.1l-41.6-24-41.6,24v48.1l41.6,24,41.6-24ZM1266.3,676.1l39.4-22.8,39.4,22.8v45.5l-39.4,22.8-39.4-22.8v-45.5Z"/>
  </g>
  <g id="row8">
    <path class="st0" d="M1300.1,595.8l-41.6-24-41.6,24v48.1l41.6,24,41.6-24v-48.1ZM1297.9,642.6l-39.4,22.8-39.4-22.8v-45.5l39.4-22.8,39.4,22.8v45.5Z"/>
    <path class="st0" d="M1115.6,643.8v-48.1l-41.6-24-41.6,24v48.1l41.6,24,41.6-24ZM1034.5,597l39.4-22.8,39.4,22.8v45.5l-39.4,22.8-39.4-22.8v-45.5Z"/>
    <path class="st0" d="M931.5,643.8v-48.1l-41.6-24-41.6,24v48.1l41.6,24,41.6-24ZM850.5,597l39.4-22.8,39.4,22.8v45.5l-39.4,22.8-39.4-22.8v-45.5Z"/>
    <path class="st0" d="M747,643.8v-48.1l-41.6-24-41.6,24v48.1l41.6,24,41.6-24ZM665.9,597l39.4-22.8,39.4,22.8v45.5l-39.4,22.8-39.4-22.8v-45.5Z"/>
    <path class="st0" d="M562.4,643.8v-48.1l-41.6-24-41.6,24v48.1l41.6,24,41.6-24ZM481.4,597l39.4-22.8,39.4,22.8v45.5l-39.4,22.8-39.4-22.8v-45.5Z"/>
    <path class="st0" d="M377.9,643.8v-48.1l-41.6-24-41.6,24v48.1l41.6,24,41.6-24ZM296.8,597l39.4-22.8,39.4,22.8v45.5l-39.4,22.8-39.4-22.8v-45.5Z"/>
    <path class="st0" d="M386.9,643.8l41.6,24,41.6-24v-48.1l-41.6-24-41.6,24v48.1ZM389.1,597l39.4-22.8,39.4,22.8v45.5l-39.4,22.8-39.4-22.8v-45.5Z"/>
    <path class="st0" d="M654.4,643.8v-48.1l-41.6-24-41.6,24v48.1l41.6,24,41.6-24ZM573.3,597l39.4-22.8,39.4,22.8v45.5l-39.4,22.8-39.4-22.8v-45.5Z"/>
    <path class="st0" d="M838.6,643.8v-48.1l-41.6-24-41.6,24v48.1l41.6,24,41.6-24ZM757.5,597l39.4-22.8,39.4,22.8v45.5l-39.4,22.8-39.4-22.8v-45.5Z"/>
    <path class="st0" d="M1022.8,643.8v-48.1l-41.6-24-41.6,24v48.1l41.6,24,41.6-24ZM941.8,597l39.4-22.8,39.4,22.8v45.5l-39.4,22.8-39.4-22.8v-45.5Z"/>
    <path class="st0" d="M1207,643.8v-48.1l-41.6-24-41.6,24v48.1l41.6,24,41.6-24ZM1126,597l39.4-22.8,39.4,22.8v45.5l-39.4,22.8-39.4-22.8v-45.5Z"/>
    <path class="st0" d="M1393.5,595.1l-41.6-24-41.6,24v48.1l41.6,24,41.6-24v-48.1ZM1391.3,641.9l-39.4,22.8-39.4-22.8v-45.5l39.4-22.8,39.4,22.8v45.5Z"/>
  </g>
  <g id="row7">
    <path class="st0" d="M1263,516.4v48.1l41.6,24,41.6-24v-48.1l-41.6-24-41.6,24ZM1344.1,563.2l-39.4,22.8-39.4-22.8v-45.5l39.4-22.8,39.4,22.8v45.5Z"/>
    <path class="st0" d="M1254,516.4l-41.6-24-41.6,24v48.1l41.6,24,41.6-24v-48.1ZM1251.8,563.2l-39.4,22.8-39.4-22.8v-45.5l39.4-22.8,39.4,22.8v45.5Z"/>
    <path class="st0" d="M1078.5,516.4v48.1l41.6,24,41.6-24v-48.1l-41.6-24-41.6,24ZM1159.5,563.2l-39.4,22.8-39.4-22.8v-45.5l39.4-22.8,39.4,22.8v45.5Z"/>
    <path class="st0" d="M986.2,516.4v48.1l41.6,24,41.6-24v-48.1l-41.6-24-41.6,24ZM1067.2,563.2l-39.4,22.8-39.4-22.8v-45.5l39.4-22.8,39.4,22.8v45.5Z"/>
    <path class="st0" d="M894.4,516.4v48.1l41.6,24,41.6-24v-48.1l-41.6-24-41.6,24ZM975.5,563.2l-39.4,22.8-39.4-22.8v-45.5l39.4-22.8,39.4,22.8v45.5Z"/>
    <path class="st0" d="M802.1,516.4v48.1l41.6,24,41.6-24v-48.1l-41.6-24-41.6,24ZM883.2,563.2l-39.4,22.8-39.4-22.8v-45.5l39.4-22.8,39.4,22.8v45.5Z"/>
    <path class="st0" d="M709.9,516.4v48.1l41.6,24,41.6-24v-48.1l-41.6-24-41.6,24ZM790.9,563.2l-39.4,22.8-39.4-22.8v-45.5l39.4-22.8,39.4,22.8v45.5Z"/>
    <path class="st0" d="M617.6,516.4v48.1l41.6,24,41.6-24v-48.1l-41.6-24-41.6,24ZM698.6,563.2l-39.4,22.8-39.4-22.8v-45.5l39.4-22.8,39.4,22.8v45.5Z"/>
    <path class="st0" d="M525.3,516.4v48.1l41.6,24,41.6-24v-48.1l-41.6-24-41.6,24ZM606.4,563.2l-39.4,22.8-39.4-22.8v-45.5l39.4-22.8,39.4,22.8v45.5Z"/>
    <path class="st0" d="M433,516.4v48.1l41.6,24,41.6-24v-48.1l-41.6-24-41.6,24ZM514.1,563.2l-39.4,22.8-39.4-22.8v-45.5l39.4-22.8,39.4,22.8v45.5Z"/>
    <path class="st0" d="M340.7,564.5l41.6,24,41.6-24v-48.1l-41.6-24-41.6,24v48.1ZM343,517.7l39.4-22.8,39.4,22.8v45.5l-39.4,22.8-39.4-22.8v-45.5Z"/>
    <path class="st0" d="M331.7,564.5v-48.1l-41.6-24-41.6,24v48.1l41.6,24,41.6-24ZM250.7,517.7l39.4-22.8,39.4,22.8v45.5l-39.4,22.8-39.4-22.8v-45.5Z"/>
    <path class="st0" d="M1356.4,515.8v48.1l41.6,24,41.6-24v-48.1l-41.6-24-41.6,24ZM1437.4,562.6l-39.4,22.8-39.4-22.8v-45.5l39.4-22.8,39.4,22.8v45.5Z"/>
  </g>
  <g id="row6">
    <path class="st0" d="M1300.1,436.7l-41.6-24-41.6,24v48.1l41.6,24,41.6-24v-48.1ZM1297.9,483.5l-39.4,22.8-39.4-22.8v-45.5l39.4-22.8,39.4,22.8v45.5Z"/>
    <path class="st0" d="M1032.3,436.7v48.1l41.6,24,41.6-24v-48.1l-41.6-24-41.6,24ZM1113.4,483.5l-39.4,22.8-39.4-22.8v-45.5l39.4-22.8,39.4,22.8v45.5Z"/>
    <path class="st0" d="M848.3,436.7v48.1l41.6,24,41.6-24v-48.1l-41.6-24-41.6,24ZM929.3,483.5l-39.4,22.8-39.4-22.8v-45.5l39.4-22.8,39.4,22.8v45.5Z"/>
    <path class="st0" d="M663.7,436.7v48.1l41.6,24,41.6-24v-48.1l-41.6-24-41.6,24ZM744.8,483.5l-39.4,22.8-39.4-22.8v-45.5l39.4-22.8,39.4,22.8v45.5Z"/>
    <path class="st0" d="M479.2,436.7v48.1l41.6,24,41.6-24v-48.1l-41.6-24-41.6,24ZM560.2,483.5l-39.4,22.8-39.4-22.8v-45.5l39.4-22.8,39.4,22.8v45.5Z"/>
    <path class="st0" d="M377.9,484.7v-48.1l-41.6-24-41.6,24v48.1l41.6,24,41.6-24ZM296.8,437.9l39.4-22.8,39.4,22.8v45.5l-39.4,22.8-39.4-22.8v-45.5Z"/>
    <path class="st0" d="M386.9,436.7v48.1l41.6,24,41.6-24v-48.1l-41.6-24-41.6,24ZM467.9,483.5l-39.4,22.8-39.4-22.8v-45.5l39.4-22.8,39.4,22.8v45.5Z"/>
    <path class="st0" d="M571.1,436.7v48.1l41.6,24,41.6-24v-48.1l-41.6-24-41.6,24ZM652.2,483.5l-39.4,22.8-39.4-22.8v-45.5l39.4-22.8,39.4,22.8v45.5Z"/>
    <path class="st0" d="M755.3,436.7v48.1l41.6,24,41.6-24v-48.1l-41.6-24-41.6,24ZM836.4,483.5l-39.4,22.8-39.4-22.8v-45.5l39.4-22.8,39.4,22.8v45.5Z"/>
    <path class="st0" d="M939.5,436.7v48.1l41.6,24,41.6-24v-48.1l-41.6-24-41.6,24ZM1020.6,483.5l-39.4,22.8-39.4-22.8v-45.5l39.4-22.8,39.4,22.8v45.5Z"/>
    <path class="st0" d="M1207,484.7v-48.1l-41.6-24-41.6,24v48.1l41.6,24,41.6-24ZM1126,437.9l39.4-22.8,39.4,22.8v45.5l-39.4,22.8-39.4-22.8v-45.5Z"/>
    <path class="st0" d="M1393.5,436l-41.6-24-41.6,24v48.1l41.6,24,41.6-24v-48.1ZM1391.3,482.8l-39.4,22.8-39.4-22.8v-45.5l39.4-22.8,39.4,22.8v45.5Z"/>
  </g>
  <g id="row5">
    <path class="st0" d="M1254,357.3l-41.6-24-41.6,24v48.1l41.6,24,41.6-24v-48.1ZM1251.8,404.1l-39.4,22.8-39.4-22.8v-45.5l39.4-22.8,39.4,22.8v45.5Z"/>
    <path class="st0" d="M1078.5,357.3v48.1l41.6,24,41.6-24v-48.1l-41.6-24-41.6,24ZM1159.5,404.1l-39.4,22.8-39.4-22.8v-45.5l39.4-22.8,39.4,22.8v45.5Z"/>
    <path class="st0" d="M986.2,357.3v48.1l41.6,24,41.6-24v-48.1l-41.6-24-41.6,24ZM1067.2,404.1l-39.4,22.8-39.4-22.8v-45.5l39.4-22.8,39.4,22.8v45.5Z"/>
    <path class="st0" d="M894.4,357.3v48.1l41.6,24,41.6-24v-48.1l-41.6-24-41.6,24ZM975.5,404.1l-39.4,22.8-39.4-22.8v-45.5l39.4-22.8,39.4,22.8v45.5Z"/>
    <path class="st0" d="M802.1,357.3v48.1l41.6,24,41.6-24v-48.1l-41.6-24-41.6,24ZM883.2,404.1l-39.4,22.8-39.4-22.8v-45.5l39.4-22.8,39.4,22.8v45.5Z"/>
    <path class="st0" d="M709.9,357.3v48.1l41.6,24,41.6-24v-48.1l-41.6-24-41.6,24ZM790.9,404.1l-39.4,22.8-39.4-22.8v-45.5l39.4-22.8,39.4,22.8v45.5Z"/>
    <path class="st0" d="M617.6,357.3v48.1l41.6,24,41.6-24v-48.1l-41.6-24-41.6,24ZM698.6,404.1l-39.4,22.8-39.4-22.8v-45.5l39.4-22.8,39.4,22.8v45.5Z"/>
    <path class="st0" d="M525.3,357.3v48.1l41.6,24,41.6-24v-48.1l-41.6-24-41.6,24ZM606.4,404.1l-39.4,22.8-39.4-22.8v-45.5l39.4-22.8,39.4,22.8v45.5Z"/>
    <path class="st0" d="M433,357.3v48.1l41.6,24,41.6-24v-48.1l-41.6-24-41.6,24ZM514.1,404.1l-39.4,22.8-39.4-22.8v-45.5l39.4-22.8,39.4,22.8v45.5Z"/>
    <path class="st0" d="M340.7,405.4l41.6,24,41.6-24v-48.1l-41.6-24-41.6,24v48.1ZM343,358.6l39.4-22.8,39.4,22.8v45.5l-39.4,22.8-39.4-22.8v-45.5Z"/>
    <path class="st0" d="M1347.4,356.7l-41.6-24-41.6,24v48.1l41.6,24,41.6-24v-48.1ZM1345.2,403.5l-39.4,22.8-39.4-22.8v-45.5l39.4-22.8,39.4,22.8v45.5Z"/>
  </g>
  <g id="row4">
    <path id="_x33__x2C_-6_x2C_3" class="st0" d="M1217.1,276.9v48.1l41.6,24,41.6-24v-48.1l-41.6-24-41.6,24ZM1298.2,323.7l-39.4,22.8-39.4-22.8v-45.5l39.4-22.8,39.4,22.8v45.5Z"/>
    <path id="_x32__x2C_-5_x2C_3" class="st0" d="M1123.8,277.6v48.1l41.6,24,41.6-24v-48.1l-41.6-24-41.6,24ZM1204.8,324.4l-39.4,22.8-39.4-22.8v-45.5l39.4-22.8,39.4,22.8v45.5Z"/>
    <path id="_x31__x2C_-4_x2C_3" class="st0" d="M1032.3,277.6v48.1l41.6,24,41.6-24v-48.1l-41.6-24-41.6,24ZM1113.4,324.4l-39.4,22.8-39.4-22.8v-45.5l39.4-22.8,39.4,22.8v45.5Z"/>
    <path id="_x30__x2C_-3_x2C_3" class="st0" d="M939.5,277.6v48.1l41.6,24,41.6-24v-48.1l-41.6-24-41.6,24ZM1020.6,324.4l-39.4,22.8-39.4-22.8v-45.5l39.4-22.8,39.4,22.8v45.5Z"/>
    <path id="_x2D_1_x2C_-2_x2C_3" class="st0" d="M848.3,277.6v48.1l41.6,24,41.6-24v-48.1l-41.6-24-41.6,24ZM929.3,324.4l-39.4,22.8-39.4-22.8v-45.5l39.4-22.8,39.4,22.8v45.5Z"/>
    <path id="_x2D_2_x2C_-1_x2C_3" class="st0" d="M755.3,277.6v48.1l41.6,24,41.6-24v-48.1l-41.6-24-41.6,24ZM836.4,324.4l-39.4,22.8-39.4-22.8v-45.5l39.4-22.8,39.4,22.8v45.5Z"/>
    <path id="_x2D_3_x2C_0_x2C_3" class="st0" d="M663.7,277.6v48.1l41.6,24,41.6-24v-48.1l-41.6-24-41.6,24ZM744.8,324.4l-39.4,22.8-39.4-22.8v-45.5l39.4-22.8,39.4,22.8v45.5Z"/>
    <path id="_x2D_4_x2C_1_x2C_3" class="st0" d="M571.1,277.6v48.1l41.6,24,41.6-24v-48.1l-41.6-24-41.6,24ZM652.2,324.4l-39.4,22.8-39.4-22.8v-45.5l39.4-22.8,39.4,22.8v45.5Z"/>
    <path id="_x2D_5_x2C_2_x2C_3" class="st0" d="M479.2,277.6v48.1l41.6,24,41.6-24v-48.1l-41.6-24-41.6,24ZM560.2,324.4l-39.4,22.8-39.4-22.8v-45.5l39.4-22.8,39.4,22.8v45.5Z"/>
    <path id="_x2D_6_x2C_3_x2C_3" class="st0" d="M386.9,277.6v48.1l41.6,24,41.6-24v-48.1l-41.6-24-41.6,24ZM467.9,324.4l-39.4,22.8-39.4-22.8v-45.5l39.4-22.8,39.4,22.8v45.5Z"/>
  </g>
  <g id="row3">
    <path id="_x32__x2C_-6_x2C_4" class="st0" d="M1171.8,197.6v48.1l41.6,24,41.6-24v-48.1l-41.6-24-41.6,24ZM1252.9,244.4l-39.4,22.8-39.4-22.8v-45.5l39.4-22.8,39.4,22.8v45.5Z"/>
    <path id="_x31__x2C_-5_x2C_4" class="st0" d="M1078.5,198.2v48.1l41.6,24,41.6-24v-48.1l-41.6-24-41.6,24ZM1159.5,245l-39.4,22.8-39.4-22.8v-45.5l39.4-22.8,39.4,22.8v45.5Z"/>
    <path id="_x30__x2C_-4_x2C_4" class="st0" d="M986.2,198.2v48.1l41.6,24,41.6-24v-48.1l-41.6-24-41.6,24ZM1067.2,245l-39.4,22.8-39.4-22.8v-45.5l39.4-22.8,39.4,22.8v45.5Z"/>
    <path id="_x2D_1_x2C_-3_x2C_4" class="st0" d="M894.4,198.2v48.1l41.6,24,41.6-24v-48.1l-41.6-24-41.6,24ZM975.5,245l-39.4,22.8-39.4-22.8v-45.5l39.4-22.8,39.4,22.8v45.5Z"/>
    <path id="_x2D_2_x2C_-2_x2C_4" class="st0" d="M802.1,198.2v48.1l41.6,24,41.6-24v-48.1l-41.6-24-41.6,24ZM883.2,245l-39.4,22.8-39.4-22.8v-45.5l39.4-22.8,39.4,22.8v45.5Z"/>
    <path id="_x2D_3_x2C_-1_x2C_4" class="st0" d="M709.9,198.2v48.1l41.6,24,41.6-24v-48.1l-41.6-24-41.6,24ZM790.9,245l-39.4,22.8-39.4-22.8v-45.5l39.4-22.8,39.4,22.8v45.5Z"/>
    <path id="_x2D_4_x2C_0_x2C_4" class="st0" d="M617.6,198.2v48.1l41.6,24,41.6-24v-48.1l-41.6-24-41.6,24ZM698.6,245l-39.4,22.8-39.4-22.8v-45.5l39.4-22.8,39.4,22.8v45.5Z"/>
    <path id="_x2D_5_x2C_1_x2C_4" class="st0" d="M525.3,198.2v48.1l41.6,24,41.6-24v-48.1l-41.6-24-41.6,24ZM606.4,245l-39.4,22.8-39.4-22.8v-45.5l39.4-22.8,39.4,22.8v45.5Z"/>
    <path id="_x2D_6_x2C_2_x2C_4" class="st0" d="M433.7,197.1l-1.3,48.1,41,25.2,42.3-22.9,1.3-48.1-41-25.2-42.3,22.9ZM513.4,246.1l-40,21.7-38.8-23.8,1.3-45.5,40-21.7,38.8,23.8-1.3,45.5Z"/>
  </g>
  <g id="row2">
    <path id="_x31__x2C_-6_x2C_5" class="st0" d="M1125.7,165.9l41.6,24,41.6-24v-48.1l-41.6-24-41.6,24v48.1ZM1127.9,119.1l39.4-22.8,39.4,22.8v45.5l-39.4,22.8-39.4-22.8v-45.5Z"/>
    <path id="_x30__x2C_-5_x2C_5" class="st0" d="M1032.3,166.6l41.6,24,41.6-24v-48.1l-41.6-24-41.6,24v48.1ZM1034.5,119.8l39.4-22.8,39.4,22.8v45.5l-39.4,22.8-39.4-22.8v-45.5Z"/>
    <path id="_x2D_1_x2C_-4_x2C_5" class="st0" d="M939.5,166.6l41.6,24,41.6-24v-48.1l-41.6-24-41.6,24v48.1ZM941.8,119.8l39.4-22.8,39.4,22.8v45.5l-39.4,22.8-39.4-22.8v-45.5Z"/>
    <path id="_x2D_2_x2C_-3_x2C_5" class="st0" d="M848.3,166.6l41.6,24,41.6-24v-48.1l-41.6-24-41.6,24v48.1ZM850.5,119.8l39.4-22.8,39.4,22.8v45.5l-39.4,22.8-39.4-22.8v-45.5Z"/>
    <path id="_x2D_3_x2C_-2_x2C_5" class="st0" d="M755.3,166.6l41.6,24,41.6-24v-48.1l-41.6-24-41.6,24v48.1ZM757.5,119.8l39.4-22.8,39.4,22.8v45.5l-39.4,22.8-39.4-22.8v-45.5Z"/>
    <path id="_x2D_4_x2C_-1_x2C_5" class="st0" d="M663.7,166.6l41.6,24,41.6-24v-48.1l-41.6-24-41.6,24v48.1ZM665.9,119.8l39.4-22.8,39.4,22.8v45.5l-39.4,22.8-39.4-22.8v-45.5Z"/>
    <path id="_x2D_5_x2C_0_x2C_5" class="st0" d="M571.1,166.6l41.6,24,41.6-24v-48.1l-41.6-24-41.6,24v48.1ZM573.3,119.8l39.4-22.8,39.4,22.8v45.5l-39.4,22.8-39.4-22.8v-45.5Z"/>
    <path id="_x2D_6_x2C_1_x2C_5" class="st0" d="M479.2,166.6l41.6,24,41.6-24v-48.1l-41.6-24-41.6,24v48.1ZM481.4,119.8l39.4-22.8,39.4,22.8v45.5l-39.4,22.8-39.4-22.8v-45.5Z"/>
  </g>
  <g id="row1">
    <path id="_x30__-6_6" class="st0" d="M1162.8,86.6v-48.1l-41.6-24-41.6,24v48.1l41.6,24,41.6-24ZM1081.8,39.8l39.4-22.8,39.4,22.8v45.5l-39.4,22.8-39.4-22.8v-45.5Z"/>
    <path id="_x2D_1_-5_6" class="st0" d="M1069.4,87.2v-48.1l-41.6-24-41.6,24v48.1l41.6,24,41.6-24ZM988.4,40.4l39.4-22.8,39.4,22.8v45.5l-39.4,22.8-39.4-22.8v-45.5Z"/>
    <path id="_x2D_2_-4_6" class="st0" d="M977.7,87.2v-48.1l-41.6-24-41.6,24v48.1l41.6,24,41.6-24ZM896.6,40.4l39.4-22.8,39.4,22.8v45.5l-39.4,22.8-39.4-22.8v-45.5Z"/>
    <path id="_x2D_3_-3_6" class="st0" d="M885.4,87.2v-48.1l-41.6-24-41.6,24v48.1l41.6,24,41.6-24ZM804.4,40.4l39.4-22.8,39.4,22.8v45.5l-39.4,22.8-39.4-22.8v-45.5Z"/>
    <path id="_x2D_4_-2_6" class="st0" d="M793.1,87.2v-48.1l-41.6-24-41.6,24v48.1l41.6,24,41.6-24ZM712.1,40.4l39.4-22.8,39.4,22.8v45.5l-39.4,22.8-39.4-22.8v-45.5Z"/>
    <path id="_x2D_5_-1_6" class="st0" d="M700.9,87.2v-48.1l-41.6-24-41.6,24v48.1l41.6,24,41.6-24ZM619.8,40.4l39.4-22.8,39.4,22.8v45.5l-39.4,22.8-39.4-22.8v-45.5Z"/>
    <path id="_x2D_6_0_6" class="st0" d="M608.6,87.2v-48.1l-41.6-24-41.6,24v48.1l41.6,24,41.6-24ZM527.5,40.4l39.4-22.8,39.4,22.8v45.5l-39.4,22.8-39.4-22.8v-45.5Z"/>
  </g>
</svg>