<?xml version="1.0" encoding="UTF-8"?>
<svg id="Layer_1" xmlns="http://www.w3.org/2000/svg" version="1.1" viewBox="0 0 104.5 114.7">
  <!-- Generator: Adobe Illustrator 30.1.0, SVG Export Plug-In . SVG Version: 2.1.1 Build 136)  -->
  <path d="M52.3,102.2c0,0-.2,0-.3,0-8.5-2.2-15.8-6.1-22.5-11.9-8.7-7.5-13.9-18.2-15.1-30.9V24.9c0-.5.4-1,.9-1,13.4-.2,25.6-4,36.4-11.3.2-.1.4-.2.6-.2s.4,0,.6.2c11,7.5,22.8,11.2,36.2,11.3.5,0,1,.5,1,1v33.4c-.8,12.7-5.7,23.2-14.4,31.3-6.7,6-14.3,10.1-23.1,12.5,0,0-.2,0-.3,0ZM21.4,65.6c-.5,0-.7,0-.7.1-.3.3-.6,1.5-.5,1.9,3.3,10.8,9.8,19.2,18.8,24.3,6.4,3.6,10,5.5,13.7,5.5s9.1-2.8,17.5-8.6c.1-.4,0-1.8-.1-2.5,0-.3-.2-.4-.2-.4-.2,0-1.1.6-1.7,1-1.2.8-2.5,1.6-3.8,1.6s-.2,0-.3,0c-2.8-.3-6.7-4.5-7-6.9-.2-1.6.8-2.8,1.6-3.8.9-1,1.1-1.4.9-1.8-.2-.4-.9-.5-2-.6-1.3-.1-3.1-.3-4-1.9-1.2-2.2-1.2-7.3.4-9.4.9-1.2,2.4-1.3,3.5-1.4,1.1,0,1.9-.2,2.3-.7,0-.2-.5-.8-.8-1.1-.9-1-2.1-2.3-1.9-4.3.2-2.4,3.9-6.4,7.1-7,.2,0,.3,0,.5,0,1.3,0,2.3.8,3.2,1.5.6.5,1.3,1,1.8,1s.2,0,.4-.1c0-.1.1-.8.1-1.2,0-1.3.1-3.1,1.7-4.3,1.2-.9,3.3-1.2,4.9-1.2,2.3,0,4.3.6,5.4,1.7.9.9,1.1,2.5,1.3,4.1,0,.3,0,.6.1.9.1,0,.4.1.7.1s.4,0,.5,0c.6-.5,1.3-1.3,1.3-1.5v-22.2c-12.3-.8-23.3-4.4-33.7-10.8-4.4,2.6-8.9,4.7-13.9,7,.2.3.5.6.7.7,1.3-.2,1.9-.8,2.7-1.5.9-.8,1.8-1.7,3.7-1.7s.5,0,.7,0c2.7.3,7.4,4.9,7.9,7.8.4,2.4-1,3.9-2.1,5-1.1,1.2-1.4,1.6-1.1,2.2.4.8,1,.9,2.5,1,1.6,0,3.5.1,4.9,2.1,1.5,2.1,1.9,8.5-.4,11.1-1.4,1.6-3.2,1.6-4.7,1.7-1.5,0-2.1.2-2.4.9-.3.7,0,1,1,2.1,1,1,2.5,2.4,2.2,4.9-.3,3.1-5.2,7.7-8,8.1-.2,0-.5,0-.7,0-1.9,0-3.2-1.2-4.3-2.2-.6-.6-1.2-1.2-1.7-1.2s-.3,0-.5.2c-.6.4-.7,1.2-.9,2.6-.1,1.5-.3,3.4-1.9,4.6-1.2.9-3.2,1.5-5.6,1.5s-4.6-.4-6-1.6c-1.5-1.3-1.6-3.2-1.6-4.8,0-1.2,0-2-.5-2.2-.3,0-.6-.2-1-.2ZM69.2,81.5c2,0,4,1.3,5.3,3.3,7-6.8,10.9-16.6,11.2-27.7-2.1-.4-3.8-1-5.7-1.7-.3-.1-.6-.4-.6-.8l-.6-4.7c-.7-.3-1.7-.5-2.6-.5s-1.4,0-1.7.6c-.2.5-.2,1.1-.2,1.8,0,1.3,0,3.2-2.1,3.9-.3,0-.6.2-1,.4-.8.4-1.6.8-2.6.8s-1.7-.4-2.4-1.3c-.6-.8-1.6-1.5-1.9-1.6-.9,0-2.6,1.8-3.1,3,0,0,.5.4.7.7,1.2,1,3.1,2.8,1.6,6.3-1.1,2.6-2.8,2.7-4.5,2.8-.6,0-1.2,0-1.9.2-.1,0-.5.9-.4,2.2,0,1.1.4,1.8.6,1.9.6.2,1.3.2,1.9.2,1.4,0,3.4,0,4.1,2.6,0,.2.1.3.2.5.5,1.5,1.2,3.8-1.4,5.5-.3.2-.8.8-.9,1.2,1.3,2,2.5,2.9,3.1,2.9h0s0,0,.1,0c.2,0,.8-.6,1.1-.9.4-.3.8-.7,1.1-1,.7-.5,1.5-.7,2.4-.7ZM27.5,69.5c1.2.2,2.4.4,3.6.4s1.8-.1,2.4-.4c.5-.9.5-2.6.5-4.2,0-.5,0-1,0-1.5,0-.4.2-.7.6-.9l5.3-2.4c.1,0,.3,0,.4,0,.2,0,.5,0,.6.2l4.6,3.9c1.9-1.1,3.4-2.6,4.3-4.4l-3.7-4.4c-.2-.3-.3-.6-.2-1,.5-1.5,1.6-4.1,2.4-5.4.2-.3.5-.5.8-.5l5.5-.5c1.2-1.7.5-4.6,0-6l-5.7-.5c-.4,0-.7-.3-.8-.6l-2.2-5.3c-.1-.3,0-.7.2-1l3.7-4.3c-.8-1.4-2.4-3.7-4.5-4.3-.4.2-1.2,1-1.7,1.5-.8.8-1.5,1.5-2.2,1.8-.5.2-1,.3-1.5.3-2.5,0-5-1.9-6.4-3.9-5.2,1-9.7,1.7-14.9,2.4v31.2q0,1.5,1.3,1.5c1.5,0,3.7,0,6.6,2.2.2.2.4.4.4.7l.6,5.6Z"/>
  <path d="M41,47.3c-1.8,1.6.8-10.3-8.3-11.7s-9.4,2.3-10.6,7,2.4,9.8,7.2,10.8,1.1.9,1.2,1.2-1,1-1.4,1c-6.1-.9-10-6.9-9.2-12.7s6.7-10.2,12.6-9.7,10.6,7.5,9.7,12.7-.9,1.1-1.1,1.3Z"/>
  <path d="M76.4,77.8c-1.2-1.5,9.1-2.9,6-11.2-1.4-3.8-6.3-5.4-10-3.7s-1.6,0-1.7-.4.4-1.4.8-1.6c4.9-2.5,11-.1,12.9,4.8s-.8,11.4-6.5,12.7-1.4-.3-1.6-.6Z"/>
</svg>