<?xml version="1.0" encoding="UTF-8"?>
<svg id="Layer_1" xmlns="http://www.w3.org/2000/svg" version="1.1" viewBox="0 0 104.5 114.7">
  <!-- Generator: Adobe Illustrator 30.1.0, SVG Export Plug-In . SVG Version: 2.1.1 Build 136)  -->
  <path d="M82.7,81.8c-3.8,2.7-6.6,6.2-10.3,8.6-6.5,4.2-13.5,6.7-20.5,10.1-11.7-4.8-23.7-11.9-30.5-22-4-5.9-5.2-12.2-7-19V25.3c0-3.6,2.5-5.7,6-5.6,24.6.4,31.6-14.5,34.9-10.5s8.1,6.4,13.3,8,10.8,2.9,16.9,3,2.6.4,3.4.8,1.5,2.1,1.5,3.3l-.2,32.5c0,4.2-1,8.5-1.9,12.6-1,4.4-3.8,8.1-5.6,12.5ZM85.2,58.2V24.8c-6.6,0-12.5-1.1-18.5-3.4-5.2-1-9.4-3.5-13.6-7.4-9.7,7.6-21.3,10.6-33.7,10.8v33c0,6.5,2.9,11.7,5.4,17.7,6.9,9.1,16.5,15.7,27.3,19.8,5.9-2.9,11.5-5.1,16.9-8.4,9.7-6,16.2-16.8,16.2-28.6Z"/>
  <path d="M55.2,82.8c-7.8,0-13.9-2.5-18-7.4-5.1-6-6.8-13.7-4.5-21.1l-2.4-3c-.3-.4-.3-.9,0-1.3l4.1-4.7c-.4-.8-1.3-1.6-2.2-2.4-2.2-2.1-5.3-5-2.4-9,1.2-1.6,2.5-2.4,4.1-2.4s2.5.6,3.6,1.1c.8.4,1.5.8,2,.8s.4,0,.6-.2c.4-.3.1-2.2,0-3-.2-1.3-.3-2.2.2-2.8.2-.3.6-.4.9-.4.6,0,1.1.3,2.1,1.3.9.9,1.4,2.4,1.4,4,0,1.6-.6,3-1.5,3.8-1.3,1.2-2.5,1.7-3.8,1.7s-2.5-.6-3.5-1.2c-.7-.4-1.3-.8-1.9-.8s-.3,0-.5.1c-.3.2-.6,1.2-.6,1.6,1.4,1.8,3.1,3.3,4.6,4.5l4.3-4c0,0,.2-.2.3-.2.2,0,.3,0,.5,0,.9,0,1.7.7,2.7,1.4.3.2.6.5.9.6,3.3-.6,6.2-1,8.7-1s6.2.6,8.5,1.7c9.6,4.8,14.2,14.7,11.7,25.2-1.5,6.2-4.1,10.1-9.1,13.6-3,2.1-5.3,3.3-9.3,3.4-.5,0-1,0-1.5,0ZM35.6,50.6c.3.5,1.3,1.5,1.8,2.1,1.4,1.4,2.4,2.4,2.1,3.4-.1.5-.4.8-.9,1l-2.9,1.1c0,0-.2.3-.3.7-.6,3.1,2.3,11.4,5.6,14.5,3.6,3.3,7.9,5.2,12,5.2s2.8-.2,4.1-.6c10-3.2,15-11.3,13.2-21.4-1.9-10.2-13.1-13.6-17.9-13.6s-2.5.4-2.5.5l-.6,2.9c0,.3-.3.6-.7.7-.1,0-.2,0-.3,0-.2,0-.5,0-.6-.2l-4.8-4-7.4,7.7ZM33,37.5h0Z"/>
</svg>